<?xml version="1.0" encoding="UTF-8"?>
<svg xmlns="http://www.w3.org/2000/svg" xmlns:xlink="http://www.w3.org/1999/xlink" width="1080" height="1920" viewBox="0 0 1080 1920">
<defs>
<g>
<g id="glyph-0-0">
<path d="M 6.300781 0 L 4.128906 -2.589844 L 5.859375 -2.589844 L 7.738281 -0.371094 L 7.730469 0 L 6.300781 0 M 0.558594 0 L 0.558594 -7.191406 L 6.359375 -7.191406 C 6.621094 -7.191406 6.855469 -7.125 7.066406 -7 C 7.273438 -6.875 7.441406 -6.703125 7.570312 -6.496094 C 7.695312 -6.285156 7.761719 -6.054688 7.761719 -5.800781 L 7.761719 -3.859375 C 7.761719 -3.605469 7.695312 -3.375 7.570312 -3.160156 C 7.441406 -2.945312 7.273438 -2.777344 7.066406 -2.65625 C 6.855469 -2.53125 6.621094 -2.46875 6.359375 -2.46875 L 1.878906 -2.460938 L 1.878906 0 L 0.558594 0 M 2 -3.800781 L 6.300781 -3.800781 C 6.339844 -3.792969 6.371094 -3.800781 6.394531 -3.824219 C 6.417969 -3.847656 6.429688 -3.875 6.429688 -3.910156 L 6.429688 -5.75 C 6.429688 -5.785156 6.417969 -5.8125 6.394531 -5.835938 C 6.371094 -5.859375 6.339844 -5.871094 6.300781 -5.871094 L 2 -5.871094 C 1.964844 -5.871094 1.9375 -5.859375 1.914062 -5.835938 C 1.890625 -5.8125 1.878906 -5.785156 1.878906 -5.75 L 1.878906 -3.910156 C 1.878906 -3.875 1.890625 -3.847656 1.914062 -3.824219 C 1.9375 -3.800781 1.964844 -3.792969 2 -3.800781 Z "/>
</g>
<g id="glyph-0-1">
<path d="M 1.890625 0 C 1.636719 0 1.40625 -0.0625 1.199219 -0.191406 C 0.992188 -0.316406 0.828125 -0.484375 0.699219 -0.691406 C 0.574219 -0.898438 0.511719 -1.125 0.511719 -1.378906 L 0.511719 -4.421875 C 0.511719 -4.671875 0.574219 -4.902344 0.699219 -5.109375 C 0.828125 -5.316406 0.992188 -5.484375 1.199219 -5.609375 C 1.40625 -5.738281 1.636719 -5.800781 1.890625 -5.800781 L 5.019531 -5.800781 C 5.28125 -5.800781 5.511719 -5.738281 5.71875 -5.613281 C 5.925781 -5.492188 6.089844 -5.324219 6.214844 -5.113281 C 6.339844 -4.90625 6.398438 -4.671875 6.398438 -4.421875 L 6.398438 -2.25 L 1.820312 -2.238281 L 1.820312 -1.429688 C 1.8125 -1.398438 1.824219 -1.367188 1.851562 -1.339844 C 1.875 -1.3125 1.90625 -1.304688 1.941406 -1.308594 L 6.398438 -1.300781 L 6.398438 0 L 1.878906 0 L 1.890625 0 M 1.808594 -3.421875 L 5.089844 -3.421875 L 5.089844 -4.371094 C 5.089844 -4.402344 5.078125 -4.433594 5.054688 -4.460938 C 5.03125 -4.488281 5.003906 -4.496094 4.96875 -4.488281 L 1.941406 -4.488281 C 1.90625 -4.496094 1.875 -4.488281 1.851562 -4.460938 C 1.824219 -4.433594 1.8125 -4.402344 1.820312 -4.371094 Z "/>
</g>
<g id="glyph-0-2">
<path d="M 1.859375 0 C 1.605469 0 1.375 -0.0625 1.171875 -0.191406 C 0.964844 -0.316406 0.796875 -0.484375 0.671875 -0.691406 C 0.542969 -0.898438 0.480469 -1.125 0.480469 -1.378906 L 0.480469 -1.601562 L 1.789062 -1.601562 L 1.789062 -1.429688 C 1.785156 -1.398438 1.792969 -1.367188 1.820312 -1.339844 C 1.847656 -1.3125 1.875 -1.304688 1.910156 -1.308594 L 4.941406 -1.308594 C 4.972656 -1.304688 5 -1.3125 5.023438 -1.339844 C 5.046875 -1.367188 5.058594 -1.398438 5.058594 -1.429688 L 5.058594 -2.121094 C 5.058594 -2.160156 5.046875 -2.191406 5.023438 -2.214844 C 5 -2.238281 4.972656 -2.246094 4.941406 -2.238281 L 1.859375 -2.238281 C 1.605469 -2.246094 1.375 -2.3125 1.171875 -2.433594 C 0.964844 -2.558594 0.796875 -2.726562 0.671875 -2.933594 C 0.542969 -3.144531 0.480469 -3.375 0.480469 -3.621094 L 0.480469 -4.421875 C 0.480469 -4.671875 0.542969 -4.902344 0.671875 -5.109375 C 0.796875 -5.316406 0.964844 -5.484375 1.171875 -5.609375 C 1.375 -5.738281 1.605469 -5.800781 1.859375 -5.800781 L 4.988281 -5.800781 C 5.25 -5.800781 5.484375 -5.738281 5.691406 -5.609375 C 5.898438 -5.484375 6.0625 -5.316406 6.191406 -5.109375 C 6.316406 -4.902344 6.378906 -4.671875 6.378906 -4.421875 L 6.378906 -4.199219 L 5.058594 -4.199219 L 5.058594 -4.371094 C 5.058594 -4.402344 5.046875 -4.433594 5.023438 -4.460938 C 5 -4.488281 4.972656 -4.496094 4.941406 -4.488281 L 1.910156 -4.488281 C 1.875 -4.496094 1.847656 -4.488281 1.820312 -4.460938 C 1.792969 -4.433594 1.785156 -4.402344 1.789062 -4.371094 L 1.789062 -3.679688 C 1.785156 -3.640625 1.792969 -3.609375 1.820312 -3.585938 C 1.847656 -3.5625 1.875 -3.554688 1.910156 -3.558594 L 4.988281 -3.558594 C 5.25 -3.554688 5.484375 -3.488281 5.691406 -3.363281 C 5.898438 -3.242188 6.0625 -3.074219 6.191406 -2.863281 C 6.316406 -2.65625 6.378906 -2.425781 6.378906 -2.179688 L 6.378906 -1.378906 C 6.378906 -1.125 6.316406 -0.898438 6.191406 -0.691406 C 6.0625 -0.484375 5.898438 -0.316406 5.691406 -0.191406 C 5.484375 -0.0625 5.25 0 4.988281 0 L 1.851562 0 Z "/>
</g>
<g id="glyph-0-3">
<path d="M 0.539062 2.300781 L 0.539062 -5.800781 L 5.050781 -5.800781 C 5.308594 -5.800781 5.542969 -5.738281 5.75 -5.609375 C 5.957031 -5.484375 6.121094 -5.316406 6.246094 -5.109375 C 6.367188 -4.902344 6.429688 -4.671875 6.429688 -4.421875 L 6.429688 -1.378906 C 6.429688 -1.125 6.367188 -0.898438 6.246094 -0.691406 C 6.121094 -0.484375 5.957031 -0.316406 5.75 -0.191406 C 5.542969 -0.0625 5.308594 0 5.050781 0 L 1.839844 0 L 1.851562 2.300781 L 0.539062 2.300781 M 1.96875 -1.308594 L 5 -1.308594 C 5.035156 -1.304688 5.0625 -1.3125 5.085938 -1.339844 C 5.109375 -1.367188 5.121094 -1.398438 5.121094 -1.429688 L 5.121094 -4.371094 C 5.121094 -4.402344 5.109375 -4.433594 5.085938 -4.460938 C 5.0625 -4.488281 5.035156 -4.496094 5 -4.488281 L 1.96875 -4.488281 C 1.9375 -4.496094 1.90625 -4.488281 1.878906 -4.460938 C 1.851562 -4.433594 1.84375 -4.402344 1.851562 -4.371094 L 1.851562 -1.429688 C 1.84375 -1.398438 1.851562 -1.367188 1.878906 -1.339844 C 1.90625 -1.3125 1.9375 -1.304688 1.96875 -1.308594 Z "/>
</g>
<g id="glyph-0-4">
<path d="M 1.910156 0 C 1.648438 0 1.417969 -0.0625 1.210938 -0.191406 C 1.003906 -0.316406 0.839844 -0.484375 0.714844 -0.691406 C 0.589844 -0.898438 0.53125 -1.125 0.53125 -1.378906 L 0.53125 -5.800781 L 1.828125 -5.800781 L 1.839844 -1.429688 C 1.832031 -1.398438 1.84375 -1.367188 1.871094 -1.339844 C 1.898438 -1.3125 1.925781 -1.304688 1.960938 -1.308594 L 4.988281 -1.308594 C 5.023438 -1.304688 5.050781 -1.3125 5.074219 -1.339844 C 5.097656 -1.367188 5.109375 -1.398438 5.109375 -1.429688 L 5.109375 -5.800781 L 6.421875 -5.800781 L 6.421875 -1.378906 C 6.421875 -1.125 6.359375 -0.898438 6.234375 -0.691406 C 6.113281 -0.484375 5.945312 -0.316406 5.738281 -0.191406 C 5.535156 -0.0625 5.300781 0 5.039062 0 L 1.898438 0 Z "/>
</g>
<g id="glyph-0-5">
<path d="M 1.910156 0 C 1.648438 0 1.417969 -0.0625 1.214844 -0.191406 C 1.011719 -0.316406 0.847656 -0.484375 0.71875 -0.691406 C 0.59375 -0.898438 0.53125 -1.125 0.53125 -1.378906 L 0.53125 -7.578125 L 1.839844 -7.578125 L 1.828125 -5.800781 L 4.101562 -5.800781 L 4.101562 -4.5 L 1.839844 -4.488281 L 1.839844 -1.429688 C 1.832031 -1.398438 1.84375 -1.367188 1.871094 -1.339844 C 1.898438 -1.3125 1.925781 -1.304688 1.960938 -1.308594 L 4.101562 -1.300781 L 4.101562 0 Z "/>
</g>
<g id="glyph-0-6">
<path d="M 1.898438 0 C 1.640625 0 1.40625 -0.0625 1.199219 -0.191406 C 0.992188 -0.316406 0.828125 -0.484375 0.703125 -0.691406 C 0.582031 -0.898438 0.519531 -1.125 0.519531 -1.378906 L 0.519531 -3.550781 L 5.101562 -3.558594 L 5.101562 -4.371094 C 5.101562 -4.402344 5.089844 -4.433594 5.066406 -4.460938 C 5.042969 -4.488281 5.011719 -4.496094 4.980469 -4.488281 L 0.519531 -4.5 L 0.519531 -5.800781 L 5.03125 -5.800781 C 5.289062 -5.800781 5.523438 -5.738281 5.730469 -5.613281 C 5.9375 -5.492188 6.101562 -5.324219 6.226562 -5.113281 C 6.347656 -4.90625 6.410156 -4.671875 6.410156 -4.421875 L 6.410156 0 L 1.898438 0 M 1.949219 -1.308594 L 5.101562 -1.300781 L 5.101562 -2.378906 L 1.820312 -2.378906 L 1.828125 -1.429688 C 1.824219 -1.398438 1.832031 -1.367188 1.859375 -1.339844 C 1.886719 -1.3125 1.917969 -1.304688 1.949219 -1.308594 Z "/>
</g>
<g id="glyph-0-7">
</g>
<g id="glyph-0-8">
<path d="M 0.519531 0 L 0.519531 -5.800781 L 1.820312 -5.800781 L 1.828125 0 L 0.519531 0 M 0.519531 -6.390625 L 0.519531 -7.699219 L 1.820312 -7.699219 L 1.828125 -6.378906 Z "/>
</g>
<g id="glyph-0-9">
<path d="M 0.539062 0 L 0.539062 -5.800781 L 5.050781 -5.800781 C 5.308594 -5.800781 5.542969 -5.738281 5.75 -5.609375 C 5.957031 -5.484375 6.121094 -5.316406 6.246094 -5.109375 C 6.367188 -4.902344 6.429688 -4.671875 6.429688 -4.421875 L 6.429688 0 L 5.121094 0 L 5.121094 -4.371094 C 5.121094 -4.402344 5.109375 -4.433594 5.085938 -4.460938 C 5.0625 -4.488281 5.035156 -4.496094 5 -4.488281 L 1.96875 -4.488281 C 1.9375 -4.496094 1.90625 -4.488281 1.878906 -4.460938 C 1.851562 -4.433594 1.84375 -4.402344 1.851562 -4.371094 L 1.839844 0 Z "/>
</g>
<g id="glyph-0-10">
<path d="M 1.898438 0 C 1.648438 0 1.417969 -0.0625 1.210938 -0.191406 C 1.003906 -0.316406 0.835938 -0.484375 0.710938 -0.691406 C 0.582031 -0.898438 0.519531 -1.125 0.519531 -1.378906 L 0.519531 -7.699219 L 1.839844 -7.710938 L 1.839844 -1.429688 C 1.832031 -1.398438 1.839844 -1.367188 1.863281 -1.339844 C 1.886719 -1.3125 1.921875 -1.304688 1.960938 -1.308594 L 3.058594 -1.300781 L 3.070312 0 L 1.890625 0 Z "/>
</g>
<g id="glyph-0-11">
<path d="M 1.378906 2.289062 L 1.378906 0.96875 L 4.871094 0.96875 C 4.910156 0.976562 4.941406 0.964844 4.964844 0.941406 C 4.988281 0.914062 4.996094 0.882812 4.988281 0.851562 L 5 0 L 1.789062 0 C 1.535156 0 1.304688 -0.0625 1.09375 -0.183594 C 0.886719 -0.308594 0.71875 -0.476562 0.59375 -0.683594 C 0.472656 -0.894531 0.410156 -1.125 0.410156 -1.378906 L 0.410156 -4.421875 C 0.410156 -4.671875 0.472656 -4.902344 0.601562 -5.109375 C 0.726562 -5.316406 0.894531 -5.484375 1.101562 -5.609375 C 1.308594 -5.738281 1.535156 -5.800781 1.789062 -5.800781 L 4.929688 -5.800781 C 5.191406 -5.800781 5.421875 -5.738281 5.625 -5.609375 C 5.828125 -5.484375 5.992188 -5.316406 6.121094 -5.109375 C 6.246094 -4.902344 6.308594 -4.671875 6.300781 -4.421875 L 6.300781 0.910156 C 6.308594 1.171875 6.25 1.402344 6.125 1.609375 C 6 1.816406 5.835938 1.980469 5.625 2.105469 C 5.414062 2.226562 5.183594 2.289062 4.929688 2.289062 L 1.378906 2.289062 M 1.839844 -1.308594 L 4.871094 -1.308594 C 4.910156 -1.304688 4.941406 -1.3125 4.964844 -1.339844 C 4.988281 -1.367188 4.996094 -1.398438 4.988281 -1.429688 L 4.988281 -4.371094 C 4.996094 -4.402344 4.988281 -4.433594 4.964844 -4.460938 C 4.941406 -4.488281 4.910156 -4.496094 4.871094 -4.488281 L 1.839844 -4.488281 C 1.808594 -4.496094 1.777344 -4.488281 1.75 -4.460938 C 1.722656 -4.433594 1.714844 -4.402344 1.71875 -4.371094 L 1.71875 -1.429688 C 1.714844 -1.398438 1.722656 -1.367188 1.75 -1.339844 C 1.777344 -1.3125 1.808594 -1.304688 1.839844 -1.308594 Z "/>
</g>
</g>
</defs>
<g fill="rgb(100%, 100%, 100%)" fill-opacity="1">
<use xlink:href="#glyph-0-0" x="30" y="30.110352"/>
<use xlink:href="#glyph-0-1" x="38" y="30.110352"/>
<use xlink:href="#glyph-0-2" x="45" y="30.110352"/>
<use xlink:href="#glyph-0-3" x="52" y="30.110352"/>
<use xlink:href="#glyph-0-4" x="59" y="30.110352"/>
<use xlink:href="#glyph-0-1" x="66" y="30.110352"/>
<use xlink:href="#glyph-0-2" x="73" y="30.110352"/>
<use xlink:href="#glyph-0-5" x="80" y="30.110352"/>
<use xlink:href="#glyph-0-6" x="84" y="30.110352"/>
<use xlink:href="#glyph-0-2" x="91" y="30.110352"/>
<use xlink:href="#glyph-0-7" x="98" y="30.110352"/>
<use xlink:href="#glyph-0-8" x="101" y="30.110352"/>
<use xlink:href="#glyph-0-9" x="103" y="30.110352"/>
<use xlink:href="#glyph-0-5" x="110" y="30.110352"/>
<use xlink:href="#glyph-0-1" x="114" y="30.110352"/>
<use xlink:href="#glyph-0-10" x="121" y="30.110352"/>
<use xlink:href="#glyph-0-8" x="124" y="30.110352"/>
<use xlink:href="#glyph-0-11" x="126" y="30.110352"/>
<use xlink:href="#glyph-0-1" x="133" y="30.110352"/>
<use xlink:href="#glyph-0-9" x="140" y="30.110352"/>
<use xlink:href="#glyph-0-5" x="147" y="30.110352"/>
<use xlink:href="#glyph-0-1" x="151" y="30.110352"/>
<use xlink:href="#glyph-0-2" x="158" y="30.110352"/>
</g>
</svg>
