<?xml version="1.0" encoding="UTF-8"?>
<svg xmlns="http://www.w3.org/2000/svg" xmlns:xlink="http://www.w3.org/1999/xlink" width="1080" height="1920" viewBox="0 0 1080 1920">
<defs>
<g>
<g id="glyph-0-0">
<path d="M 5.773438 0 L 5.773438 -13.273438 L 4.351562 -11.523438 L 0.0234375 -11.523438 L 5.449219 -18 L 9.074219 -18 L 9.074219 0 Z "/>
</g>
<g id="glyph-0-1">
<path d="M 1.425781 0 L 1.425781 -6.898438 C 1.425781 -7.535156 1.582031 -8.113281 1.898438 -8.636719 C 2.214844 -9.164062 2.628906 -9.574219 3.136719 -9.875 C 3.644531 -10.175781 4.226562 -10.332031 4.875 -10.351562 L 15.675781 -10.351562 C 15.773438 -10.332031 15.855469 -10.355469 15.914062 -10.414062 C 15.972656 -10.472656 15.992188 -10.550781 15.976562 -10.648438 L 15.976562 -14.425781 C 15.992188 -14.507812 15.972656 -14.582031 15.914062 -14.648438 C 15.855469 -14.714844 15.773438 -14.742188 15.675781 -14.726562 L 5 -14.726562 C 4.917969 -14.742188 4.839844 -14.714844 4.773438 -14.648438 C 4.707031 -14.582031 4.683594 -14.507812 4.699219 -14.425781 L 4.675781 -13.226562 L 1.425781 -13.199219 L 1.425781 -14.550781 C 1.425781 -15.199219 1.582031 -15.785156 1.898438 -16.300781 C 2.214844 -16.816406 2.628906 -17.234375 3.136719 -17.550781 C 3.644531 -17.867188 4.226562 -18.015625 4.875 -18 L 15.800781 -18 C 16.433594 -18.015625 17.011719 -17.871094 17.539062 -17.5625 C 18.0625 -17.253906 18.484375 -16.835938 18.800781 -16.3125 C 19.117188 -15.789062 19.265625 -15.199219 19.25 -14.550781 L 19.25 -10.5 C 19.265625 -9.882812 19.117188 -9.3125 18.800781 -8.789062 C 18.484375 -8.261719 18.0625 -7.847656 17.539062 -7.539062 C 17.011719 -7.230469 16.433594 -7.066406 15.800781 -7.050781 L 5 -7.050781 C 4.917969 -7.066406 4.839844 -7.042969 4.773438 -6.976562 C 4.707031 -6.910156 4.683594 -6.832031 4.699219 -6.75 L 4.699219 -3.574219 C 4.683594 -3.492188 4.707031 -3.417969 4.773438 -3.351562 C 4.839844 -3.285156 4.917969 -3.257812 5 -3.273438 L 19.273438 -3.25 L 19.25 0 Z "/>
</g>
</g>
</defs>
<g fill="rgb(16.862745%, 46.27451%, 100%)" fill-opacity="1">
<use xlink:href="#glyph-0-0" x="30" y="45.275391"/>
<use xlink:href="#glyph-0-1" x="40" y="45.275391"/>
</g>
</svg>
