<?xml version="1.0" encoding="UTF-8"?>
<svg xmlns="http://www.w3.org/2000/svg" xmlns:xlink="http://www.w3.org/1999/xlink" width="1080" height="1920" viewBox="0 0 1080 1920">
<defs>
<g>
<g id="glyph-0-0">
<path d="M 5.296875 -7.644531 L 2.839844 -7.644531 L 2.839844 -9.289062 L 5.296875 -9.289062 L 5.296875 -7.644531 M 6.542969 -0.347656 C 6.277344 -0.234375 5.890625 -0.113281 5.378906 0.0078125 C 4.867188 0.125 4.316406 0.1875 3.730469 0.1875 C 3.207031 0.1875 2.742188 0.125 2.34375 0.00390625 C 1.941406 -0.121094 1.597656 -0.292969 1.316406 -0.511719 C 1.042969 -0.726562 0.832031 -0.984375 0.6875 -1.285156 C 0.546875 -1.585938 0.472656 -1.910156 0.472656 -2.265625 C 0.472656 -2.675781 0.535156 -3.046875 0.660156 -3.371094 C 0.78125 -3.699219 0.953125 -3.984375 1.179688 -4.222656 C 1.398438 -4.460938 1.664062 -4.671875 1.976562 -4.859375 C 2.285156 -5.046875 2.628906 -5.21875 3.011719 -5.371094 L 3.011719 -6.792969 L 5.148438 -6.792969 L 5.148438 -4.703125 C 4.914062 -4.640625 4.65625 -4.554688 4.375 -4.445312 C 4.089844 -4.335938 3.839844 -4.203125 3.617188 -4.050781 C 3.390625 -3.886719 3.203125 -3.699219 3.058594 -3.480469 C 2.910156 -3.265625 2.839844 -3.007812 2.839844 -2.714844 C 2.839844 -2.300781 2.96875 -2.003906 3.230469 -1.816406 C 3.492188 -1.628906 3.859375 -1.535156 4.324219 -1.535156 C 4.671875 -1.535156 5.042969 -1.613281 5.4375 -1.765625 C 5.832031 -1.917969 6.140625 -2.074219 6.363281 -2.226562 L 6.542969 -2.226562 Z "/>
</g>
<g id="glyph-0-1">
<path d="M 7.355469 0 L 1.214844 0 L 1.214844 -1.621094 L 3.175781 -1.621094 L 3.175781 -6.53125 L 1.214844 -6.53125 L 1.214844 -8.046875 C 1.503906 -8.046875 1.789062 -8.066406 2.070312 -8.105469 C 2.355469 -8.140625 2.582031 -8.203125 2.75 -8.285156 C 2.949219 -8.386719 3.105469 -8.519531 3.214844 -8.6875 C 3.328125 -8.855469 3.390625 -9.066406 3.40625 -9.316406 L 5.441406 -9.316406 L 5.441406 -1.621094 L 7.355469 -1.621094 Z "/>
</g>
<g id="glyph-0-2">
<path d="M 7.648438 -4.648438 C 7.648438 -3.84375 7.585938 -3.140625 7.457031 -2.539062 C 7.328125 -1.9375 7.121094 -1.433594 6.835938 -1.03125 C 6.554688 -0.625 6.1875 -0.320312 5.734375 -0.117188 C 5.28125 0.0898438 4.726562 0.195312 4.066406 0.195312 C 3.414062 0.195312 2.863281 0.0898438 2.410156 -0.117188 C 1.953125 -0.320312 1.585938 -0.628906 1.296875 -1.042969 C 1.015625 -1.449219 0.808594 -1.953125 0.679688 -2.546875 C 0.550781 -3.144531 0.488281 -3.84375 0.488281 -4.640625 C 0.488281 -5.464844 0.550781 -6.167969 0.675781 -6.75 C 0.804688 -7.332031 1.015625 -7.835938 1.308594 -8.253906 C 1.601562 -8.664062 1.976562 -8.972656 2.433594 -9.175781 C 2.890625 -9.375 3.4375 -9.476562 4.066406 -9.476562 C 4.738281 -9.476562 5.296875 -9.371094 5.742188 -9.160156 C 6.191406 -8.953125 6.558594 -8.640625 6.84375 -8.222656 C 7.125 -7.816406 7.332031 -7.3125 7.457031 -6.714844 C 7.585938 -6.113281 7.648438 -5.425781 7.648438 -4.648438 M 5.308594 -4.648438 C 5.308594 -5.796875 5.214844 -6.601562 5.027344 -7.066406 C 4.835938 -7.53125 4.515625 -7.761719 4.066406 -7.761719 C 3.621094 -7.761719 3.304688 -7.53125 3.113281 -7.066406 C 2.921875 -6.601562 2.828125 -5.792969 2.828125 -4.636719 C 2.828125 -3.503906 2.921875 -2.703125 3.113281 -2.230469 C 3.304688 -1.757812 3.621094 -1.523438 4.066406 -1.523438 C 4.511719 -1.523438 4.832031 -1.757812 5.023438 -2.230469 C 5.214844 -2.703125 5.308594 -3.507812 5.308594 -4.648438 Z "/>
</g>
<g id="glyph-0-3">
<path d="M 9.246094 -3.292969 L 6.050781 -3.292969 L 6.050781 -0.125 L 4.40625 -0.125 L 4.40625 -3.292969 L 1.210938 -3.292969 L 1.210938 -4.902344 L 4.40625 -4.902344 L 4.40625 -8.074219 L 6.050781 -8.074219 L 6.050781 -4.902344 L 9.246094 -4.902344 Z "/>
</g>
<g id="glyph-0-4">
</g>
<g id="glyph-0-5">
<path d="M 4.964844 0.179688 C 3.574219 0.179688 2.464844 -0.238281 1.648438 -1.082031 C 0.828125 -1.925781 0.417969 -3.109375 0.417969 -4.636719 C 0.417969 -6.109375 0.828125 -7.28125 1.648438 -8.15625 C 2.472656 -9.03125 3.578125 -9.472656 4.972656 -9.472656 C 5.34375 -9.472656 5.675781 -9.449219 5.96875 -9.410156 C 6.265625 -9.367188 6.546875 -9.308594 6.820312 -9.234375 C 7.03125 -9.171875 7.261719 -9.085938 7.511719 -8.976562 C 7.761719 -8.871094 7.964844 -8.777344 8.117188 -8.695312 L 8.117188 -6.480469 L 7.878906 -6.480469 C 7.765625 -6.582031 7.625 -6.703125 7.457031 -6.839844 C 7.285156 -6.980469 7.089844 -7.117188 6.875 -7.25 C 6.660156 -7.382812 6.421875 -7.496094 6.160156 -7.589844 C 5.902344 -7.683594 5.628906 -7.730469 5.347656 -7.730469 C 5.011719 -7.730469 4.699219 -7.675781 4.421875 -7.570312 C 4.140625 -7.464844 3.871094 -7.28125 3.617188 -7.019531 C 3.386719 -6.78125 3.195312 -6.460938 3.046875 -6.058594 C 2.898438 -5.65625 2.828125 -5.179688 2.828125 -4.628906 C 2.828125 -4.050781 2.902344 -3.566406 3.058594 -3.171875 C 3.210938 -2.78125 3.414062 -2.460938 3.664062 -2.222656 C 3.902344 -1.988281 4.171875 -1.820312 4.46875 -1.714844 C 4.769531 -1.613281 5.0625 -1.558594 5.359375 -1.558594 C 5.667969 -1.558594 5.960938 -1.609375 6.238281 -1.710938 C 6.519531 -1.816406 6.753906 -1.929688 6.945312 -2.050781 C 7.152344 -2.179688 7.335938 -2.3125 7.492188 -2.445312 C 7.652344 -2.578125 7.789062 -2.699219 7.90625 -2.800781 L 8.117188 -2.800781 L 8.117188 -0.617188 C 7.945312 -0.539062 7.75 -0.449219 7.523438 -0.347656 C 7.300781 -0.246094 7.070312 -0.15625 6.832031 -0.0859375 C 6.539062 0 6.269531 0.0664062 6.015625 0.113281 C 5.761719 0.15625 5.410156 0.179688 4.964844 0.179688 Z "/>
</g>
<g id="glyph-0-6">
<path d="M 9.421875 -4.640625 C 9.421875 -3.140625 9.019531 -1.960938 8.214844 -1.097656 C 7.414062 -0.238281 6.3125 0.195312 4.917969 0.195312 C 3.515625 0.195312 2.414062 -0.242188 1.617188 -1.113281 C 0.816406 -1.984375 0.417969 -3.160156 0.417969 -4.640625 C 0.417969 -6.136719 0.816406 -7.316406 1.617188 -8.183594 C 2.414062 -9.050781 3.515625 -9.484375 4.917969 -9.484375 C 6.3125 -9.484375 7.414062 -9.050781 8.214844 -8.1875 C 9.019531 -7.324219 9.421875 -6.144531 9.421875 -4.640625 M 7.011719 -4.648438 C 7.011719 -5.203125 6.957031 -5.671875 6.839844 -6.0625 C 6.726562 -6.449219 6.574219 -6.769531 6.382812 -7.019531 C 6.183594 -7.273438 5.957031 -7.453125 5.707031 -7.566406 C 5.453125 -7.675781 5.191406 -7.730469 4.921875 -7.730469 C 4.636719 -7.730469 4.375 -7.679688 4.144531 -7.578125 C 3.910156 -7.476562 3.683594 -7.292969 3.46875 -7.03125 C 3.277344 -6.789062 3.121094 -6.46875 3.003906 -6.070312 C 2.886719 -5.671875 2.828125 -5.195312 2.828125 -4.640625 C 2.828125 -4.070312 2.882812 -3.597656 2.996094 -3.222656 C 3.105469 -2.847656 3.261719 -2.53125 3.457031 -2.277344 C 3.65625 -2.019531 3.882812 -1.835938 4.136719 -1.726562 C 4.390625 -1.613281 4.652344 -1.558594 4.921875 -1.558594 C 5.195312 -1.558594 5.464844 -1.617188 5.722656 -1.738281 C 5.980469 -1.855469 6.203125 -2.039062 6.390625 -2.289062 C 6.589844 -2.558594 6.742188 -2.875 6.851562 -3.234375 C 6.957031 -3.59375 7.011719 -4.066406 7.011719 -4.648438 Z "/>
</g>
<g id="glyph-0-7">
<path d="M 9.550781 0 L 6.707031 0 L 4.117188 -3.40625 L 3.28125 -3.40625 L 3.28125 0 L 0.960938 0 L 0.960938 -9.289062 L 4.699219 -9.289062 C 5.214844 -9.289062 5.664062 -9.257812 6.046875 -9.191406 C 6.429688 -9.128906 6.78125 -8.996094 7.105469 -8.789062 C 7.4375 -8.578125 7.703125 -8.308594 7.898438 -7.984375 C 8.09375 -7.65625 8.191406 -7.242188 8.191406 -6.738281 C 8.191406 -6.027344 8.03125 -5.449219 7.710938 -5.007812 C 7.390625 -4.5625 6.960938 -4.210938 6.425781 -3.949219 L 9.550781 0 M 5.796875 -6.445312 C 5.796875 -6.679688 5.75 -6.878906 5.660156 -7.046875 C 5.574219 -7.214844 5.421875 -7.34375 5.214844 -7.4375 C 5.070312 -7.5 4.90625 -7.539062 4.730469 -7.554688 C 4.550781 -7.570312 4.328125 -7.582031 4.0625 -7.582031 L 3.28125 -7.582031 L 3.28125 -5.078125 L 3.949219 -5.078125 C 4.273438 -5.078125 4.550781 -5.097656 4.777344 -5.136719 C 5.003906 -5.175781 5.195312 -5.261719 5.351562 -5.390625 C 5.503906 -5.507812 5.613281 -5.644531 5.6875 -5.808594 C 5.757812 -5.96875 5.796875 -6.183594 5.796875 -6.445312 Z "/>
</g>
<g id="glyph-0-8">
<path d="M 0.960938 0 L 0.960938 -9.289062 L 7.242188 -9.289062 L 7.242188 -7.519531 L 3.28125 -7.519531 L 3.28125 -5.890625 L 6.929688 -5.890625 L 6.929688 -4.117188 L 3.28125 -4.117188 L 3.28125 -1.773438 L 7.242188 -1.773438 L 7.242188 0 Z "/>
</g>
<g id="glyph-0-9">
<path d="M 3.832031 0.167969 C 3.121094 0.167969 2.496094 0.101562 1.957031 -0.0390625 C 1.417969 -0.175781 0.917969 -0.34375 0.457031 -0.550781 L 0.457031 -2.757812 L 0.667969 -2.757812 C 1.132812 -2.363281 1.648438 -2.058594 2.207031 -1.847656 C 2.769531 -1.632812 3.316406 -1.527344 3.84375 -1.527344 C 3.976562 -1.527344 4.152344 -1.542969 4.371094 -1.570312 C 4.589844 -1.601562 4.765625 -1.648438 4.898438 -1.710938 C 5.058594 -1.78125 5.195312 -1.878906 5.308594 -2.003906 C 5.421875 -2.132812 5.476562 -2.300781 5.476562 -2.507812 C 5.476562 -2.742188 5.386719 -2.929688 5.203125 -3.074219 C 5.019531 -3.222656 4.800781 -3.328125 4.546875 -3.394531 C 4.230469 -3.476562 3.894531 -3.554688 3.535156 -3.632812 C 3.175781 -3.707031 2.839844 -3.796875 2.527344 -3.90625 C 1.808594 -4.160156 1.292969 -4.5 0.980469 -4.929688 C 0.667969 -5.355469 0.511719 -5.894531 0.511719 -6.539062 C 0.511719 -7.40625 0.878906 -8.113281 1.617188 -8.648438 C 2.351562 -9.1875 3.269531 -9.457031 4.375 -9.457031 C 4.925781 -9.457031 5.476562 -9.402344 6.023438 -9.289062 C 6.570312 -9.175781 7.058594 -9.027344 7.492188 -8.835938 L 7.492188 -6.714844 L 7.285156 -6.714844 C 6.941406 -7.007812 6.519531 -7.257812 6.023438 -7.460938 C 5.527344 -7.664062 5.015625 -7.765625 4.492188 -7.765625 C 4.289062 -7.765625 4.105469 -7.753906 3.941406 -7.722656 C 3.78125 -7.695312 3.609375 -7.636719 3.429688 -7.554688 C 3.285156 -7.488281 3.160156 -7.390625 3.054688 -7.257812 C 2.949219 -7.128906 2.894531 -6.980469 2.894531 -6.820312 C 2.894531 -6.582031 2.980469 -6.394531 3.148438 -6.253906 C 3.316406 -6.113281 3.640625 -5.988281 4.125 -5.878906 C 4.4375 -5.804688 4.738281 -5.738281 5.027344 -5.671875 C 5.316406 -5.605469 5.625 -5.511719 5.953125 -5.398438 C 6.597656 -5.164062 7.074219 -4.851562 7.390625 -4.457031 C 7.703125 -4.066406 7.859375 -3.546875 7.859375 -2.902344 C 7.859375 -1.976562 7.5 -1.234375 6.773438 -0.671875 C 6.046875 -0.113281 5.066406 0.167969 3.832031 0.167969 Z "/>
</g>
</g>
</defs>
<g fill="rgb(100%, 100%, 100%)" fill-opacity="1">
<use xlink:href="#glyph-0-0" x="30" y="32.783203"/>
<use xlink:href="#glyph-0-1" x="37" y="32.783203"/>
<use xlink:href="#glyph-0-2" x="45" y="32.783203"/>
<use xlink:href="#glyph-0-2" x="53" y="32.783203"/>
<use xlink:href="#glyph-0-3" x="61" y="32.783203"/>
<use xlink:href="#glyph-0-4" x="71" y="32.783203"/>
<use xlink:href="#glyph-0-5" x="75" y="32.783203"/>
<use xlink:href="#glyph-0-6" x="84" y="32.783203"/>
<use xlink:href="#glyph-0-7" x="94" y="32.783203"/>
<use xlink:href="#glyph-0-7" x="103" y="32.783203"/>
<use xlink:href="#glyph-0-8" x="112" y="32.783203"/>
<use xlink:href="#glyph-0-6" x="120" y="32.783203"/>
<use xlink:href="#glyph-0-9" x="130" y="32.783203"/>
</g>
</svg>
