<?xml version="1.0" encoding="UTF-8"?>
<svg xmlns="http://www.w3.org/2000/svg" xmlns:xlink="http://www.w3.org/1999/xlink" width="1080" height="1920" viewBox="0 0 1080 1920">
<defs>
<g>
<g id="glyph-0-0">
<path d="M 2.753906 0 L 0.574219 0 C 0.480469 0 0.433594 -0.046875 0.433594 -0.140625 L 0.433594 -4.148438 C 0.433594 -4.238281 0.480469 -4.285156 0.574219 -4.285156 L 2.753906 -4.285156 C 2.84375 -4.285156 2.886719 -4.238281 2.886719 -4.148438 L 2.886719 -3.691406 C 2.886719 -3.601562 2.84375 -3.554688 2.753906 -3.554688 L 1.359375 -3.554688 C 1.308594 -3.554688 1.28125 -3.527344 1.28125 -3.480469 L 1.28125 -2.613281 C 1.28125 -2.5625 1.308594 -2.539062 1.359375 -2.539062 L 2.5 -2.539062 C 2.59375 -2.539062 2.640625 -2.492188 2.640625 -2.398438 L 2.640625 -1.945312 C 2.640625 -1.851562 2.59375 -1.808594 2.5 -1.808594 L 1.359375 -1.808594 C 1.308594 -1.808594 1.28125 -1.78125 1.28125 -1.734375 L 1.28125 -0.808594 C 1.28125 -0.757812 1.308594 -0.734375 1.359375 -0.734375 L 2.753906 -0.734375 C 2.84375 -0.734375 2.886719 -0.6875 2.886719 -0.59375 L 2.886719 -0.140625 C 2.886719 -0.046875 2.84375 0 2.753906 0 Z "/>
</g>
<g id="glyph-0-1">
<path d="M 1.074219 0 L 0.507812 0 C 0.414062 0 0.367188 -0.046875 0.367188 -0.140625 L 0.367188 -3.261719 C 0.367188 -3.351562 0.414062 -3.398438 0.507812 -3.398438 L 1.074219 -3.398438 C 1.167969 -3.398438 1.214844 -3.351562 1.214844 -3.261719 L 1.214844 -3.039062 L 1.238281 -3.039062 C 1.335938 -3.28125 1.554688 -3.398438 1.894531 -3.398438 L 2.105469 -3.398438 C 2.804688 -3.398438 3.152344 -3.039062 3.152344 -2.3125 L 3.152344 -0.140625 C 3.152344 -0.046875 3.105469 0 3.007812 0 L 2.445312 0 C 2.351562 0 2.308594 -0.046875 2.308594 -0.140625 L 2.308594 -2.273438 C 2.308594 -2.414062 2.277344 -2.515625 2.214844 -2.578125 C 2.15625 -2.636719 2.054688 -2.667969 1.914062 -2.667969 L 1.671875 -2.667969 C 1.367188 -2.667969 1.214844 -2.496094 1.214844 -2.160156 L 1.214844 -0.140625 C 1.214844 -0.046875 1.167969 0 1.074219 0 Z "/>
</g>
<g id="glyph-0-2">
<path d="M 0.21875 -3.398438 L 0.808594 -3.398438 C 0.894531 -3.398438 0.949219 -3.351562 0.964844 -3.261719 L 1.539062 -0.753906 L 1.585938 -0.753906 L 2.148438 -3.261719 C 2.164062 -3.351562 2.21875 -3.398438 2.3125 -3.398438 L 2.898438 -3.398438 C 2.992188 -3.398438 3.027344 -3.351562 3 -3.261719 L 2.160156 -0.148438 C 2.140625 -0.0507812 2.082031 0 1.980469 0 L 1.132812 0 C 1.039062 0 0.980469 -0.0507812 0.953125 -0.148438 L 0.121094 -3.261719 C 0.09375 -3.351562 0.125 -3.398438 0.21875 -3.398438 Z "/>
</g>
<g id="glyph-0-3">
<path d="M 0.398438 -3.972656 L 0.398438 -4.554688 C 0.398438 -4.640625 0.445312 -4.6875 0.535156 -4.6875 L 1.113281 -4.6875 C 1.203125 -4.6875 1.246094 -4.644531 1.246094 -4.558594 L 1.246094 -3.972656 C 1.246094 -3.882812 1.203125 -3.839844 1.113281 -3.839844 L 0.535156 -3.839844 C 0.445312 -3.839844 0.398438 -3.882812 0.398438 -3.972656 M 0.398438 -0.140625 L 0.398438 -3.261719 C 0.398438 -3.351562 0.445312 -3.398438 0.535156 -3.398438 L 1.105469 -3.398438 C 1.199219 -3.398438 1.246094 -3.351562 1.246094 -3.261719 L 1.246094 -0.140625 C 1.246094 -0.0820312 1.238281 -0.0429688 1.214844 -0.0273438 C 1.195312 -0.0078125 1.164062 0 1.113281 0 L 0.539062 0 C 0.445312 0 0.398438 -0.046875 0.398438 -0.140625 Z "/>
</g>
<g id="glyph-0-4">
<path d="M 1.558594 0 L 1.398438 0 C 1.050781 0 0.777344 -0.09375 0.585938 -0.28125 C 0.394531 -0.464844 0.300781 -0.734375 0.300781 -1.085938 L 0.300781 -2.3125 C 0.300781 -2.664062 0.394531 -2.933594 0.585938 -3.121094 C 0.777344 -3.308594 1.050781 -3.398438 1.398438 -3.398438 L 2.941406 -3.398438 C 3.039062 -3.398438 3.085938 -3.351562 3.085938 -3.261719 L 3.085938 -0.140625 C 3.085938 -0.046875 3.039062 0 2.941406 0 L 2.378906 0 C 2.285156 0 2.238281 -0.046875 2.238281 -0.140625 L 2.238281 -0.359375 L 2.214844 -0.359375 C 2.164062 -0.238281 2.078125 -0.148438 1.953125 -0.0898438 C 1.828125 -0.03125 1.699219 0 1.558594 0 M 2.238281 -1.238281 L 2.238281 -2.59375 C 2.238281 -2.640625 2.214844 -2.667969 2.160156 -2.667969 L 1.535156 -2.667969 C 1.390625 -2.667969 1.292969 -2.636719 1.234375 -2.578125 C 1.175781 -2.515625 1.148438 -2.414062 1.148438 -2.273438 L 1.148438 -1.125 C 1.148438 -0.984375 1.175781 -0.882812 1.234375 -0.824219 C 1.292969 -0.761719 1.390625 -0.734375 1.535156 -0.734375 L 1.78125 -0.734375 C 2.085938 -0.734375 2.238281 -0.902344 2.238281 -1.238281 Z "/>
</g>
<g id="glyph-0-5">
<path d="M 1.613281 0 L 1.339844 0 C 0.996094 0 0.738281 -0.09375 0.5625 -0.28125 C 0.386719 -0.464844 0.300781 -0.734375 0.300781 -1.085938 L 0.300781 -2.3125 C 0.300781 -2.664062 0.386719 -2.933594 0.5625 -3.121094 C 0.738281 -3.308594 0.996094 -3.398438 1.339844 -3.398438 L 1.613281 -3.398438 C 1.75 -3.398438 1.882812 -3.371094 2.007812 -3.308594 C 2.132812 -3.25 2.21875 -3.160156 2.265625 -3.039062 L 2.292969 -3.039062 L 2.292969 -4.546875 C 2.292969 -4.640625 2.339844 -4.6875 2.433594 -4.6875 L 3 -4.6875 C 3.09375 -4.6875 3.140625 -4.640625 3.140625 -4.546875 L 3.140625 -0.140625 C 3.140625 -0.046875 3.09375 0 3 0 L 2.433594 0 C 2.339844 0 2.292969 -0.046875 2.292969 -0.140625 L 2.292969 -0.359375 L 2.265625 -0.359375 C 2.21875 -0.238281 2.132812 -0.148438 2.007812 -0.0898438 C 1.882812 -0.03125 1.75 0 1.613281 0 M 2.292969 -1.238281 L 2.292969 -2.160156 C 2.292969 -2.496094 2.140625 -2.667969 1.832031 -2.667969 L 1.535156 -2.667969 C 1.390625 -2.667969 1.292969 -2.636719 1.234375 -2.578125 C 1.175781 -2.515625 1.148438 -2.414062 1.148438 -2.273438 L 1.148438 -1.125 C 1.148438 -0.984375 1.175781 -0.882812 1.234375 -0.824219 C 1.292969 -0.761719 1.390625 -0.734375 1.535156 -0.734375 L 1.832031 -0.734375 C 2.140625 -0.734375 2.292969 -0.902344 2.292969 -1.238281 Z "/>
</g>
<g id="glyph-0-6">
<path d="M 1.992188 0 L 1.398438 0 C 1.050781 0 0.777344 -0.09375 0.585938 -0.28125 C 0.394531 -0.464844 0.300781 -0.734375 0.300781 -1.085938 L 0.300781 -2.3125 C 0.300781 -2.664062 0.394531 -2.933594 0.585938 -3.121094 C 0.777344 -3.308594 1.050781 -3.398438 1.398438 -3.398438 L 1.992188 -3.398438 C 2.339844 -3.398438 2.609375 -3.304688 2.804688 -3.117188 C 2.996094 -2.929688 3.09375 -2.660156 3.09375 -2.3125 L 3.09375 -1.085938 C 3.09375 -0.738281 2.996094 -0.472656 2.804688 -0.285156 C 2.609375 -0.09375 2.339844 0 1.992188 0 M 1.527344 -0.726562 L 1.867188 -0.726562 C 2.007812 -0.726562 2.109375 -0.753906 2.171875 -0.8125 C 2.230469 -0.871094 2.261719 -0.972656 2.261719 -1.113281 L 2.261719 -2.285156 C 2.261719 -2.429688 2.230469 -2.527344 2.171875 -2.585938 C 2.109375 -2.644531 2.007812 -2.671875 1.867188 -2.671875 L 1.527344 -2.671875 C 1.382812 -2.671875 1.285156 -2.644531 1.226562 -2.585938 C 1.167969 -2.527344 1.140625 -2.429688 1.140625 -2.285156 L 1.140625 -1.113281 C 1.140625 -0.972656 1.167969 -0.871094 1.226562 -0.8125 C 1.285156 -0.753906 1.382812 -0.726562 1.527344 -0.726562 Z "/>
</g>
</g>
</defs>
<g fill="rgb(15.294118%, 78.823529%, 62.352941%)" fill-opacity="1">
<use xlink:href="#glyph-0-0" x="30" y="26.199219"/>
<use xlink:href="#glyph-0-1" x="33" y="26.199219"/>
<use xlink:href="#glyph-0-2" x="36" y="26.199219"/>
<use xlink:href="#glyph-0-3" x="39" y="26.199219"/>
<use xlink:href="#glyph-0-4" x="41" y="26.199219"/>
<use xlink:href="#glyph-0-5" x="44" y="26.199219"/>
<use xlink:href="#glyph-0-6" x="48" y="26.199219"/>
</g>
</svg>
