<?xml version="1.0" encoding="UTF-8"?>
<svg xmlns="http://www.w3.org/2000/svg" xmlns:xlink="http://www.w3.org/1999/xlink" width="1080" height="1920" viewBox="0 0 1080 1920">
<defs>
<g>
<g id="glyph-0-0">
<path d="M 6.777344 -4.945312 L 6.398438 -4.945312 C 6.296875 -5.242188 6.132812 -5.558594 5.910156 -5.898438 C 5.6875 -6.238281 5.484375 -6.417969 5.296875 -6.445312 C 5.191406 -6.457031 5.0625 -6.46875 4.910156 -6.480469 C 4.757812 -6.488281 4.625 -6.492188 4.515625 -6.492188 L 4.289062 -6.492188 L 4.289062 -1.058594 C 4.289062 -0.941406 4.308594 -0.839844 4.351562 -0.75 C 4.394531 -0.660156 4.476562 -0.589844 4.601562 -0.539062 C 4.675781 -0.507812 4.789062 -0.476562 4.949219 -0.445312 C 5.105469 -0.414062 5.242188 -0.394531 5.351562 -0.382812 L 5.351562 0 L 1.488281 0 L 1.488281 -0.382812 C 1.582031 -0.390625 1.714844 -0.40625 1.886719 -0.421875 C 2.058594 -0.441406 2.175781 -0.460938 2.234375 -0.488281 C 2.363281 -0.539062 2.449219 -0.609375 2.492188 -0.699219 C 2.53125 -0.785156 2.554688 -0.890625 2.554688 -1.011719 L 2.554688 -6.492188 L 2.324219 -6.492188 C 2.214844 -6.492188 2.082031 -6.488281 1.929688 -6.480469 C 1.777344 -6.46875 1.648438 -6.457031 1.546875 -6.445312 C 1.355469 -6.417969 1.152344 -6.238281 0.929688 -5.898438 C 0.707031 -5.558594 0.546875 -5.242188 0.445312 -4.945312 L 0.0625 -4.945312 L 0.0625 -6.929688 L 6.777344 -6.929688 Z "/>
</g>
<g id="glyph-0-1">
<path d="M 6.480469 -5.160156 L 6.109375 -5.160156 C 6.015625 -5.425781 5.851562 -5.691406 5.621094 -5.957031 C 5.390625 -6.226562 5.160156 -6.386719 4.929688 -6.4375 C 4.835938 -6.457031 4.699219 -6.472656 4.523438 -6.476562 C 4.351562 -6.480469 4.207031 -6.484375 4.09375 -6.484375 L 3.085938 -6.484375 L 3.085938 -3.8125 L 3.796875 -3.8125 C 3.976562 -3.8125 4.140625 -3.835938 4.289062 -3.875 C 4.433594 -3.917969 4.566406 -4 4.6875 -4.121094 C 4.761719 -4.195312 4.839844 -4.328125 4.914062 -4.515625 C 4.992188 -4.707031 5.039062 -4.871094 5.0625 -5.007812 L 5.433594 -5.007812 L 5.433594 -2.117188 L 5.0625 -2.117188 C 5.042969 -2.257812 4.996094 -2.425781 4.914062 -2.632812 C 4.835938 -2.839844 4.757812 -2.984375 4.6875 -3.0625 C 4.578125 -3.179688 4.453125 -3.257812 4.304688 -3.304688 C 4.160156 -3.347656 3.992188 -3.367188 3.796875 -3.367188 L 3.085938 -3.367188 L 3.085938 -1.371094 C 3.085938 -1.164062 3.101562 -1 3.132812 -0.875 C 3.164062 -0.753906 3.222656 -0.660156 3.304688 -0.59375 C 3.386719 -0.535156 3.5 -0.492188 3.640625 -0.472656 C 3.78125 -0.453125 3.972656 -0.445312 4.21875 -0.445312 C 4.332031 -0.445312 4.46875 -0.445312 4.628906 -0.449219 C 4.789062 -0.453125 4.929688 -0.460938 5.046875 -0.476562 C 5.1875 -0.496094 5.3125 -0.519531 5.433594 -0.550781 C 5.550781 -0.585938 5.640625 -0.632812 5.699219 -0.695312 C 5.855469 -0.851562 6.03125 -1.097656 6.226562 -1.421875 C 6.421875 -1.75 6.550781 -1.996094 6.609375 -2.15625 L 6.96875 -2.15625 L 6.835938 0 L 0.335938 0 L 0.335938 -0.382812 C 0.429688 -0.386719 0.550781 -0.398438 0.707031 -0.421875 C 0.863281 -0.4375 0.976562 -0.460938 1.039062 -0.488281 C 1.164062 -0.539062 1.246094 -0.605469 1.289062 -0.6875 C 1.332031 -0.765625 1.351562 -0.867188 1.351562 -0.992188 L 1.351562 -5.878906 C 1.351562 -5.996094 1.335938 -6.09375 1.296875 -6.167969 C 1.261719 -6.246094 1.175781 -6.316406 1.039062 -6.375 C 0.957031 -6.414062 0.835938 -6.453125 0.683594 -6.484375 C 0.53125 -6.515625 0.414062 -6.539062 0.335938 -6.546875 L 0.335938 -6.929688 L 6.480469 -6.929688 Z "/>
</g>
<g id="glyph-0-2">
</g>
<g id="glyph-0-3">
<path d="M 8.050781 -2.816406 C 7.949219 -2.808594 7.859375 -2.796875 7.78125 -2.78125 C 7.703125 -2.769531 7.609375 -2.742188 7.492188 -2.703125 C 7.355469 -2.664062 7.269531 -2.59375 7.226562 -2.496094 C 7.183594 -2.398438 7.164062 -2.296875 7.164062 -2.1875 L 7.164062 -1.382812 C 7.164062 -1.21875 7.164062 -1.089844 7.167969 -0.988281 C 7.171875 -0.890625 7.175781 -0.765625 7.183594 -0.621094 C 6.855469 -0.425781 6.375 -0.242188 5.738281 -0.0703125 C 5.101562 0.105469 4.519531 0.191406 3.984375 0.191406 C 3.484375 0.191406 3.011719 0.113281 2.574219 -0.0390625 C 2.132812 -0.191406 1.75 -0.421875 1.414062 -0.726562 C 1.085938 -1.03125 0.824219 -1.40625 0.632812 -1.855469 C 0.441406 -2.304688 0.347656 -2.820312 0.347656 -3.402344 C 0.347656 -3.941406 0.4375 -4.441406 0.617188 -4.902344 C 0.792969 -5.359375 1.054688 -5.757812 1.390625 -6.089844 C 1.722656 -6.417969 2.128906 -6.671875 2.605469 -6.851562 C 3.082031 -7.03125 3.609375 -7.117188 4.1875 -7.117188 C 4.582031 -7.117188 4.949219 -7.070312 5.28125 -6.972656 C 5.617188 -6.875 5.894531 -6.769531 6.113281 -6.660156 L 6.414062 -6.929688 L 6.839844 -6.929688 L 6.882812 -4.398438 L 6.453125 -4.398438 C 6.207031 -5.160156 5.910156 -5.722656 5.566406 -6.09375 C 5.222656 -6.460938 4.785156 -6.644531 4.257812 -6.644531 C 3.632812 -6.644531 3.148438 -6.371094 2.808594 -5.824219 C 2.46875 -5.277344 2.300781 -4.523438 2.300781 -3.5625 C 2.300781 -2.542969 2.464844 -1.746094 2.800781 -1.167969 C 3.132812 -0.589844 3.605469 -0.304688 4.21875 -0.304688 C 4.503906 -0.304688 4.761719 -0.347656 4.984375 -0.433594 C 5.207031 -0.519531 5.378906 -0.617188 5.503906 -0.734375 L 5.503906 -2.140625 C 5.503906 -2.253906 5.480469 -2.355469 5.4375 -2.433594 C 5.398438 -2.515625 5.3125 -2.582031 5.1875 -2.640625 C 5.085938 -2.6875 4.964844 -2.726562 4.820312 -2.753906 C 4.671875 -2.78125 4.550781 -2.804688 4.453125 -2.816406 L 4.453125 -3.199219 L 8.050781 -3.199219 Z "/>
</g>
<g id="glyph-0-4">
<path d="M 7.855469 0 L 4.082031 0 L 4.082031 -0.382812 C 4.257812 -0.394531 4.464844 -0.425781 4.699219 -0.476562 C 4.9375 -0.527344 5.058594 -0.589844 5.058594 -0.664062 C 5.058594 -0.691406 5.054688 -0.71875 5.050781 -0.75 C 5.042969 -0.785156 5.03125 -0.828125 5.007812 -0.882812 L 4.417969 -2.320312 L 2.023438 -2.320312 C 1.96875 -2.1875 1.910156 -2.03125 1.84375 -1.851562 C 1.777344 -1.671875 1.71875 -1.511719 1.671875 -1.371094 C 1.609375 -1.191406 1.574219 -1.058594 1.5625 -0.976562 C 1.550781 -0.894531 1.542969 -0.839844 1.542969 -0.804688 C 1.542969 -0.703125 1.621094 -0.613281 1.78125 -0.539062 C 1.9375 -0.464844 2.199219 -0.414062 2.570312 -0.382812 L 2.570312 0 L -0.273438 0 L -0.273438 -0.382812 C -0.164062 -0.386719 -0.0429688 -0.40625 0.0898438 -0.433594 C 0.226562 -0.460938 0.332031 -0.5 0.410156 -0.546875 C 0.542969 -0.625 0.65625 -0.722656 0.75 -0.835938 C 0.84375 -0.949219 0.917969 -1.085938 0.980469 -1.242188 C 1.359375 -2.15625 1.738281 -3.070312 2.117188 -3.988281 C 2.496094 -4.90625 2.914062 -5.917969 3.375 -7.027344 L 4.351562 -7.027344 C 4.988281 -5.457031 5.488281 -4.21875 5.851562 -3.304688 C 6.210938 -2.394531 6.519531 -1.640625 6.773438 -1.039062 C 6.816406 -0.941406 6.867188 -0.855469 6.933594 -0.773438 C 7 -0.695312 7.089844 -0.617188 7.210938 -0.546875 C 7.304688 -0.496094 7.410156 -0.457031 7.53125 -0.429688 C 7.648438 -0.402344 7.757812 -0.386719 7.855469 -0.382812 L 7.855469 0 M 4.214844 -2.804688 L 3.210938 -5.308594 L 2.226562 -2.804688 Z "/>
</g>
<g id="glyph-0-5">
<path d="M 8.289062 0 L 5.632812 0 C 5.171875 -0.703125 4.792969 -1.261719 4.488281 -1.679688 C 4.183594 -2.097656 3.804688 -2.578125 3.355469 -3.125 L 3.085938 -3.125 L 3.085938 -1.019531 C 3.085938 -0.902344 3.109375 -0.804688 3.152344 -0.722656 C 3.195312 -0.640625 3.28125 -0.574219 3.402344 -0.515625 C 3.464844 -0.492188 3.5625 -0.464844 3.695312 -0.4375 C 3.824219 -0.410156 3.9375 -0.390625 4.03125 -0.382812 L 4.03125 0 L 0.335938 0 L 0.335938 -0.382812 C 0.429688 -0.390625 0.554688 -0.40625 0.710938 -0.421875 C 0.863281 -0.441406 0.976562 -0.460938 1.039062 -0.488281 C 1.164062 -0.539062 1.246094 -0.605469 1.289062 -0.6875 C 1.332031 -0.765625 1.351562 -0.867188 1.351562 -0.992188 L 1.351562 -5.878906 C 1.351562 -5.996094 1.335938 -6.09375 1.296875 -6.171875 C 1.261719 -6.25 1.175781 -6.320312 1.039062 -6.375 C 0.9375 -6.417969 0.8125 -6.453125 0.671875 -6.484375 C 0.53125 -6.515625 0.417969 -6.535156 0.335938 -6.546875 L 0.335938 -6.929688 L 4.222656 -6.929688 C 5.09375 -6.929688 5.753906 -6.792969 6.203125 -6.519531 C 6.65625 -6.25 6.878906 -5.839844 6.878906 -5.289062 C 6.878906 -4.804688 6.742188 -4.414062 6.460938 -4.117188 C 6.183594 -3.824219 5.761719 -3.59375 5.191406 -3.429688 C 5.410156 -3.140625 5.667969 -2.808594 5.964844 -2.429688 C 6.257812 -2.054688 6.566406 -1.667969 6.882812 -1.273438 C 6.984375 -1.148438 7.125 -0.992188 7.296875 -0.808594 C 7.472656 -0.625 7.625 -0.511719 7.757812 -0.46875 C 7.832031 -0.445312 7.929688 -0.425781 8.042969 -0.410156 C 8.160156 -0.394531 8.242188 -0.382812 8.289062 -0.382812 L 8.289062 0 M 4.964844 -5.152344 C 4.964844 -5.613281 4.835938 -5.953125 4.578125 -6.164062 C 4.320312 -6.378906 3.949219 -6.484375 3.472656 -6.484375 L 3.085938 -6.484375 L 3.085938 -3.585938 L 3.457031 -3.585938 C 3.933594 -3.585938 4.304688 -3.710938 4.570312 -3.960938 C 4.832031 -4.210938 4.964844 -4.609375 4.964844 -5.152344 Z "/>
</g>
<g id="glyph-0-6">
<path d="M 8.296875 -6.546875 C 8.203125 -6.539062 8.074219 -6.519531 7.90625 -6.492188 C 7.734375 -6.46875 7.582031 -6.40625 7.445312 -6.304688 C 7.324219 -6.214844 7.242188 -6.066406 7.191406 -5.851562 C 7.140625 -5.640625 7.113281 -5.324219 7.113281 -4.914062 L 7.113281 0.0390625 L 6.246094 0.0390625 L 1.929688 -5.316406 L 1.929688 -2.066406 C 1.929688 -1.660156 1.957031 -1.355469 2.007812 -1.144531 C 2.0625 -0.933594 2.148438 -0.78125 2.269531 -0.683594 C 2.359375 -0.613281 2.5 -0.546875 2.691406 -0.492188 C 2.882812 -0.4375 3.035156 -0.398438 3.148438 -0.382812 L 3.148438 0 L 0.171875 0 L 0.171875 -0.382812 C 0.296875 -0.390625 0.445312 -0.414062 0.609375 -0.453125 C 0.773438 -0.488281 0.910156 -0.546875 1.019531 -0.625 C 1.148438 -0.71875 1.234375 -0.863281 1.28125 -1.050781 C 1.328125 -1.242188 1.351562 -1.5625 1.351562 -2.011719 L 1.351562 -5.292969 C 1.351562 -5.457031 1.328125 -5.609375 1.277344 -5.753906 C 1.226562 -5.898438 1.148438 -6.023438 1.039062 -6.128906 C 0.925781 -6.238281 0.796875 -6.324219 0.648438 -6.390625 C 0.5 -6.453125 0.332031 -6.503906 0.140625 -6.539062 L 0.140625 -6.929688 L 2.75 -6.929688 L 6.539062 -2.242188 L 6.539062 -4.863281 C 6.539062 -5.28125 6.511719 -5.589844 6.453125 -5.792969 C 6.398438 -5.996094 6.3125 -6.148438 6.191406 -6.246094 C 6.097656 -6.320312 5.957031 -6.382812 5.773438 -6.4375 C 5.585938 -6.492188 5.4375 -6.527344 5.320312 -6.546875 L 5.320312 -6.929688 L 8.296875 -6.929688 Z "/>
</g>
<g id="glyph-0-7">
<path d="M 4.148438 0 L 0.308594 0 L 0.308594 -0.382812 C 0.394531 -0.386719 0.523438 -0.398438 0.695312 -0.410156 C 0.867188 -0.421875 0.984375 -0.441406 1.050781 -0.46875 C 1.171875 -0.515625 1.253906 -0.582031 1.296875 -0.660156 C 1.339844 -0.742188 1.363281 -0.84375 1.363281 -0.96875 L 1.363281 -5.878906 C 1.363281 -5.988281 1.339844 -6.085938 1.296875 -6.171875 C 1.257812 -6.257812 1.171875 -6.324219 1.050781 -6.375 C 0.972656 -6.410156 0.855469 -6.441406 0.703125 -6.476562 C 0.550781 -6.511719 0.417969 -6.535156 0.308594 -6.546875 L 0.308594 -6.929688 L 4.148438 -6.929688 L 4.148438 -6.546875 C 4.054688 -6.539062 3.929688 -6.523438 3.785156 -6.507812 C 3.636719 -6.488281 3.515625 -6.464844 3.414062 -6.429688 C 3.285156 -6.386719 3.203125 -6.324219 3.160156 -6.234375 C 3.117188 -6.144531 3.09375 -6.042969 3.09375 -5.929688 L 3.09375 -1.019531 C 3.09375 -0.902344 3.117188 -0.804688 3.160156 -0.71875 C 3.207031 -0.636719 3.289062 -0.570312 3.414062 -0.515625 C 3.480469 -0.488281 3.59375 -0.460938 3.753906 -0.433594 C 3.910156 -0.40625 4.042969 -0.386719 4.148438 -0.382812 Z "/>
</g>
<g id="glyph-0-8">
<path d="M 6.820312 -2.339844 L 6.585938 0 L 0.0820312 0 L 0.0820312 -0.292969 L 4.5625 -6.484375 L 3.042969 -6.484375 C 2.734375 -6.484375 2.511719 -6.476562 2.375 -6.457031 C 2.238281 -6.441406 2.109375 -6.402344 1.988281 -6.347656 C 1.847656 -6.296875 1.691406 -6.15625 1.523438 -5.933594 C 1.355469 -5.710938 1.128906 -5.335938 0.84375 -4.8125 L 0.449219 -4.8125 L 0.664062 -6.929688 L 6.6875 -6.929688 L 6.6875 -6.632812 L 2.210938 -0.445312 L 3.953125 -0.445312 C 4.5 -0.445312 4.875 -0.464844 5.070312 -0.511719 C 5.265625 -0.554688 5.410156 -0.632812 5.503906 -0.746094 C 5.6875 -0.972656 5.859375 -1.21875 6.019531 -1.488281 C 6.175781 -1.757812 6.320312 -2.042969 6.453125 -2.339844 Z "/>
</g>
<g id="glyph-0-9">
<path d="M 9.859375 0 L 6.101562 0 L 6.101562 -0.382812 C 6.214844 -0.390625 6.351562 -0.40625 6.511719 -0.429688 C 6.671875 -0.453125 6.78125 -0.476562 6.839844 -0.503906 C 6.960938 -0.550781 7.046875 -0.617188 7.101562 -0.703125 C 7.152344 -0.789062 7.179688 -0.894531 7.179688 -1.023438 L 7.179688 -6.203125 L 4.796875 -0.113281 L 4.179688 -0.113281 C 4.148438 -0.21875 4.078125 -0.433594 3.960938 -0.75 C 3.847656 -1.070312 3.753906 -1.328125 3.679688 -1.519531 L 1.929688 -6.28125 L 1.929688 -2.066406 C 1.929688 -1.660156 1.957031 -1.355469 2.007812 -1.144531 C 2.0625 -0.933594 2.148438 -0.78125 2.269531 -0.683594 C 2.351562 -0.617188 2.496094 -0.550781 2.707031 -0.488281 C 2.917969 -0.425781 3.066406 -0.390625 3.148438 -0.382812 L 3.148438 0 L 0.171875 0 L 0.171875 -0.382812 C 0.253906 -0.390625 0.386719 -0.414062 0.570312 -0.445312 C 0.753906 -0.480469 0.902344 -0.539062 1.019531 -0.625 C 1.152344 -0.714844 1.238281 -0.871094 1.285156 -1.085938 C 1.328125 -1.304688 1.351562 -1.609375 1.351562 -2.011719 L 1.351562 -5.445312 C 1.351562 -5.652344 1.328125 -5.824219 1.273438 -5.964844 C 1.222656 -6.101562 1.144531 -6.210938 1.039062 -6.292969 C 0.910156 -6.394531 0.777344 -6.460938 0.640625 -6.488281 C 0.503906 -6.519531 0.363281 -6.539062 0.226562 -6.546875 L 0.226562 -6.929688 L 3.417969 -6.929688 L 5.125 -2.363281 L 6.566406 -6.070312 C 6.613281 -6.207031 6.660156 -6.367188 6.707031 -6.558594 C 6.75 -6.746094 6.777344 -6.871094 6.78125 -6.929688 L 9.847656 -6.929688 L 9.847656 -6.546875 C 9.746094 -6.542969 9.636719 -6.527344 9.523438 -6.507812 C 9.40625 -6.488281 9.296875 -6.464844 9.195312 -6.429688 C 9.066406 -6.386719 8.984375 -6.320312 8.941406 -6.230469 C 8.902344 -6.140625 8.882812 -6.039062 8.882812 -5.929688 L 8.882812 -1.019531 C 8.882812 -0.902344 8.902344 -0.804688 8.941406 -0.726562 C 8.984375 -0.644531 9.066406 -0.578125 9.195312 -0.515625 C 9.257812 -0.488281 9.367188 -0.460938 9.515625 -0.433594 C 9.664062 -0.410156 9.777344 -0.390625 9.859375 -0.382812 Z "/>
</g>
<g id="glyph-0-10">
<path d="M 6.738281 -6.15625 C 7.078125 -5.84375 7.351562 -5.46875 7.550781 -5.023438 C 7.75 -4.582031 7.851562 -4.078125 7.851562 -3.511719 C 7.851562 -3.007812 7.765625 -2.527344 7.597656 -2.070312 C 7.429688 -1.613281 7.183594 -1.222656 6.867188 -0.894531 C 6.53125 -0.550781 6.136719 -0.285156 5.683594 -0.09375 C 5.230469 0.09375 4.691406 0.191406 4.066406 0.191406 C 3.5625 0.191406 3.085938 0.105469 2.636719 -0.0585938 C 2.1875 -0.222656 1.792969 -0.464844 1.449219 -0.78125 C 1.113281 -1.089844 0.84375 -1.464844 0.644531 -1.910156 C 0.445312 -2.351562 0.347656 -2.84375 0.347656 -3.390625 C 0.347656 -3.953125 0.445312 -4.46875 0.636719 -4.929688 C 0.832031 -5.390625 1.097656 -5.785156 1.4375 -6.113281 C 1.769531 -6.4375 2.167969 -6.683594 2.628906 -6.859375 C 3.089844 -7.03125 3.582031 -7.117188 4.101562 -7.117188 C 4.617188 -7.117188 5.105469 -7.035156 5.558594 -6.867188 C 6.011719 -6.695312 6.40625 -6.460938 6.738281 -6.15625 M 5.484375 -1.199219 C 5.628906 -1.496094 5.734375 -1.832031 5.800781 -2.207031 C 5.867188 -2.578125 5.898438 -3.003906 5.898438 -3.476562 C 5.898438 -3.878906 5.871094 -4.269531 5.8125 -4.648438 C 5.757812 -5.027344 5.660156 -5.367188 5.523438 -5.664062 C 5.382812 -5.960938 5.195312 -6.195312 4.964844 -6.375 C 4.734375 -6.554688 4.445312 -6.644531 4.101562 -6.644531 C 3.511719 -6.644531 3.066406 -6.367188 2.757812 -5.808594 C 2.453125 -5.246094 2.300781 -4.457031 2.300781 -3.4375 C 2.300781 -3.003906 2.332031 -2.59375 2.398438 -2.210938 C 2.464844 -1.824219 2.570312 -1.488281 2.714844 -1.203125 C 2.859375 -0.914062 3.046875 -0.6875 3.273438 -0.523438 C 3.496094 -0.363281 3.773438 -0.28125 4.101562 -0.28125 C 4.421875 -0.28125 4.699219 -0.363281 4.929688 -0.527344 C 5.164062 -0.691406 5.347656 -0.914062 5.484375 -1.199219 Z "/>
</g>
<g id="glyph-0-11">
<path d="M 3.242188 0.191406 C 2.820312 0.191406 2.425781 0.136719 2.058594 0.03125 C 1.691406 -0.0742188 1.382812 -0.199219 1.128906 -0.34375 L 0.789062 0 L 0.375 0 L 0.3125 -2.503906 L 0.734375 -2.503906 C 0.828125 -2.265625 0.945312 -2.015625 1.09375 -1.75 C 1.242188 -1.488281 1.410156 -1.25 1.601562 -1.042969 C 1.800781 -0.824219 2.023438 -0.644531 2.269531 -0.507812 C 2.515625 -0.371094 2.800781 -0.304688 3.128906 -0.304688 C 3.574219 -0.304688 3.910156 -0.410156 4.148438 -0.628906 C 4.382812 -0.84375 4.5 -1.117188 4.5 -1.445312 C 4.5 -1.714844 4.402344 -1.945312 4.203125 -2.128906 C 4 -2.3125 3.691406 -2.472656 3.273438 -2.605469 C 3 -2.695312 2.746094 -2.773438 2.515625 -2.851562 C 2.289062 -2.925781 2.070312 -3.003906 1.871094 -3.082031 C 1.40625 -3.265625 1.058594 -3.53125 0.832031 -3.878906 C 0.605469 -4.222656 0.492188 -4.609375 0.492188 -5.035156 C 0.492188 -5.308594 0.550781 -5.566406 0.667969 -5.816406 C 0.785156 -6.066406 0.957031 -6.289062 1.179688 -6.488281 C 1.398438 -6.675781 1.671875 -6.824219 2.007812 -6.941406 C 2.34375 -7.058594 2.707031 -7.117188 3.101562 -7.117188 C 3.484375 -7.117188 3.84375 -7.066406 4.179688 -6.957031 C 4.515625 -6.851562 4.777344 -6.742188 4.96875 -6.636719 L 5.269531 -6.929688 L 5.695312 -6.929688 L 5.734375 -4.566406 L 5.3125 -4.566406 C 5.214844 -4.820312 5.101562 -5.082031 4.96875 -5.347656 C 4.835938 -5.613281 4.695312 -5.832031 4.550781 -6.007812 C 4.390625 -6.199219 4.207031 -6.347656 4 -6.460938 C 3.789062 -6.574219 3.546875 -6.632812 3.265625 -6.632812 C 2.914062 -6.632812 2.628906 -6.53125 2.40625 -6.332031 C 2.183594 -6.132812 2.070312 -5.886719 2.070312 -5.59375 C 2.070312 -5.316406 2.167969 -5.089844 2.359375 -4.914062 C 2.554688 -4.738281 2.855469 -4.582031 3.265625 -4.449219 C 3.507812 -4.367188 3.753906 -4.285156 4.003906 -4.207031 C 4.253906 -4.125 4.476562 -4.046875 4.671875 -3.96875 C 5.144531 -3.789062 5.503906 -3.535156 5.75 -3.214844 C 5.996094 -2.894531 6.117188 -2.496094 6.117188 -2.019531 C 6.117188 -1.71875 6.046875 -1.429688 5.90625 -1.148438 C 5.769531 -0.867188 5.578125 -0.636719 5.34375 -0.449219 C 5.082031 -0.246094 4.78125 -0.0859375 4.4375 0.0234375 C 4.097656 0.136719 3.699219 0.191406 3.242188 0.191406 Z "/>
</g>
<g id="glyph-0-12">
<path d="M 6.855469 -2.222656 L 6.71875 0 L 0.335938 0 L 0.335938 -0.382812 C 0.449219 -0.390625 0.585938 -0.40625 0.738281 -0.425781 C 0.890625 -0.449219 0.992188 -0.46875 1.039062 -0.488281 C 1.15625 -0.535156 1.238281 -0.597656 1.285156 -0.679688 C 1.328125 -0.761719 1.351562 -0.863281 1.351562 -0.992188 L 1.351562 -5.878906 C 1.351562 -5.996094 1.335938 -6.09375 1.296875 -6.167969 C 1.261719 -6.246094 1.175781 -6.316406 1.039062 -6.375 C 0.9375 -6.421875 0.816406 -6.460938 0.675781 -6.488281 C 0.535156 -6.515625 0.421875 -6.535156 0.335938 -6.546875 L 0.335938 -6.929688 L 4.140625 -6.929688 L 4.140625 -6.546875 C 4.035156 -6.539062 3.914062 -6.523438 3.773438 -6.507812 C 3.628906 -6.488281 3.507812 -6.464844 3.402344 -6.429688 C 3.277344 -6.386719 3.191406 -6.324219 3.148438 -6.234375 C 3.105469 -6.144531 3.085938 -6.042969 3.085938 -5.929688 L 3.085938 -1.371094 C 3.085938 -1.15625 3.101562 -0.988281 3.128906 -0.863281 C 3.160156 -0.742188 3.214844 -0.648438 3.300781 -0.589844 C 3.386719 -0.527344 3.503906 -0.488281 3.65625 -0.472656 C 3.804688 -0.453125 4.015625 -0.445312 4.28125 -0.445312 C 4.542969 -0.445312 4.796875 -0.460938 5.042969 -0.492188 C 5.289062 -0.523438 5.464844 -0.589844 5.570312 -0.695312 C 5.738281 -0.859375 5.90625 -1.09375 6.082031 -1.394531 C 6.253906 -1.695312 6.394531 -1.972656 6.5 -2.222656 Z "/>
</g>
<g id="glyph-0-13">
<path d="M 4.617188 0 L 0.589844 0 L 0.589844 -0.371094 C 0.6875 -0.378906 0.84375 -0.394531 1.058594 -0.421875 C 1.269531 -0.445312 1.414062 -0.472656 1.492188 -0.5 C 1.59375 -0.53125 1.667969 -0.585938 1.722656 -0.664062 C 1.777344 -0.742188 1.804688 -0.851562 1.804688 -0.984375 L 1.804688 -4.082031 L 0.570312 -4.082031 L 0.570312 -4.546875 L 0.839844 -4.546875 C 1.125 -4.546875 1.367188 -4.578125 1.574219 -4.640625 C 1.78125 -4.699219 1.953125 -4.773438 2.089844 -4.863281 C 2.230469 -4.953125 2.34375 -5.046875 2.433594 -5.148438 C 2.523438 -5.242188 2.59375 -5.332031 2.648438 -5.40625 L 3.507812 -5.40625 C 3.496094 -5.195312 3.484375 -4.945312 3.476562 -4.664062 C 3.46875 -4.378906 3.460938 -4.125 3.460938 -3.902344 L 3.460938 -1.039062 C 3.460938 -0.921875 3.488281 -0.820312 3.539062 -0.734375 C 3.589844 -0.648438 3.660156 -0.582031 3.753906 -0.539062 C 3.839844 -0.5 3.980469 -0.460938 4.179688 -0.429688 C 4.378906 -0.398438 4.523438 -0.378906 4.617188 -0.371094 Z "/>
</g>
<g id="glyph-0-14">
<path d="M 5.78125 -4.550781 C 6.027344 -4.289062 6.210938 -3.992188 6.332031 -3.660156 C 6.449219 -3.324219 6.507812 -2.980469 6.507812 -2.621094 C 6.507812 -2.195312 6.433594 -1.8125 6.285156 -1.46875 C 6.136719 -1.125 5.9375 -0.832031 5.679688 -0.59375 C 5.410156 -0.347656 5.09375 -0.160156 4.734375 -0.03125 C 4.378906 0.101562 3.964844 0.164062 3.5 0.164062 C 3.007812 0.164062 2.574219 0.0898438 2.199219 -0.0625 C 1.824219 -0.214844 1.511719 -0.417969 1.257812 -0.667969 C 1.011719 -0.917969 0.824219 -1.207031 0.695312 -1.542969 C 0.566406 -1.878906 0.503906 -2.238281 0.503906 -2.621094 C 0.503906 -3.003906 0.5625 -3.355469 0.6875 -3.679688 C 0.808594 -4.007812 0.996094 -4.300781 1.25 -4.566406 C 1.496094 -4.824219 1.8125 -5.027344 2.191406 -5.183594 C 2.574219 -5.335938 3.011719 -5.414062 3.507812 -5.414062 C 4.015625 -5.414062 4.460938 -5.335938 4.84375 -5.175781 C 5.226562 -5.015625 5.539062 -4.808594 5.78125 -4.550781 M 4.40625 -0.914062 C 4.5 -1.132812 4.566406 -1.375 4.605469 -1.644531 C 4.648438 -1.910156 4.667969 -2.238281 4.667969 -2.621094 C 4.667969 -2.96875 4.648438 -3.277344 4.613281 -3.554688 C 4.574219 -3.832031 4.511719 -4.078125 4.421875 -4.292969 C 4.332031 -4.511719 4.210938 -4.683594 4.0625 -4.804688 C 3.914062 -4.925781 3.730469 -4.984375 3.511719 -4.984375 C 3.289062 -4.984375 3.105469 -4.925781 2.953125 -4.808594 C 2.804688 -4.6875 2.683594 -4.519531 2.585938 -4.300781 C 2.503906 -4.101562 2.441406 -3.859375 2.402344 -3.570312 C 2.363281 -3.285156 2.34375 -2.96875 2.34375 -2.621094 C 2.34375 -2.261719 2.359375 -1.953125 2.394531 -1.699219 C 2.429688 -1.445312 2.492188 -1.199219 2.582031 -0.96875 C 2.664062 -0.753906 2.78125 -0.585938 2.933594 -0.453125 C 3.085938 -0.324219 3.277344 -0.257812 3.5 -0.257812 C 3.710938 -0.257812 3.890625 -0.316406 4.042969 -0.433594 C 4.195312 -0.550781 4.316406 -0.710938 4.40625 -0.914062 Z "/>
</g>
<g id="glyph-0-15">
<path d="M 4.25 -5.304688 C 4.246094 -4.757812 4.066406 -4.320312 3.699219 -3.980469 C 3.332031 -3.644531 2.882812 -3.476562 2.347656 -3.476562 C 1.808594 -3.476562 1.355469 -3.644531 0.992188 -3.980469 C 0.625 -4.320312 0.445312 -4.757812 0.445312 -5.304688 C 0.445312 -5.847656 0.625 -6.285156 0.992188 -6.625 C 1.355469 -6.960938 1.804688 -7.128906 2.34375 -7.128906 C 2.882812 -7.128906 3.332031 -6.960938 3.699219 -6.625 C 4.066406 -6.285156 4.246094 -5.847656 4.25 -5.304688 M 2.953125 -5.292969 C 2.953125 -5.742188 2.910156 -6.101562 2.820312 -6.371094 C 2.734375 -6.636719 2.574219 -6.773438 2.339844 -6.773438 C 2.128906 -6.773438 1.972656 -6.644531 1.878906 -6.394531 C 1.785156 -6.140625 1.738281 -5.789062 1.738281 -5.34375 C 1.738281 -4.875 1.78125 -4.503906 1.867188 -4.234375 C 1.953125 -3.96875 2.117188 -3.832031 2.359375 -3.832031 C 2.566406 -3.832031 2.71875 -3.960938 2.8125 -4.210938 C 2.90625 -4.464844 2.953125 -4.824219 2.953125 -5.292969 M 8.351562 -1.65625 C 8.347656 -1.113281 8.167969 -0.671875 7.800781 -0.335938 C 7.433594 0.00390625 6.984375 0.171875 6.449219 0.171875 C 5.910156 0.171875 5.457031 0.00390625 5.09375 -0.335938 C 4.726562 -0.671875 4.546875 -1.113281 4.546875 -1.65625 C 4.546875 -2.199219 4.726562 -2.640625 5.09375 -2.976562 C 5.457031 -3.3125 5.90625 -3.480469 6.445312 -3.480469 C 6.984375 -3.480469 7.433594 -3.3125 7.800781 -2.976562 C 8.167969 -2.640625 8.347656 -2.199219 8.351562 -1.65625 M 7.054688 -1.644531 C 7.054688 -2.09375 7.011719 -2.453125 6.921875 -2.722656 C 6.835938 -2.992188 6.675781 -3.125 6.441406 -3.125 C 6.230469 -3.125 6.074219 -3 5.980469 -2.746094 C 5.886719 -2.496094 5.839844 -2.144531 5.839844 -1.695312 C 5.839844 -1.226562 5.882812 -0.855469 5.96875 -0.589844 C 6.054688 -0.320312 6.21875 -0.1875 6.460938 -0.1875 C 6.667969 -0.1875 6.820312 -0.3125 6.914062 -0.5625 C 7.007812 -0.816406 7.054688 -1.175781 7.054688 -1.644531 M 7.6875 -6.972656 L 1.910156 0 L 1.113281 0 L 6.875 -6.972656 Z "/>
</g>
</g>
</defs>
<g fill="rgb(100%, 100%, 100%)" fill-opacity="1">
<use xlink:href="#glyph-0-0" x="30" y="29.169922"/>
<use xlink:href="#glyph-0-1" x="37" y="29.169922"/>
<use xlink:href="#glyph-0-2" x="44" y="29.169922"/>
<use xlink:href="#glyph-0-3" x="47" y="29.169922"/>
<use xlink:href="#glyph-0-4" x="55" y="29.169922"/>
<use xlink:href="#glyph-0-5" x="63" y="29.169922"/>
<use xlink:href="#glyph-0-4" x="71" y="29.169922"/>
<use xlink:href="#glyph-0-6" x="79" y="29.169922"/>
<use xlink:href="#glyph-0-0" x="87" y="29.169922"/>
<use xlink:href="#glyph-0-7" x="94" y="29.169922"/>
<use xlink:href="#glyph-0-8" x="98" y="29.169922"/>
<use xlink:href="#glyph-0-4" x="105" y="29.169922"/>
<use xlink:href="#glyph-0-9" x="113" y="29.169922"/>
<use xlink:href="#glyph-0-10" x="123" y="29.169922"/>
<use xlink:href="#glyph-0-11" x="131" y="29.169922"/>
<use xlink:href="#glyph-0-2" x="137" y="29.169922"/>
<use xlink:href="#glyph-0-1" x="140" y="29.169922"/>
<use xlink:href="#glyph-0-12" x="147" y="29.169922"/>
<use xlink:href="#glyph-0-2" x="154" y="29.169922"/>
<use xlink:href="#glyph-0-13" x="157" y="29.169922"/>
<use xlink:href="#glyph-0-14" x="162" y="29.169922"/>
<use xlink:href="#glyph-0-14" x="169" y="29.169922"/>
<use xlink:href="#glyph-0-15" x="176" y="29.169922"/>
</g>
</svg>
