<?xml version="1.0" encoding="UTF-8"?>
<svg xmlns="http://www.w3.org/2000/svg" xmlns:xlink="http://www.w3.org/1999/xlink" width="1080" height="1920" viewBox="0 0 1080 1920">
<defs>
<g>
<g id="glyph-0-0">
<path d="M 2.519531 0 C 2.183594 0 1.875 -0.0859375 1.601562 -0.253906 C 1.324219 -0.421875 1.101562 -0.644531 0.933594 -0.921875 C 0.765625 -1.195312 0.679688 -1.503906 0.679688 -1.839844 L 0.679688 -5.894531 C 0.679688 -6.230469 0.765625 -6.539062 0.933594 -6.8125 C 1.101562 -7.089844 1.324219 -7.3125 1.601562 -7.480469 C 1.875 -7.648438 2.183594 -7.734375 2.519531 -7.734375 L 8.519531 -7.734375 L 8.519531 -5.988281 L 2.585938 -5.988281 C 2.542969 -5.996094 2.503906 -5.980469 2.464844 -5.945312 C 2.429688 -5.910156 2.417969 -5.871094 2.425781 -5.828125 L 2.425781 -1.90625 C 2.417969 -1.863281 2.429688 -1.820312 2.464844 -1.785156 C 2.503906 -1.75 2.542969 -1.738281 2.585938 -1.746094 L 8.535156 -1.734375 L 8.535156 0 L 2.507812 0 Z "/>
</g>
<g id="glyph-0-1">
<path d="M 2.519531 0 C 2.183594 0 1.875 -0.0859375 1.601562 -0.253906 C 1.324219 -0.421875 1.101562 -0.644531 0.933594 -0.921875 C 0.765625 -1.195312 0.679688 -1.503906 0.679688 -1.839844 L 0.679688 -5.894531 C 0.679688 -6.230469 0.765625 -6.539062 0.933594 -6.8125 C 1.101562 -7.089844 1.324219 -7.3125 1.601562 -7.480469 C 1.875 -7.648438 2.183594 -7.734375 2.519531 -7.734375 L 6.691406 -7.734375 C 7.039062 -7.734375 7.351562 -7.652344 7.625 -7.488281 C 7.902344 -7.320312 8.121094 -7.101562 8.285156 -6.820312 C 8.449219 -6.539062 8.535156 -6.230469 8.535156 -5.894531 L 8.535156 -1.839844 C 8.535156 -1.503906 8.449219 -1.195312 8.285156 -0.921875 C 8.121094 -0.644531 7.902344 -0.421875 7.625 -0.253906 C 7.351562 -0.0859375 7.039062 0 6.691406 0 L 2.507812 0 L 2.519531 0 M 2.585938 -1.746094 L 6.625 -1.746094 C 6.671875 -1.738281 6.707031 -1.75 6.738281 -1.785156 C 6.769531 -1.820312 6.785156 -1.863281 6.785156 -1.90625 L 6.785156 -5.828125 C 6.785156 -5.871094 6.769531 -5.910156 6.738281 -5.945312 C 6.707031 -5.980469 6.671875 -5.996094 6.625 -5.988281 L 2.585938 -5.988281 C 2.542969 -5.996094 2.503906 -5.980469 2.464844 -5.945312 C 2.429688 -5.910156 2.417969 -5.871094 2.425781 -5.828125 L 2.425781 -1.90625 C 2.417969 -1.863281 2.429688 -1.820312 2.464844 -1.785156 C 2.503906 -1.75 2.542969 -1.738281 2.585938 -1.746094 Z "/>
</g>
<g id="glyph-0-2">
<path d="M 0.71875 0 L 0.71875 -7.734375 L 6.734375 -7.734375 C 7.078125 -7.734375 7.390625 -7.648438 7.667969 -7.480469 C 7.941406 -7.3125 8.164062 -7.089844 8.328125 -6.8125 C 8.492188 -6.539062 8.574219 -6.230469 8.574219 -5.894531 L 8.574219 0 L 6.828125 0 L 6.828125 -5.828125 C 6.828125 -5.871094 6.8125 -5.910156 6.78125 -5.945312 C 6.75 -5.980469 6.710938 -5.996094 6.667969 -5.988281 L 2.625 -5.988281 C 2.582031 -5.996094 2.542969 -5.980469 2.507812 -5.945312 C 2.472656 -5.910156 2.457031 -5.871094 2.464844 -5.828125 L 2.453125 0 Z "/>
</g>
<g id="glyph-0-3">
</g>
<g id="glyph-0-4">
<path d="M 0.558594 0 L 0.558594 -9.601562 L 2.308594 -9.601562 L 2.308594 0 Z "/>
</g>
<g id="glyph-0-5">
<path d="M 0.773438 0 L 0.773438 -7.746094 C 0.773438 -8.085938 0.859375 -8.394531 1.027344 -8.671875 C 1.195312 -8.953125 1.421875 -9.179688 1.699219 -9.347656 C 1.980469 -9.515625 2.289062 -9.601562 2.625 -9.601562 L 8.507812 -9.601562 C 8.851562 -9.601562 9.167969 -9.515625 9.445312 -9.347656 C 9.726562 -9.179688 9.949219 -8.953125 10.121094 -8.671875 C 10.289062 -8.394531 10.375 -8.085938 10.375 -7.746094 L 10.375 0 L 8.601562 0 L 8.601562 -3.226562 L 2.535156 -3.226562 L 2.535156 0 L 0.773438 0 M 2.535156 -4.988281 L 8.601562 -4.988281 L 8.601562 -7.667969 C 8.601562 -7.71875 8.585938 -7.761719 8.554688 -7.792969 C 8.523438 -7.824219 8.480469 -7.835938 8.425781 -7.828125 L 2.691406 -7.828125 C 2.648438 -7.835938 2.609375 -7.824219 2.578125 -7.792969 C 2.550781 -7.761719 2.535156 -7.71875 2.535156 -7.667969 Z "/>
</g>
</g>
</defs>
<g fill="rgb(15.294118%, 78.823529%, 62.352941%)" fill-opacity="1">
<use xlink:href="#glyph-0-0" x="30" y="33.479492"/>
<use xlink:href="#glyph-0-1" x="39" y="33.479492"/>
<use xlink:href="#glyph-0-2" x="48" y="33.479492"/>
<use xlink:href="#glyph-0-3" x="57" y="33.479492"/>
<use xlink:href="#glyph-0-4" x="61" y="33.479492"/>
<use xlink:href="#glyph-0-5" x="64" y="33.479492"/>
</g>
</svg>
