<?xml version="1.0" encoding="UTF-8"?>
<svg xmlns="http://www.w3.org/2000/svg" xmlns:xlink="http://www.w3.org/1999/xlink" width="1080" height="1920" viewBox="0 0 1080 1920">
<defs>
<g>
<g id="glyph-0-0">
<path d="M 1.140625 0 L 0.574219 0 C 0.480469 0 0.433594 -0.046875 0.433594 -0.140625 L 0.433594 -4.148438 C 0.433594 -4.238281 0.480469 -4.285156 0.574219 -4.285156 L 2.199219 -4.285156 C 2.546875 -4.285156 2.816406 -4.191406 3.007812 -4.003906 C 3.199219 -3.8125 3.292969 -3.546875 3.292969 -3.199219 L 3.292969 -2.558594 C 3.292969 -2.214844 3.199219 -1.945312 3.007812 -1.757812 C 2.816406 -1.566406 2.546875 -1.472656 2.199219 -1.472656 L 1.359375 -1.472656 C 1.308594 -1.472656 1.28125 -1.449219 1.28125 -1.398438 L 1.28125 -0.140625 C 1.28125 -0.046875 1.234375 0 1.140625 0 M 1.351562 -2.214844 L 2.058594 -2.214844 C 2.203125 -2.214844 2.300781 -2.242188 2.359375 -2.304688 C 2.417969 -2.363281 2.445312 -2.460938 2.445312 -2.601562 L 2.445312 -3.160156 C 2.445312 -3.300781 2.417969 -3.402344 2.359375 -3.464844 C 2.300781 -3.523438 2.203125 -3.554688 2.058594 -3.554688 L 1.351562 -3.554688 C 1.304688 -3.554688 1.28125 -3.527344 1.28125 -3.480469 L 1.28125 -2.285156 C 1.28125 -2.238281 1.304688 -2.214844 1.351562 -2.214844 Z "/>
</g>
<g id="glyph-0-1">
<path d="M 2.875 0 L 1.398438 0 C 1.050781 0 0.777344 -0.09375 0.585938 -0.28125 C 0.394531 -0.464844 0.300781 -0.734375 0.300781 -1.085938 L 0.300781 -2.3125 C 0.300781 -2.664062 0.394531 -2.933594 0.585938 -3.121094 C 0.777344 -3.308594 1.050781 -3.398438 1.398438 -3.398438 L 1.925781 -3.398438 C 2.277344 -3.398438 2.550781 -3.308594 2.738281 -3.121094 C 2.929688 -2.933594 3.027344 -2.664062 3.027344 -2.3125 L 3.027344 -1.464844 C 3.027344 -1.375 2.980469 -1.328125 2.886719 -1.328125 L 1.214844 -1.328125 C 1.160156 -1.328125 1.132812 -1.300781 1.132812 -1.253906 L 1.132812 -1.105469 C 1.132812 -0.96875 1.164062 -0.871094 1.222656 -0.808594 C 1.285156 -0.75 1.382812 -0.71875 1.527344 -0.71875 L 2.875 -0.71875 C 2.964844 -0.71875 3.011719 -0.671875 3.011719 -0.574219 L 3.011719 -0.132812 C 3.011719 -0.0859375 3.003906 -0.0507812 2.984375 -0.03125 C 2.964844 -0.0117188 2.925781 0 2.875 0 M 1.214844 -1.894531 L 2.121094 -1.894531 C 2.167969 -1.894531 2.191406 -1.917969 2.191406 -1.964844 L 2.191406 -2.285156 C 2.191406 -2.429688 2.164062 -2.527344 2.105469 -2.585938 C 2.050781 -2.644531 1.949219 -2.671875 1.808594 -2.671875 L 1.527344 -2.671875 C 1.382812 -2.671875 1.285156 -2.644531 1.226562 -2.585938 C 1.167969 -2.527344 1.140625 -2.429688 1.140625 -2.285156 L 1.140625 -1.964844 C 1.140625 -1.917969 1.164062 -1.894531 1.214844 -1.894531 Z "/>
</g>
<g id="glyph-0-2">
<path d="M 1.074219 0 L 0.507812 0 C 0.414062 0 0.367188 -0.046875 0.367188 -0.140625 L 0.367188 -3.261719 C 0.367188 -3.351562 0.414062 -3.398438 0.507812 -3.398438 L 1.074219 -3.398438 C 1.167969 -3.398438 1.214844 -3.351562 1.214844 -3.261719 L 1.214844 -3.039062 L 1.238281 -3.039062 C 1.335938 -3.28125 1.554688 -3.398438 1.894531 -3.398438 L 2.105469 -3.398438 C 2.804688 -3.398438 3.152344 -3.039062 3.152344 -2.3125 L 3.152344 -0.140625 C 3.152344 -0.046875 3.105469 0 3.007812 0 L 2.445312 0 C 2.351562 0 2.308594 -0.046875 2.308594 -0.140625 L 2.308594 -2.273438 C 2.308594 -2.414062 2.277344 -2.515625 2.214844 -2.578125 C 2.15625 -2.636719 2.054688 -2.667969 1.914062 -2.667969 L 1.671875 -2.667969 C 1.367188 -2.667969 1.214844 -2.496094 1.214844 -2.160156 L 1.214844 -0.140625 C 1.214844 -0.046875 1.167969 0 1.074219 0 Z "/>
</g>
<g id="glyph-0-3">
<path d="M 1.613281 0 L 1.339844 0 C 0.996094 0 0.738281 -0.09375 0.5625 -0.28125 C 0.386719 -0.464844 0.300781 -0.734375 0.300781 -1.085938 L 0.300781 -2.3125 C 0.300781 -2.664062 0.386719 -2.933594 0.5625 -3.121094 C 0.738281 -3.308594 0.996094 -3.398438 1.339844 -3.398438 L 1.613281 -3.398438 C 1.75 -3.398438 1.882812 -3.371094 2.007812 -3.308594 C 2.132812 -3.25 2.21875 -3.160156 2.265625 -3.039062 L 2.292969 -3.039062 L 2.292969 -4.546875 C 2.292969 -4.640625 2.339844 -4.6875 2.433594 -4.6875 L 3 -4.6875 C 3.09375 -4.6875 3.140625 -4.640625 3.140625 -4.546875 L 3.140625 -0.140625 C 3.140625 -0.046875 3.09375 0 3 0 L 2.433594 0 C 2.339844 0 2.292969 -0.046875 2.292969 -0.140625 L 2.292969 -0.359375 L 2.265625 -0.359375 C 2.21875 -0.238281 2.132812 -0.148438 2.007812 -0.0898438 C 1.882812 -0.03125 1.75 0 1.613281 0 M 2.292969 -1.238281 L 2.292969 -2.160156 C 2.292969 -2.496094 2.140625 -2.667969 1.832031 -2.667969 L 1.535156 -2.667969 C 1.390625 -2.667969 1.292969 -2.636719 1.234375 -2.578125 C 1.175781 -2.515625 1.148438 -2.414062 1.148438 -2.273438 L 1.148438 -1.125 C 1.148438 -0.984375 1.175781 -0.882812 1.234375 -0.824219 C 1.292969 -0.761719 1.390625 -0.734375 1.535156 -0.734375 L 1.832031 -0.734375 C 2.140625 -0.734375 2.292969 -0.902344 2.292969 -1.238281 Z "/>
</g>
<g id="glyph-0-4">
<path d="M 0.398438 -3.972656 L 0.398438 -4.554688 C 0.398438 -4.640625 0.445312 -4.6875 0.535156 -4.6875 L 1.113281 -4.6875 C 1.203125 -4.6875 1.246094 -4.644531 1.246094 -4.558594 L 1.246094 -3.972656 C 1.246094 -3.882812 1.203125 -3.839844 1.113281 -3.839844 L 0.535156 -3.839844 C 0.445312 -3.839844 0.398438 -3.882812 0.398438 -3.972656 M 0.398438 -0.140625 L 0.398438 -3.261719 C 0.398438 -3.351562 0.445312 -3.398438 0.535156 -3.398438 L 1.105469 -3.398438 C 1.199219 -3.398438 1.246094 -3.351562 1.246094 -3.261719 L 1.246094 -0.140625 C 1.246094 -0.0820312 1.238281 -0.0429688 1.214844 -0.0273438 C 1.195312 -0.0078125 1.164062 0 1.113281 0 L 0.539062 0 C 0.445312 0 0.398438 -0.046875 0.398438 -0.140625 Z "/>
</g>
<g id="glyph-0-5">
<path d="M 0.441406 -2.667969 L 0.171875 -2.667969 C 0.121094 -2.667969 0.0820312 -2.675781 0.0625 -2.691406 C 0.0429688 -2.710938 0.0351562 -2.746094 0.0351562 -2.800781 L 0.0351562 -3.261719 C 0.0351562 -3.351562 0.078125 -3.398438 0.171875 -3.398438 L 0.441406 -3.398438 C 0.488281 -3.398438 0.511719 -3.425781 0.511719 -3.472656 L 0.511719 -4.105469 C 0.511719 -4.199219 0.5625 -4.246094 0.660156 -4.246094 L 1.21875 -4.246094 C 1.3125 -4.246094 1.359375 -4.199219 1.359375 -4.105469 L 1.359375 -3.472656 C 1.359375 -3.425781 1.386719 -3.398438 1.441406 -3.398438 L 1.960938 -3.398438 C 2.054688 -3.398438 2.101562 -3.351562 2.101562 -3.261719 L 2.101562 -2.800781 C 2.101562 -2.75 2.089844 -2.714844 2.070312 -2.695312 C 2.050781 -2.675781 2.011719 -2.667969 1.960938 -2.667969 L 1.441406 -2.667969 C 1.386719 -2.667969 1.359375 -2.640625 1.359375 -2.59375 L 1.359375 -1.121094 C 1.359375 -0.980469 1.390625 -0.882812 1.453125 -0.824219 C 1.515625 -0.761719 1.617188 -0.734375 1.761719 -0.734375 L 2.027344 -0.734375 C 2.121094 -0.734375 2.167969 -0.6875 2.167969 -0.59375 L 2.167969 -0.132812 C 2.167969 -0.0859375 2.15625 -0.0507812 2.136719 -0.03125 C 2.117188 -0.0117188 2.078125 0 2.027344 0 L 1.621094 0 C 1.269531 0 0.996094 -0.09375 0.804688 -0.28125 C 0.609375 -0.464844 0.511719 -0.734375 0.511719 -1.078125 L 0.511719 -2.59375 C 0.511719 -2.640625 0.488281 -2.667969 0.441406 -2.667969 Z "/>
</g>
</g>
</defs>
<g fill="rgb(98.823529%, 38.431373%, 33.333333%)" fill-opacity="1">
<use xlink:href="#glyph-0-0" x="30" y="26.199219"/>
<use xlink:href="#glyph-0-1" x="34" y="26.199219"/>
<use xlink:href="#glyph-0-2" x="37" y="26.199219"/>
<use xlink:href="#glyph-0-3" x="40" y="26.199219"/>
<use xlink:href="#glyph-0-4" x="44" y="26.199219"/>
<use xlink:href="#glyph-0-1" x="46" y="26.199219"/>
<use xlink:href="#glyph-0-2" x="49" y="26.199219"/>
<use xlink:href="#glyph-0-5" x="52" y="26.199219"/>
<use xlink:href="#glyph-0-1" x="54" y="26.199219"/>
</g>
</svg>
