<?xml version="1.0" encoding="UTF-8"?>
<svg xmlns="http://www.w3.org/2000/svg" xmlns:xlink="http://www.w3.org/1999/xlink" width="1080" height="1920" viewBox="0 0 1080 1920">
<defs>
<g>
<g id="glyph-0-0">
<path d="M 0.78125 -0.378906 L 1.613281 -0.378906 C 1.660156 -0.417969 1.703125 -0.433594 1.742188 -0.433594 C 1.800781 -0.433594 1.847656 -0.414062 1.878906 -0.378906 C 1.914062 -0.339844 1.929688 -0.273438 1.929688 -0.179688 L 1.929688 0 L 0.203125 0 L 0.203125 -0.402344 C 0.886719 -0.964844 1.300781 -1.328125 1.441406 -1.488281 C 1.511719 -1.570312 1.546875 -1.648438 1.546875 -1.722656 C 1.546875 -1.816406 1.507812 -1.898438 1.425781 -1.96875 C 1.347656 -2.039062 1.238281 -2.074219 1.105469 -2.074219 C 0.96875 -2.074219 0.855469 -2.035156 0.765625 -1.957031 C 0.71875 -1.914062 0.679688 -1.851562 0.652344 -1.769531 C 0.636719 -1.71875 0.613281 -1.679688 0.582031 -1.660156 C 0.550781 -1.636719 0.515625 -1.625 0.46875 -1.625 C 0.417969 -1.625 0.375 -1.644531 0.335938 -1.679688 C 0.296875 -1.71875 0.28125 -1.761719 0.28125 -1.8125 C 0.28125 -1.886719 0.3125 -1.976562 0.382812 -2.089844 C 0.449219 -2.199219 0.550781 -2.289062 0.679688 -2.355469 C 0.8125 -2.421875 0.957031 -2.453125 1.109375 -2.453125 C 1.347656 -2.453125 1.546875 -2.382812 1.699219 -2.238281 C 1.851562 -2.09375 1.925781 -1.917969 1.925781 -1.710938 C 1.925781 -1.605469 1.90625 -1.507812 1.863281 -1.417969 C 1.816406 -1.332031 1.710938 -1.207031 1.546875 -1.046875 C 1.414062 -0.925781 1.160156 -0.699219 0.78125 -0.378906 Z "/>
</g>
<g id="glyph-0-1">
<path d="M 1.527344 -2.015625 L 0.660156 -2.015625 C 0.65625 -1.941406 0.636719 -1.886719 0.601562 -1.855469 C 0.570312 -1.820312 0.527344 -1.804688 0.472656 -1.804688 C 0.414062 -1.804688 0.367188 -1.824219 0.332031 -1.863281 C 0.296875 -1.902344 0.28125 -1.964844 0.28125 -2.058594 L 0.28125 -2.394531 L 1.925781 -2.394531 L 1.925781 -2.015625 L 1.3125 -0.1875 C 1.289062 -0.109375 1.257812 -0.0585938 1.226562 -0.0351562 C 1.195312 -0.0078125 1.15625 0.00390625 1.113281 0.00390625 C 1.058594 0.00390625 1.015625 -0.015625 0.976562 -0.0507812 C 0.941406 -0.0898438 0.921875 -0.132812 0.921875 -0.179688 C 0.921875 -0.207031 0.929688 -0.25 0.949219 -0.308594 Z "/>
</g>
<g id="glyph-0-2">
<path d="M 1.328125 -2.453125 L 1.328125 -0.378906 L 1.710938 -0.378906 C 1.804688 -0.378906 1.867188 -0.363281 1.90625 -0.328125 C 1.945312 -0.292969 1.964844 -0.246094 1.964844 -0.1875 C 1.964844 -0.132812 1.945312 -0.0859375 1.90625 -0.0507812 C 1.867188 -0.015625 1.804688 0 1.710938 0 L 0.566406 0 C 0.476562 0 0.410156 -0.015625 0.371094 -0.0507812 C 0.332031 -0.0859375 0.3125 -0.132812 0.3125 -0.191406 C 0.3125 -0.246094 0.332031 -0.292969 0.371094 -0.328125 C 0.410156 -0.363281 0.476562 -0.378906 0.566406 -0.378906 L 0.949219 -0.378906 L 0.949219 -1.960938 L 0.613281 -1.871094 C 0.558594 -1.855469 0.515625 -1.851562 0.488281 -1.851562 C 0.441406 -1.851562 0.402344 -1.867188 0.367188 -1.90625 C 0.332031 -1.945312 0.3125 -1.992188 0.3125 -2.046875 C 0.3125 -2.097656 0.324219 -2.136719 0.351562 -2.167969 C 0.378906 -2.195312 0.429688 -2.222656 0.515625 -2.242188 Z "/>
</g>
<g id="glyph-0-3">
<path d="M 1.675781 -1.265625 C 1.789062 -1.191406 1.875 -1.101562 1.929688 -1 C 1.984375 -0.902344 2.011719 -0.789062 2.011719 -0.664062 C 2.011719 -0.53125 1.976562 -0.40625 1.902344 -0.292969 C 1.828125 -0.175781 1.722656 -0.0898438 1.582031 -0.03125 C 1.445312 0.0273438 1.261719 0.0546875 1.035156 0.0546875 C 0.742188 0.0546875 0.523438 0.0117188 0.375 -0.0820312 C 0.289062 -0.132812 0.25 -0.195312 0.25 -0.265625 C 0.25 -0.320312 0.269531 -0.367188 0.304688 -0.402344 C 0.339844 -0.441406 0.382812 -0.460938 0.4375 -0.460938 C 0.472656 -0.460938 0.507812 -0.449219 0.546875 -0.421875 C 0.601562 -0.386719 0.652344 -0.363281 0.699219 -0.347656 C 0.773438 -0.332031 0.875 -0.324219 1.007812 -0.324219 C 1.226562 -0.324219 1.386719 -0.351562 1.484375 -0.410156 C 1.582031 -0.46875 1.632812 -0.546875 1.632812 -0.652344 C 1.632812 -0.730469 1.605469 -0.804688 1.546875 -0.878906 C 1.488281 -0.949219 1.414062 -1.003906 1.316406 -1.046875 C 1.261719 -1.066406 1.167969 -1.082031 1.035156 -1.089844 C 0.972656 -1.09375 0.925781 -1.113281 0.890625 -1.148438 C 0.855469 -1.183594 0.839844 -1.226562 0.839844 -1.28125 C 0.839844 -1.335938 0.859375 -1.378906 0.894531 -1.417969 C 0.933594 -1.453125 0.980469 -1.472656 1.035156 -1.472656 C 1.160156 -1.472656 1.230469 -1.472656 1.238281 -1.472656 C 1.285156 -1.480469 1.335938 -1.496094 1.386719 -1.523438 C 1.433594 -1.550781 1.472656 -1.585938 1.503906 -1.632812 C 1.535156 -1.683594 1.550781 -1.730469 1.550781 -1.78125 C 1.550781 -1.863281 1.515625 -1.929688 1.445312 -1.988281 C 1.371094 -2.046875 1.265625 -2.078125 1.125 -2.078125 C 0.941406 -2.078125 0.804688 -2.023438 0.707031 -1.917969 C 0.679688 -1.886719 0.65625 -1.867188 0.636719 -1.859375 C 0.613281 -1.84375 0.582031 -1.839844 0.550781 -1.839844 C 0.5 -1.839844 0.453125 -1.855469 0.417969 -1.894531 C 0.382812 -1.929688 0.363281 -1.976562 0.363281 -2.03125 C 0.363281 -2.117188 0.417969 -2.199219 0.53125 -2.277344 C 0.699219 -2.394531 0.90625 -2.453125 1.152344 -2.453125 C 1.386719 -2.453125 1.574219 -2.386719 1.714844 -2.253906 C 1.859375 -2.121094 1.929688 -1.960938 1.929688 -1.773438 C 1.929688 -1.675781 1.910156 -1.585938 1.867188 -1.5 C 1.824219 -1.417969 1.761719 -1.339844 1.675781 -1.265625 Z "/>
</g>
<g id="glyph-1-0">
<path d="M 1.425781 0 L 0.714844 0 C 0.601562 0 0.542969 -0.0585938 0.542969 -0.175781 L 0.542969 -5.183594 C 0.542969 -5.300781 0.601562 -5.359375 0.714844 -5.359375 L 2.699219 -5.359375 C 3.132812 -5.359375 3.472656 -5.238281 3.714844 -5 C 3.960938 -4.761719 4.082031 -4.425781 4.082031 -3.992188 L 4.082031 -3.339844 C 4.082031 -2.714844 3.835938 -2.296875 3.339844 -2.089844 L 3.339844 -2.058594 L 4.234375 -0.199219 C 4.285156 -0.0664062 4.234375 0 4.089844 0 L 3.417969 0 C 3.316406 0 3.246094 -0.0117188 3.199219 -0.0351562 C 3.15625 -0.0546875 3.121094 -0.101562 3.089844 -0.175781 L 2.257812 -1.976562 L 1.699219 -1.976562 C 1.632812 -1.976562 1.601562 -1.945312 1.601562 -1.882812 L 1.601562 -0.175781 C 1.601562 -0.0585938 1.542969 0 1.425781 0 M 1.691406 -2.824219 L 2.507812 -2.824219 C 2.6875 -2.824219 2.816406 -2.863281 2.898438 -2.9375 C 2.984375 -3.011719 3.023438 -3.132812 3.023438 -3.300781 L 3.023438 -3.949219 C 3.023438 -4.121094 2.984375 -4.246094 2.898438 -4.324219 C 2.816406 -4.402344 2.6875 -4.441406 2.507812 -4.441406 L 1.691406 -4.441406 C 1.628906 -4.441406 1.601562 -4.410156 1.601562 -4.351562 L 1.601562 -2.917969 C 1.601562 -2.855469 1.628906 -2.824219 1.691406 -2.824219 Z "/>
</g>
<g id="glyph-1-1">
<path d="M 3.589844 0 L 1.75 0 C 1.3125 0 0.972656 -0.117188 0.734375 -0.351562 C 0.496094 -0.582031 0.375 -0.917969 0.375 -1.359375 L 0.375 -2.890625 C 0.375 -3.332031 0.496094 -3.667969 0.734375 -3.898438 C 0.972656 -4.132812 1.3125 -4.25 1.75 -4.25 L 2.410156 -4.25 C 2.847656 -4.25 3.1875 -4.132812 3.425781 -3.898438 C 3.664062 -3.667969 3.785156 -3.332031 3.785156 -2.890625 L 3.785156 -1.832031 C 3.785156 -1.714844 3.726562 -1.660156 3.609375 -1.660156 L 1.515625 -1.660156 C 1.449219 -1.660156 1.417969 -1.628906 1.417969 -1.566406 L 1.417969 -1.382812 C 1.417969 -1.210938 1.453125 -1.085938 1.527344 -1.011719 C 1.605469 -0.9375 1.730469 -0.898438 1.910156 -0.898438 L 3.589844 -0.898438 C 3.707031 -0.898438 3.765625 -0.839844 3.765625 -0.714844 L 3.765625 -0.167969 C 3.765625 -0.105469 3.753906 -0.0625 3.730469 -0.0390625 C 3.703125 -0.0117188 3.660156 0 3.589844 0 M 1.515625 -2.367188 L 2.648438 -2.367188 C 2.710938 -2.367188 2.742188 -2.398438 2.742188 -2.457031 L 2.742188 -2.859375 C 2.742188 -3.035156 2.707031 -3.160156 2.632812 -3.234375 C 2.5625 -3.304688 2.4375 -3.339844 2.257812 -3.339844 L 1.910156 -3.339844 C 1.730469 -3.339844 1.605469 -3.304688 1.535156 -3.234375 C 1.460938 -3.160156 1.425781 -3.035156 1.425781 -2.859375 L 1.425781 -2.457031 C 1.425781 -2.398438 1.457031 -2.367188 1.515625 -2.367188 Z "/>
</g>
<g id="glyph-1-2">
<path d="M 2.066406 0 L 0.484375 0 C 0.371094 0 0.316406 -0.0585938 0.316406 -0.175781 L 0.316406 -0.707031 C 0.316406 -0.769531 0.328125 -0.8125 0.351562 -0.835938 C 0.371094 -0.863281 0.417969 -0.875 0.484375 -0.875 L 1.875 -0.875 C 2.148438 -0.875 2.285156 -0.957031 2.285156 -1.125 L 2.285156 -1.167969 C 2.285156 -1.300781 2.167969 -1.429688 1.941406 -1.550781 L 1.117188 -2.007812 C 0.832031 -2.152344 0.625 -2.308594 0.492188 -2.476562 C 0.359375 -2.640625 0.292969 -2.855469 0.292969 -3.117188 C 0.292969 -3.503906 0.394531 -3.792969 0.601562 -3.976562 C 0.804688 -4.160156 1.128906 -4.25 1.566406 -4.25 L 2.957031 -4.25 C 3.070312 -4.25 3.125 -4.191406 3.125 -4.074219 L 3.125 -3.535156 C 3.125 -3.472656 3.113281 -3.429688 3.089844 -3.402344 C 3.070312 -3.378906 3.023438 -3.367188 2.957031 -3.367188 L 1.800781 -3.367188 C 1.527344 -3.367188 1.390625 -3.296875 1.390625 -3.160156 L 1.390625 -3.117188 C 1.390625 -2.996094 1.511719 -2.871094 1.75 -2.742188 L 2.589844 -2.242188 C 2.878906 -2.085938 3.082031 -1.925781 3.199219 -1.761719 C 3.316406 -1.597656 3.375 -1.382812 3.375 -1.117188 C 3.375 -0.371094 2.9375 0 2.066406 0 Z "/>
</g>
<g id="glyph-1-3">
<path d="M 1.992188 0 L 1.714844 0 C 1.289062 0 0.964844 -0.117188 0.746094 -0.351562 C 0.527344 -0.582031 0.417969 -0.917969 0.417969 -1.359375 L 0.417969 -4.074219 C 0.417969 -4.191406 0.476562 -4.25 0.589844 -4.25 L 1.300781 -4.25 C 1.417969 -4.25 1.476562 -4.191406 1.476562 -4.074219 L 1.476562 -1.410156 C 1.476562 -1.230469 1.511719 -1.105469 1.585938 -1.027344 C 1.664062 -0.953125 1.785156 -0.917969 1.957031 -0.917969 L 2.265625 -0.917969 C 2.648438 -0.917969 2.839844 -1.128906 2.839844 -1.550781 L 2.839844 -4.074219 C 2.839844 -4.191406 2.898438 -4.25 3.015625 -4.25 L 3.714844 -4.25 C 3.839844 -4.25 3.898438 -4.191406 3.898438 -4.074219 L 3.898438 -0.175781 C 3.898438 -0.0585938 3.839844 0 3.714844 0 L 3.015625 0 C 2.898438 0 2.839844 -0.0585938 2.839844 -0.175781 L 2.839844 -0.449219 L 2.808594 -0.449219 C 2.746094 -0.300781 2.640625 -0.1875 2.484375 -0.113281 C 2.328125 -0.0390625 2.164062 0 1.992188 0 Z "/>
</g>
<g id="glyph-1-4">
<path d="M 1.382812 0 L 0.675781 0 C 0.558594 0 0.5 -0.0585938 0.5 -0.175781 L 0.5 -5.683594 C 0.5 -5.800781 0.558594 -5.859375 0.675781 -5.859375 L 1.382812 -5.859375 C 1.5 -5.859375 1.558594 -5.800781 1.558594 -5.683594 L 1.558594 -0.175781 C 1.558594 -0.0585938 1.5 0 1.382812 0 Z "/>
</g>
<g id="glyph-1-5">
<path d="M 0.550781 -3.332031 L 0.214844 -3.332031 C 0.148438 -3.332031 0.105469 -3.34375 0.078125 -3.367188 C 0.0546875 -3.390625 0.0429688 -3.433594 0.0429688 -3.5 L 0.0429688 -4.074219 C 0.0429688 -4.191406 0.101562 -4.25 0.214844 -4.25 L 0.550781 -4.25 C 0.609375 -4.25 0.640625 -4.28125 0.640625 -4.339844 L 0.640625 -5.132812 C 0.640625 -5.25 0.703125 -5.308594 0.824219 -5.308594 L 1.523438 -5.308594 C 1.640625 -5.308594 1.699219 -5.25 1.699219 -5.132812 L 1.699219 -4.339844 C 1.699219 -4.28125 1.734375 -4.25 1.800781 -4.25 L 2.449219 -4.25 C 2.566406 -4.25 2.625 -4.191406 2.625 -4.074219 L 2.625 -3.5 C 2.625 -3.4375 2.613281 -3.394531 2.585938 -3.371094 C 2.5625 -3.347656 2.515625 -3.332031 2.449219 -3.332031 L 1.800781 -3.332031 C 1.734375 -3.332031 1.699219 -3.304688 1.699219 -3.242188 L 1.699219 -1.398438 C 1.699219 -1.226562 1.738281 -1.105469 1.816406 -1.027344 C 1.894531 -0.953125 2.023438 -0.917969 2.199219 -0.917969 L 2.535156 -0.917969 C 2.648438 -0.917969 2.707031 -0.859375 2.707031 -0.742188 L 2.707031 -0.167969 C 2.707031 -0.105469 2.695312 -0.0625 2.671875 -0.0390625 C 2.644531 -0.0117188 2.601562 0 2.535156 0 L 2.023438 0 C 1.585938 0 1.246094 -0.117188 1.003906 -0.351562 C 0.761719 -0.582031 0.640625 -0.917969 0.640625 -1.351562 L 0.640625 -3.242188 C 0.640625 -3.304688 0.609375 -3.332031 0.550781 -3.332031 Z "/>
</g>
<g id="glyph-1-6">
<path d="M 2.492188 0 L 1.75 0 C 1.3125 0 0.972656 -0.117188 0.734375 -0.351562 C 0.496094 -0.582031 0.375 -0.917969 0.375 -1.359375 L 0.375 -2.890625 C 0.375 -3.332031 0.496094 -3.667969 0.734375 -3.898438 C 0.972656 -4.132812 1.3125 -4.25 1.75 -4.25 L 2.492188 -4.25 C 2.925781 -4.25 3.261719 -4.132812 3.503906 -3.894531 C 3.746094 -3.660156 3.867188 -3.324219 3.867188 -2.890625 L 3.867188 -1.359375 C 3.867188 -0.925781 3.746094 -0.589844 3.503906 -0.355469 C 3.261719 -0.117188 2.925781 0 2.492188 0 M 1.910156 -0.910156 L 2.332031 -0.910156 C 2.511719 -0.910156 2.636719 -0.945312 2.710938 -1.015625 C 2.789062 -1.089844 2.824219 -1.214844 2.824219 -1.390625 L 2.824219 -2.859375 C 2.824219 -3.035156 2.789062 -3.160156 2.710938 -3.234375 C 2.636719 -3.304688 2.511719 -3.339844 2.332031 -3.339844 L 1.910156 -3.339844 C 1.730469 -3.339844 1.605469 -3.304688 1.535156 -3.234375 C 1.460938 -3.160156 1.425781 -3.035156 1.425781 -2.859375 L 1.425781 -1.390625 C 1.425781 -1.214844 1.460938 -1.089844 1.535156 -1.015625 C 1.605469 -0.945312 1.730469 -0.910156 1.910156 -0.910156 Z "/>
</g>
<g id="glyph-1-7">
</g>
<g id="glyph-1-8">
<path d="M 1.339844 0 L 0.632812 0 C 0.515625 0 0.457031 -0.0585938 0.457031 -0.175781 L 0.457031 -4.074219 C 0.457031 -4.191406 0.515625 -4.25 0.632812 -4.25 L 1.339844 -4.25 C 1.457031 -4.25 1.515625 -4.191406 1.515625 -4.074219 L 1.515625 -3.800781 L 1.550781 -3.800781 C 1.671875 -4.101562 1.945312 -4.25 2.367188 -4.25 L 2.632812 -4.25 C 3.503906 -4.25 3.941406 -3.796875 3.941406 -2.890625 L 3.941406 -0.175781 C 3.941406 -0.0585938 3.878906 0 3.757812 0 L 3.058594 0 C 2.941406 0 2.882812 -0.0585938 2.882812 -0.175781 L 2.882812 -2.839844 C 2.882812 -3.019531 2.847656 -3.144531 2.769531 -3.222656 C 2.695312 -3.296875 2.570312 -3.332031 2.390625 -3.332031 L 2.089844 -3.332031 C 1.707031 -3.332031 1.515625 -3.121094 1.515625 -2.699219 L 1.515625 -0.175781 C 1.515625 -0.0585938 1.457031 0 1.339844 0 Z "/>
</g>
<g id="glyph-1-9">
<path d="M 1.957031 -0.191406 L 1.683594 -0.191406 C 1.253906 -0.191406 0.933594 -0.308594 0.710938 -0.542969 C 0.492188 -0.773438 0.382812 -1.109375 0.382812 -1.550781 L 0.382812 -2.890625 C 0.382812 -3.332031 0.503906 -3.667969 0.742188 -3.898438 C 0.980469 -4.132812 1.320312 -4.25 1.757812 -4.25 L 3.683594 -4.25 C 3.804688 -4.25 3.867188 -4.191406 3.867188 -4.074219 L 3.867188 0.0351562 C 3.867188 0.464844 3.746094 0.800781 3.503906 1.035156 C 3.261719 1.265625 2.925781 1.382812 2.492188 1.382812 L 0.890625 1.382812 C 0.824219 1.382812 0.777344 1.371094 0.753906 1.347656 C 0.730469 1.320312 0.714844 1.277344 0.714844 1.214844 L 0.714844 0.640625 C 0.714844 0.523438 0.773438 0.464844 0.890625 0.464844 L 2.316406 0.464844 C 2.496094 0.464844 2.621094 0.429688 2.695312 0.355469 C 2.769531 0.277344 2.808594 0.15625 2.808594 -0.015625 L 2.808594 -0.648438 L 2.773438 -0.648438 C 2.714844 -0.5 2.605469 -0.386719 2.449219 -0.308594 C 2.292969 -0.230469 2.128906 -0.191406 1.957031 -0.191406 M 2.808594 -1.742188 L 2.808594 -3.242188 C 2.808594 -3.304688 2.773438 -3.332031 2.707031 -3.332031 L 1.925781 -3.332031 C 1.746094 -3.332031 1.621094 -3.296875 1.550781 -3.222656 C 1.476562 -3.144531 1.441406 -3.019531 1.441406 -2.839844 L 1.441406 -1.601562 C 1.441406 -1.421875 1.476562 -1.296875 1.550781 -1.226562 C 1.621094 -1.152344 1.746094 -1.117188 1.925781 -1.117188 L 2.234375 -1.117188 C 2.617188 -1.117188 2.808594 -1.324219 2.808594 -1.742188 Z "/>
</g>
<g id="glyph-1-10">
<path d="M 2.015625 0 L 1.675781 0 C 1.246094 0 0.921875 -0.117188 0.703125 -0.351562 C 0.484375 -0.582031 0.375 -0.917969 0.375 -1.359375 L 0.375 -2.890625 C 0.375 -3.332031 0.484375 -3.667969 0.703125 -3.898438 C 0.921875 -4.132812 1.246094 -4.25 1.675781 -4.25 L 2.015625 -4.25 C 2.1875 -4.25 2.351562 -4.210938 2.507812 -4.136719 C 2.664062 -4.0625 2.773438 -3.949219 2.832031 -3.800781 L 2.867188 -3.800781 L 2.867188 -5.683594 C 2.867188 -5.800781 2.925781 -5.859375 3.042969 -5.859375 L 3.75 -5.859375 C 3.867188 -5.859375 3.925781 -5.800781 3.925781 -5.683594 L 3.925781 -0.175781 C 3.925781 -0.0585938 3.867188 0 3.75 0 L 3.042969 0 C 2.925781 0 2.867188 -0.0585938 2.867188 -0.175781 L 2.867188 -0.449219 L 2.832031 -0.449219 C 2.773438 -0.300781 2.664062 -0.1875 2.507812 -0.113281 C 2.351562 -0.0390625 2.1875 0 2.015625 0 M 2.867188 -1.550781 L 2.867188 -2.699219 C 2.867188 -3.121094 2.675781 -3.332031 2.292969 -3.332031 L 1.917969 -3.332031 C 1.738281 -3.332031 1.613281 -3.296875 1.542969 -3.222656 C 1.46875 -3.144531 1.433594 -3.019531 1.433594 -2.839844 L 1.433594 -1.410156 C 1.433594 -1.230469 1.46875 -1.105469 1.542969 -1.027344 C 1.613281 -0.953125 1.738281 -0.917969 1.917969 -0.917969 L 2.292969 -0.917969 C 2.675781 -0.917969 2.867188 -1.128906 2.867188 -1.550781 Z "/>
</g>
</g>
</defs>
<path fill="none" stroke-width="0.247287" stroke-linecap="butt" stroke-linejoin="miter" stroke="rgb(100%, 100%, 100%)" stroke-opacity="1" stroke-miterlimit="2" d="M 106.617188 20.398438 L 116.496094 20.398438 L 116.496094 30.40625 L 106.617188 30.40625 Z "/>
<g fill="rgb(100%, 100%, 100%)" fill-opacity="1">
<use xlink:href="#glyph-0-0" x="106.988281" y="25.277344"/>
</g>
<g fill="rgb(100%, 100%, 100%)" fill-opacity="1">
<use xlink:href="#glyph-0-1" x="111.683594" y="25.277344"/>
</g>
<g fill="rgb(100%, 100%, 100%)" fill-opacity="1">
<use xlink:href="#glyph-0-2" x="106.988281" y="30.035156"/>
</g>
<g fill="rgb(100%, 100%, 100%)" fill-opacity="1">
<use xlink:href="#glyph-0-3" x="111.683594" y="30.035156"/>
</g>
<g fill="rgb(100%, 100%, 100%)" fill-opacity="1">
<use xlink:href="#glyph-1-0" x="30" y="27.75"/>
<use xlink:href="#glyph-1-1" x="35" y="27.75"/>
<use xlink:href="#glyph-1-2" x="39" y="27.75"/>
<use xlink:href="#glyph-1-3" x="43" y="27.75"/>
<use xlink:href="#glyph-1-1" x="47" y="27.75"/>
<use xlink:href="#glyph-1-4" x="51" y="27.75"/>
<use xlink:href="#glyph-1-5" x="53" y="27.75"/>
<use xlink:href="#glyph-1-6" x="56" y="27.75"/>
<use xlink:href="#glyph-1-7" x="60" y="27.75"/>
<use xlink:href="#glyph-1-1" x="62" y="27.75"/>
<use xlink:href="#glyph-1-8" x="66" y="27.75"/>
<use xlink:href="#glyph-1-7" x="70" y="27.75"/>
<use xlink:href="#glyph-1-2" x="72" y="27.75"/>
<use xlink:href="#glyph-1-1" x="76" y="27.75"/>
<use xlink:href="#glyph-1-9" x="80" y="27.75"/>
<use xlink:href="#glyph-1-3" x="84" y="27.75"/>
<use xlink:href="#glyph-1-8" x="88" y="27.75"/>
<use xlink:href="#glyph-1-10" x="92" y="27.75"/>
<use xlink:href="#glyph-1-6" x="96" y="27.75"/>
<use xlink:href="#glyph-1-2" x="100" y="27.75"/>
<use xlink:href="#glyph-1-7" x="104" y="27.75"/>
</g>
</svg>
