<?xml version="1.0" encoding="UTF-8"?>
<svg xmlns="http://www.w3.org/2000/svg" xmlns:xlink="http://www.w3.org/1999/xlink" width="1080" height="1920" viewBox="0 0 1080 1920">
<defs>
<g>
<g id="glyph-0-0">
<path d="M 4.859375 -7.21875 C 4.859375 -6.929688 4.75 -6.679688 4.53125 -6.46875 C 4.3125 -6.257812 4.054688 -6.152344 3.757812 -6.152344 C 3.46875 -6.152344 3.210938 -6.257812 2.992188 -6.46875 C 2.773438 -6.679688 2.664062 -6.929688 2.664062 -7.21875 C 2.664062 -7.507812 2.773438 -7.753906 2.992188 -7.960938 C 3.210938 -8.167969 3.46875 -8.273438 3.757812 -8.273438 C 4.054688 -8.273438 4.3125 -8.167969 4.53125 -7.960938 C 4.75 -7.753906 4.859375 -7.507812 4.859375 -7.21875 M 5.953125 -1.402344 C 5.953125 -0.964844 5.703125 -0.59375 5.207031 -0.289062 C 4.710938 0.0117188 4.109375 0.164062 3.40625 0.164062 C 2.570312 0.164062 1.898438 -0.0546875 1.382812 -0.488281 C 0.871094 -0.925781 0.613281 -1.496094 0.617188 -2.199219 C 0.613281 -2.9375 0.863281 -3.542969 1.363281 -4.023438 C 1.863281 -4.5 2.574219 -4.785156 3.496094 -4.871094 L 3.53125 -5.644531 L 4.039062 -5.644531 L 4.039062 -3.429688 C 3.507812 -3.378906 3.082031 -3.210938 2.761719 -2.917969 C 2.4375 -2.625 2.277344 -2.210938 2.277344 -1.675781 C 2.277344 -1.257812 2.390625 -0.925781 2.609375 -0.679688 C 2.828125 -0.429688 3.121094 -0.308594 3.484375 -0.308594 C 3.632812 -0.308594 3.777344 -0.324219 3.914062 -0.363281 C 4.050781 -0.398438 4.164062 -0.445312 4.253906 -0.507812 C 4.214844 -0.632812 4.167969 -0.785156 4.117188 -0.960938 C 4.070312 -1.140625 4.042969 -1.324219 4.042969 -1.507812 C 4.042969 -1.777344 4.132812 -1.980469 4.304688 -2.128906 C 4.476562 -2.273438 4.714844 -2.347656 5.023438 -2.347656 C 5.3125 -2.347656 5.539062 -2.257812 5.707031 -2.074219 C 5.871094 -1.890625 5.953125 -1.667969 5.953125 -1.402344 Z "/>
</g>
<g id="glyph-0-1">
<path d="M 7.96875 -6.0625 C 7.96875 -5.605469 7.875 -5.214844 7.6875 -4.886719 C 7.5 -4.554688 7.242188 -4.289062 6.910156 -4.085938 C 6.566406 -3.871094 6.179688 -3.71875 5.738281 -3.625 C 5.300781 -3.527344 4.808594 -3.480469 4.261719 -3.480469 L 3.601562 -3.480469 L 3.601562 -1.207031 C 3.601562 -1.070312 3.625 -0.953125 3.675781 -0.851562 C 3.726562 -0.75 3.828125 -0.671875 3.96875 -0.609375 C 4.046875 -0.578125 4.171875 -0.546875 4.339844 -0.511719 C 4.511719 -0.476562 4.65625 -0.457031 4.773438 -0.445312 L 4.773438 0 L 0.394531 0 L 0.394531 -0.445312 C 0.503906 -0.457031 0.648438 -0.472656 0.832031 -0.492188 C 1.015625 -0.511719 1.140625 -0.539062 1.214844 -0.570312 C 1.363281 -0.628906 1.460938 -0.703125 1.507812 -0.792969 C 1.554688 -0.878906 1.578125 -1 1.578125 -1.15625 L 1.578125 -6.859375 C 1.578125 -6.992188 1.554688 -7.105469 1.507812 -7.203125 C 1.464844 -7.300781 1.367188 -7.382812 1.214844 -7.445312 C 1.105469 -7.492188 0.964844 -7.53125 0.789062 -7.566406 C 0.613281 -7.605469 0.480469 -7.628906 0.394531 -7.640625 L 0.394531 -8.082031 L 4.851562 -8.082031 C 5.898438 -8.082031 6.679688 -7.917969 7.195312 -7.585938 C 7.710938 -7.253906 7.96875 -6.746094 7.96875 -6.0625 M 5.746094 -5.769531 C 5.746094 -6.378906 5.625 -6.828125 5.378906 -7.125 C 5.136719 -7.417969 4.699219 -7.566406 4.074219 -7.566406 L 3.601562 -7.566406 L 3.601562 -4.015625 L 3.839844 -4.015625 C 4.460938 -4.015625 4.9375 -4.160156 5.261719 -4.445312 C 5.585938 -4.734375 5.746094 -5.175781 5.746094 -5.769531 Z "/>
</g>
<g id="glyph-0-2">
<path d="M 4.84375 0 L 0.359375 0 L 0.359375 -0.445312 C 0.460938 -0.453125 0.613281 -0.464844 0.8125 -0.476562 C 1.011719 -0.492188 1.148438 -0.515625 1.226562 -0.546875 C 1.367188 -0.605469 1.460938 -0.679688 1.511719 -0.773438 C 1.5625 -0.863281 1.589844 -0.984375 1.589844 -1.128906 L 1.589844 -6.859375 C 1.589844 -6.988281 1.566406 -7.101562 1.515625 -7.199219 C 1.464844 -7.300781 1.367188 -7.378906 1.226562 -7.441406 C 1.132812 -7.476562 1 -7.515625 0.820312 -7.554688 C 0.640625 -7.597656 0.488281 -7.625 0.359375 -7.640625 L 0.359375 -8.082031 L 4.84375 -8.082031 L 4.84375 -7.640625 C 4.726562 -7.628906 4.585938 -7.613281 4.414062 -7.589844 C 4.242188 -7.570312 4.101562 -7.539062 3.980469 -7.503906 C 3.832031 -7.453125 3.734375 -7.375 3.6875 -7.273438 C 3.636719 -7.167969 3.613281 -7.046875 3.613281 -6.914062 L 3.613281 -1.191406 C 3.613281 -1.054688 3.636719 -0.9375 3.6875 -0.839844 C 3.738281 -0.742188 3.835938 -0.664062 3.980469 -0.605469 C 4.0625 -0.570312 4.195312 -0.535156 4.378906 -0.503906 C 4.5625 -0.472656 4.71875 -0.453125 4.84375 -0.445312 Z "/>
</g>
<g id="glyph-0-3">
<path d="M 7.558594 -6.019531 L 7.125 -6.019531 C 7.015625 -6.328125 6.828125 -6.636719 6.558594 -6.953125 C 6.289062 -7.265625 6.019531 -7.453125 5.753906 -7.507812 C 5.640625 -7.535156 5.480469 -7.550781 5.277344 -7.554688 C 5.074219 -7.5625 4.90625 -7.566406 4.773438 -7.566406 L 3.601562 -7.566406 L 3.601562 -4.449219 L 4.433594 -4.449219 C 4.640625 -4.449219 4.832031 -4.472656 5 -4.523438 C 5.171875 -4.574219 5.328125 -4.667969 5.46875 -4.808594 C 5.554688 -4.894531 5.644531 -5.050781 5.734375 -5.269531 C 5.824219 -5.488281 5.878906 -5.679688 5.90625 -5.84375 L 6.339844 -5.84375 L 6.339844 -2.472656 L 5.90625 -2.472656 C 5.882812 -2.632812 5.828125 -2.832031 5.734375 -3.074219 C 5.640625 -3.316406 5.550781 -3.480469 5.46875 -3.570312 C 5.34375 -3.707031 5.195312 -3.800781 5.023438 -3.855469 C 4.851562 -3.90625 4.65625 -3.929688 4.433594 -3.929688 L 3.601562 -3.929688 L 3.601562 -1.601562 C 3.601562 -1.359375 3.617188 -1.164062 3.65625 -1.023438 C 3.691406 -0.878906 3.757812 -0.769531 3.855469 -0.695312 C 3.953125 -0.621094 4.082031 -0.574219 4.246094 -0.550781 C 4.410156 -0.53125 4.636719 -0.519531 4.921875 -0.519531 C 5.054688 -0.519531 5.214844 -0.519531 5.398438 -0.523438 C 5.585938 -0.527344 5.75 -0.539062 5.890625 -0.558594 C 6.050781 -0.578125 6.199219 -0.605469 6.335938 -0.644531 C 6.476562 -0.683594 6.578125 -0.738281 6.648438 -0.808594 C 6.832031 -0.996094 7.035156 -1.277344 7.261719 -1.660156 C 7.492188 -2.042969 7.640625 -2.328125 7.714844 -2.519531 L 8.128906 -2.519531 L 7.976562 0 L 0.394531 0 L 0.394531 -0.445312 C 0.5 -0.453125 0.644531 -0.46875 0.824219 -0.488281 C 1.007812 -0.511719 1.136719 -0.539062 1.214844 -0.570312 C 1.359375 -0.628906 1.453125 -0.707031 1.503906 -0.800781 C 1.554688 -0.894531 1.578125 -1.011719 1.578125 -1.15625 L 1.578125 -6.859375 C 1.578125 -6.996094 1.558594 -7.109375 1.515625 -7.199219 C 1.472656 -7.285156 1.371094 -7.367188 1.214844 -7.441406 C 1.113281 -7.484375 0.976562 -7.527344 0.796875 -7.566406 C 0.617188 -7.601562 0.484375 -7.628906 0.394531 -7.640625 L 0.394531 -8.082031 L 7.558594 -8.082031 Z "/>
</g>
<g id="glyph-0-4">
<path d="M 9.671875 0 L 6.570312 0 C 6.035156 -0.820312 5.589844 -1.472656 5.234375 -1.960938 C 4.882812 -2.445312 4.441406 -3.007812 3.914062 -3.644531 L 3.601562 -3.644531 L 3.601562 -1.191406 C 3.601562 -1.054688 3.625 -0.9375 3.675781 -0.84375 C 3.726562 -0.75 3.828125 -0.667969 3.96875 -0.605469 C 4.042969 -0.574219 4.15625 -0.542969 4.308594 -0.511719 C 4.464844 -0.476562 4.59375 -0.457031 4.707031 -0.445312 L 4.707031 0 L 0.394531 0 L 0.394531 -0.445312 C 0.503906 -0.457031 0.648438 -0.472656 0.828125 -0.492188 C 1.007812 -0.511719 1.136719 -0.539062 1.214844 -0.570312 C 1.359375 -0.628906 1.453125 -0.707031 1.503906 -0.800781 C 1.554688 -0.894531 1.578125 -1.011719 1.578125 -1.15625 L 1.578125 -6.859375 C 1.578125 -6.996094 1.558594 -7.109375 1.515625 -7.199219 C 1.472656 -7.292969 1.371094 -7.371094 1.214844 -7.441406 C 1.09375 -7.488281 0.949219 -7.53125 0.785156 -7.566406 C 0.617188 -7.597656 0.488281 -7.625 0.394531 -7.640625 L 0.394531 -8.082031 L 4.925781 -8.082031 C 5.941406 -8.082031 6.710938 -7.925781 7.238281 -7.609375 C 7.761719 -7.289062 8.027344 -6.8125 8.027344 -6.167969 C 8.027344 -5.605469 7.863281 -5.148438 7.539062 -4.804688 C 7.214844 -4.460938 6.71875 -4.191406 6.054688 -4 C 6.3125 -3.664062 6.613281 -3.277344 6.957031 -2.835938 C 7.300781 -2.394531 7.660156 -1.945312 8.03125 -1.488281 C 8.148438 -1.339844 8.308594 -1.15625 8.511719 -0.941406 C 8.714844 -0.726562 8.894531 -0.597656 9.050781 -0.546875 C 9.140625 -0.519531 9.25 -0.496094 9.386719 -0.476562 C 9.519531 -0.460938 9.617188 -0.449219 9.671875 -0.445312 L 9.671875 0 M 5.792969 -6.011719 C 5.792969 -6.550781 5.640625 -6.941406 5.339844 -7.191406 C 5.039062 -7.441406 4.609375 -7.566406 4.050781 -7.566406 L 3.601562 -7.566406 L 3.601562 -4.179688 L 4.03125 -4.179688 C 4.589844 -4.179688 5.023438 -4.328125 5.332031 -4.621094 C 5.640625 -4.914062 5.792969 -5.375 5.792969 -6.011719 Z "/>
</g>
<g id="glyph-0-5">
<path d="M 7.671875 -7.25 C 8.167969 -6.929688 8.566406 -6.5 8.871094 -5.960938 C 9.171875 -5.425781 9.324219 -4.765625 9.324219 -3.988281 C 9.324219 -3.304688 9.191406 -2.707031 8.917969 -2.203125 C 8.648438 -1.695312 8.285156 -1.28125 7.839844 -0.957031 C 7.382812 -0.632812 6.867188 -0.394531 6.285156 -0.238281 C 5.707031 -0.078125 5.101562 0 4.464844 0 L 0.394531 0 L 0.394531 -0.445312 C 0.515625 -0.449219 0.667969 -0.460938 0.847656 -0.476562 C 1.03125 -0.496094 1.152344 -0.519531 1.214844 -0.546875 C 1.351562 -0.605469 1.445312 -0.679688 1.5 -0.777344 C 1.550781 -0.875 1.578125 -0.992188 1.578125 -1.128906 L 1.578125 -6.859375 C 1.578125 -6.988281 1.554688 -7.105469 1.503906 -7.210938 C 1.453125 -7.3125 1.359375 -7.398438 1.214844 -7.460938 C 1.070312 -7.527344 0.917969 -7.570312 0.753906 -7.59375 C 0.59375 -7.617188 0.46875 -7.632812 0.382812 -7.640625 L 0.382812 -8.082031 L 4.683594 -8.082031 C 5.140625 -8.082031 5.632812 -8.023438 6.15625 -7.90625 C 6.683594 -7.789062 7.1875 -7.570312 7.671875 -7.25 M 6.511719 -1.457031 C 6.699219 -1.761719 6.832031 -2.125 6.917969 -2.542969 C 7.003906 -2.964844 7.046875 -3.445312 7.046875 -3.992188 C 7.046875 -4.527344 6.988281 -5.015625 6.875 -5.457031 C 6.761719 -5.898438 6.59375 -6.273438 6.375 -6.585938 C 6.152344 -6.898438 5.878906 -7.136719 5.550781 -7.308594 C 5.222656 -7.480469 4.851562 -7.566406 4.433594 -7.566406 C 4.300781 -7.566406 4.148438 -7.5625 3.980469 -7.554688 C 3.808594 -7.550781 3.683594 -7.546875 3.601562 -7.542969 L 3.601562 -1.40625 C 3.601562 -1.269531 3.617188 -1.148438 3.65625 -1.046875 C 3.691406 -0.941406 3.753906 -0.847656 3.839844 -0.769531 C 3.925781 -0.6875 4.035156 -0.628906 4.160156 -0.582031 C 4.289062 -0.539062 4.453125 -0.519531 4.660156 -0.519531 C 5.089844 -0.519531 5.457031 -0.597656 5.765625 -0.757812 C 6.074219 -0.917969 6.320312 -1.152344 6.511719 -1.457031 Z "/>
</g>
<g id="glyph-0-6">
<path d="M 3.78125 0.222656 C 3.289062 0.222656 2.828125 0.160156 2.402344 0.0351562 C 1.972656 -0.0859375 1.613281 -0.230469 1.316406 -0.398438 L 0.921875 0 L 0.4375 0 L 0.363281 -2.921875 L 0.855469 -2.921875 C 0.964844 -2.644531 1.105469 -2.351562 1.277344 -2.042969 C 1.445312 -1.734375 1.644531 -1.457031 1.867188 -1.214844 C 2.101562 -0.960938 2.359375 -0.753906 2.644531 -0.59375 C 2.933594 -0.433594 3.269531 -0.351562 3.652344 -0.351562 C 4.167969 -0.351562 4.5625 -0.480469 4.839844 -0.730469 C 5.113281 -0.984375 5.253906 -1.304688 5.253906 -1.6875 C 5.253906 -2.003906 5.136719 -2.269531 4.902344 -2.484375 C 4.667969 -2.699219 4.304688 -2.882812 3.816406 -3.039062 C 3.496094 -3.140625 3.203125 -3.238281 2.9375 -3.324219 C 2.667969 -3.414062 2.417969 -3.503906 2.183594 -3.59375 C 1.640625 -3.8125 1.234375 -4.121094 0.972656 -4.523438 C 0.707031 -4.925781 0.574219 -5.378906 0.574219 -5.875 C 0.574219 -6.191406 0.644531 -6.496094 0.78125 -6.785156 C 0.917969 -7.078125 1.117188 -7.339844 1.378906 -7.570312 C 1.628906 -7.785156 1.949219 -7.964844 2.339844 -8.101562 C 2.734375 -8.238281 3.15625 -8.304688 3.617188 -8.304688 C 4.066406 -8.304688 4.484375 -8.242188 4.875 -8.117188 C 5.265625 -7.992188 5.574219 -7.867188 5.800781 -7.742188 L 6.148438 -8.082031 L 6.640625 -8.082031 L 6.6875 -5.328125 L 6.199219 -5.328125 C 6.085938 -5.625 5.949219 -5.925781 5.796875 -6.238281 C 5.640625 -6.546875 5.480469 -6.804688 5.308594 -7.011719 C 5.125 -7.230469 4.910156 -7.40625 4.664062 -7.539062 C 4.421875 -7.671875 4.136719 -7.734375 3.8125 -7.734375 C 3.402344 -7.734375 3.066406 -7.621094 2.804688 -7.386719 C 2.546875 -7.15625 2.414062 -6.867188 2.414062 -6.527344 C 2.414062 -6.203125 2.527344 -5.9375 2.753906 -5.734375 C 2.980469 -5.527344 3.332031 -5.347656 3.8125 -5.191406 C 4.09375 -5.097656 4.378906 -5 4.671875 -4.90625 C 4.964844 -4.8125 5.222656 -4.71875 5.453125 -4.632812 C 6.003906 -4.417969 6.421875 -4.125 6.707031 -3.75 C 6.996094 -3.375 7.136719 -2.910156 7.136719 -2.355469 C 7.136719 -2.007812 7.054688 -1.667969 6.894531 -1.339844 C 6.730469 -1.015625 6.507812 -0.742188 6.230469 -0.523438 C 5.929688 -0.285156 5.578125 -0.101562 5.179688 0.0273438 C 4.78125 0.15625 4.3125 0.222656 3.78125 0.222656 Z "/>
</g>
<g id="glyph-0-7">
</g>
<g id="glyph-0-8">
<path d="M 9.125 -7.628906 C 9 -7.617188 8.882812 -7.59375 8.765625 -7.558594 C 8.652344 -7.523438 8.535156 -7.472656 8.414062 -7.398438 C 8.25 -7.304688 8.125 -7.203125 8.035156 -7.09375 C 7.945312 -6.988281 7.859375 -6.835938 7.769531 -6.648438 C 7.652344 -6.386719 7.488281 -6.003906 7.273438 -5.5 C 7.0625 -4.996094 6.820312 -4.425781 6.546875 -3.78125 C 6.300781 -3.207031 6.039062 -2.574219 5.757812 -1.886719 C 5.472656 -1.199219 5.203125 -0.539062 4.945312 0.0898438 L 3.800781 0.0898438 C 3.269531 -1.210938 2.726562 -2.535156 2.175781 -3.878906 C 1.625 -5.222656 1.238281 -6.15625 1.015625 -6.683594 C 0.925781 -6.871094 0.84375 -7.015625 0.761719 -7.113281 C 0.679688 -7.210938 0.546875 -7.308594 0.371094 -7.410156 C 0.242188 -7.484375 0.128906 -7.535156 0.0273438 -7.5625 C -0.0703125 -7.589844 -0.203125 -7.617188 -0.363281 -7.640625 L -0.363281 -8.082031 L 4.015625 -8.082031 L 4.015625 -7.652344 C 3.605469 -7.601562 3.328125 -7.550781 3.183594 -7.492188 C 3.035156 -7.4375 2.960938 -7.371094 2.960938 -7.285156 C 2.960938 -7.246094 2.96875 -7.199219 2.984375 -7.152344 C 2.996094 -7.105469 3.015625 -7.039062 3.042969 -6.960938 C 3.164062 -6.628906 3.382812 -6.082031 3.703125 -5.324219 C 4.023438 -4.566406 4.496094 -3.414062 5.121094 -1.863281 C 5.503906 -2.804688 5.824219 -3.605469 6.078125 -4.257812 C 6.332031 -4.910156 6.554688 -5.488281 6.75 -5.988281 C 6.84375 -6.230469 6.925781 -6.457031 6.988281 -6.667969 C 7.050781 -6.878906 7.082031 -7.039062 7.082031 -7.144531 C 7.082031 -7.265625 6.992188 -7.367188 6.820312 -7.449219 C 6.644531 -7.53125 6.320312 -7.589844 5.851562 -7.628906 L 5.851562 -8.082031 L 9.125 -8.082031 Z "/>
</g>
<g id="glyph-0-9">
<path d="M 9.679688 -7.640625 C 9.570312 -7.628906 9.421875 -7.605469 9.222656 -7.578125 C 9.023438 -7.546875 8.847656 -7.472656 8.6875 -7.355469 C 8.546875 -7.25 8.445312 -7.074219 8.386719 -6.828125 C 8.328125 -6.578125 8.300781 -6.214844 8.300781 -5.730469 L 8.300781 0.046875 L 7.285156 0.046875 L 2.25 -6.203125 L 2.25 -2.410156 C 2.25 -1.9375 2.28125 -1.582031 2.34375 -1.335938 C 2.40625 -1.089844 2.507812 -0.910156 2.648438 -0.796875 C 2.75 -0.714844 2.914062 -0.640625 3.140625 -0.574219 C 3.363281 -0.511719 3.542969 -0.46875 3.675781 -0.445312 L 3.675781 0 L 0.199219 0 L 0.199219 -0.445312 C 0.347656 -0.457031 0.515625 -0.484375 0.710938 -0.527344 C 0.902344 -0.570312 1.0625 -0.636719 1.191406 -0.730469 C 1.339844 -0.839844 1.441406 -1.003906 1.496094 -1.226562 C 1.550781 -1.449219 1.578125 -1.824219 1.578125 -2.347656 L 1.578125 -6.175781 C 1.578125 -6.363281 1.546875 -6.542969 1.488281 -6.714844 C 1.429688 -6.882812 1.339844 -7.027344 1.214844 -7.148438 C 1.082031 -7.277344 0.925781 -7.378906 0.753906 -7.453125 C 0.582031 -7.527344 0.386719 -7.585938 0.164062 -7.628906 L 0.164062 -8.082031 L 3.207031 -8.082031 L 7.628906 -2.617188 L 7.628906 -5.675781 C 7.628906 -6.160156 7.59375 -6.523438 7.53125 -6.757812 C 7.464844 -6.996094 7.363281 -7.171875 7.222656 -7.285156 C 7.113281 -7.375 6.949219 -7.449219 6.734375 -7.511719 C 6.515625 -7.574219 6.34375 -7.617188 6.210938 -7.640625 L 6.210938 -8.082031 L 9.679688 -8.082031 Z "/>
</g>
<g id="glyph-0-10">
<path d="M 7.90625 -5.769531 L 7.460938 -5.769531 C 7.34375 -6.117188 7.15625 -6.488281 6.898438 -6.882812 C 6.636719 -7.277344 6.398438 -7.488281 6.179688 -7.519531 C 6.058594 -7.535156 5.90625 -7.546875 5.730469 -7.558594 C 5.550781 -7.570312 5.398438 -7.578125 5.269531 -7.578125 L 5 -7.578125 L 5 -1.234375 C 5 -1.097656 5.027344 -0.980469 5.074219 -0.875 C 5.125 -0.769531 5.222656 -0.6875 5.367188 -0.625 C 5.453125 -0.59375 5.589844 -0.558594 5.773438 -0.519531 C 5.957031 -0.484375 6.113281 -0.460938 6.242188 -0.445312 L 6.242188 0 L 1.738281 0 L 1.738281 -0.445312 C 1.847656 -0.457031 2.003906 -0.472656 2.203125 -0.492188 C 2.402344 -0.511719 2.535156 -0.539062 2.609375 -0.570312 C 2.757812 -0.628906 2.855469 -0.710938 2.90625 -0.816406 C 2.953125 -0.917969 2.980469 -1.039062 2.980469 -1.179688 L 2.980469 -7.578125 L 2.710938 -7.578125 C 2.582031 -7.578125 2.429688 -7.570312 2.25 -7.558594 C 2.074219 -7.546875 1.925781 -7.535156 1.804688 -7.519531 C 1.582031 -7.488281 1.34375 -7.277344 1.082031 -6.882812 C 0.824219 -6.488281 0.636719 -6.117188 0.519531 -5.769531 L 0.0742188 -5.769531 L 0.0742188 -8.082031 L 7.90625 -8.082031 Z "/>
</g>
<g id="glyph-0-11">
<path d="M 9.164062 0 L 4.761719 0 L 4.761719 -0.445312 C 4.96875 -0.460938 5.207031 -0.496094 5.484375 -0.554688 C 5.761719 -0.613281 5.898438 -0.6875 5.898438 -0.773438 C 5.898438 -0.804688 5.898438 -0.839844 5.890625 -0.878906 C 5.886719 -0.914062 5.867188 -0.964844 5.84375 -1.03125 L 5.152344 -2.707031 L 2.363281 -2.707031 C 2.296875 -2.550781 2.226562 -2.367188 2.148438 -2.160156 C 2.074219 -1.949219 2.003906 -1.765625 1.949219 -1.601562 C 1.875 -1.386719 1.835938 -1.234375 1.820312 -1.140625 C 1.808594 -1.042969 1.800781 -0.976562 1.800781 -0.941406 C 1.800781 -0.820312 1.894531 -0.714844 2.078125 -0.628906 C 2.261719 -0.542969 2.566406 -0.480469 2.996094 -0.445312 L 2.996094 0 L -0.320312 0 L -0.320312 -0.445312 C -0.195312 -0.453125 -0.0507812 -0.472656 0.105469 -0.503906 C 0.261719 -0.535156 0.386719 -0.582031 0.476562 -0.636719 C 0.632812 -0.730469 0.765625 -0.839844 0.875 -0.972656 C 0.984375 -1.105469 1.074219 -1.265625 1.144531 -1.445312 C 1.585938 -2.515625 2.027344 -3.582031 2.46875 -4.652344 C 2.910156 -5.726562 3.402344 -6.90625 3.9375 -8.199219 L 5.074219 -8.199219 C 5.820312 -6.367188 6.402344 -4.921875 6.824219 -3.855469 C 7.246094 -2.792969 7.605469 -1.914062 7.902344 -1.214844 C 7.949219 -1.097656 8.011719 -0.996094 8.089844 -0.902344 C 8.164062 -0.808594 8.273438 -0.722656 8.414062 -0.636719 C 8.519531 -0.578125 8.644531 -0.53125 8.785156 -0.5 C 8.925781 -0.472656 9.050781 -0.453125 9.164062 -0.445312 L 9.164062 0 M 4.917969 -3.269531 L 3.75 -6.191406 L 2.59375 -3.269531 Z "/>
</g>
<g id="glyph-0-12">
<path d="M 5.789062 -5.90625 C 5.789062 -5.144531 5.527344 -4.523438 5 -4.050781 C 4.476562 -3.574219 3.777344 -3.304688 2.90625 -3.234375 L 2.871094 -2.460938 L 2.363281 -2.460938 L 2.363281 -4.675781 C 2.914062 -4.722656 3.347656 -4.894531 3.65625 -5.199219 C 3.96875 -5.5 4.125 -5.910156 4.125 -6.429688 C 4.125 -6.84375 4.015625 -7.175781 3.796875 -7.425781 C 3.578125 -7.675781 3.285156 -7.796875 2.917969 -7.796875 C 2.761719 -7.796875 2.621094 -7.78125 2.5 -7.75 C 2.378906 -7.71875 2.261719 -7.667969 2.148438 -7.597656 C 2.1875 -7.476562 2.230469 -7.320312 2.28125 -7.128906 C 2.332031 -6.9375 2.359375 -6.761719 2.359375 -6.597656 C 2.359375 -6.332031 2.273438 -6.125 2.097656 -5.980469 C 1.925781 -5.832031 1.6875 -5.757812 1.378906 -5.757812 C 1.089844 -5.757812 0.863281 -5.851562 0.699219 -6.03125 C 0.53125 -6.214844 0.449219 -6.4375 0.449219 -6.703125 C 0.449219 -7.140625 0.699219 -7.511719 1.195312 -7.816406 C 1.695312 -8.121094 2.292969 -8.273438 2.996094 -8.273438 C 3.828125 -8.273438 4.5 -8.054688 5.015625 -7.621094 C 5.53125 -7.1875 5.789062 -6.617188 5.789062 -5.90625 M 3.738281 -0.890625 C 3.738281 -0.601562 3.628906 -0.351562 3.410156 -0.144531 C 3.191406 0.0625 2.9375 0.164062 2.644531 0.164062 C 2.347656 0.164062 2.089844 0.0625 1.871094 -0.144531 C 1.652344 -0.351562 1.542969 -0.601562 1.542969 -0.890625 C 1.542969 -1.175781 1.652344 -1.425781 1.871094 -1.636719 C 2.089844 -1.847656 2.347656 -1.953125 2.644531 -1.953125 C 2.9375 -1.953125 3.191406 -1.847656 3.410156 -1.636719 C 3.628906 -1.425781 3.738281 -1.175781 3.738281 -0.890625 Z "/>
</g>
</g>
</defs>
<g fill="rgb(98.823529%, 38.431373%, 33.333333%)" fill-opacity="1">
<use xlink:href="#glyph-0-0" x="30" y="30.697266"/>
<use xlink:href="#glyph-0-1" x="36" y="30.697266"/>
<use xlink:href="#glyph-0-2" x="44" y="30.697266"/>
<use xlink:href="#glyph-0-3" x="49" y="30.697266"/>
<use xlink:href="#glyph-0-4" x="57" y="30.697266"/>
<use xlink:href="#glyph-0-5" x="66" y="30.697266"/>
<use xlink:href="#glyph-0-3" x="76" y="30.697266"/>
<use xlink:href="#glyph-0-6" x="84" y="30.697266"/>
<use xlink:href="#glyph-0-7" x="92" y="30.697266"/>
<use xlink:href="#glyph-0-8" x="95" y="30.697266"/>
<use xlink:href="#glyph-0-3" x="104" y="30.697266"/>
<use xlink:href="#glyph-0-9" x="112" y="30.697266"/>
<use xlink:href="#glyph-0-10" x="122" y="30.697266"/>
<use xlink:href="#glyph-0-11" x="130" y="30.697266"/>
<use xlink:href="#glyph-0-6" x="139" y="30.697266"/>
<use xlink:href="#glyph-0-12" x="147" y="30.697266"/>
</g>
</svg>
