<?xml version="1.0" encoding="UTF-8"?>
<svg xmlns="http://www.w3.org/2000/svg" xmlns:xlink="http://www.w3.org/1999/xlink" width="1080" height="1920" viewBox="0 0 1080 1920">
<defs>
<g>
<g id="glyph-0-0">
<path d="M 8.539062 -6.492188 C 8.539062 -6.007812 8.4375 -5.585938 8.238281 -5.234375 C 8.035156 -4.882812 7.757812 -4.597656 7.402344 -4.375 C 7.039062 -4.148438 6.621094 -3.984375 6.148438 -3.882812 C 5.679688 -3.78125 5.152344 -3.730469 4.566406 -3.730469 L 3.859375 -3.730469 L 3.859375 -1.292969 C 3.859375 -1.148438 3.886719 -1.019531 3.941406 -0.914062 C 3.996094 -0.804688 4.097656 -0.71875 4.253906 -0.652344 C 4.335938 -0.621094 4.46875 -0.585938 4.652344 -0.550781 C 4.832031 -0.511719 4.988281 -0.488281 5.113281 -0.476562 L 5.113281 0 L 0.421875 0 L 0.421875 -0.476562 C 0.539062 -0.488281 0.695312 -0.503906 0.890625 -0.527344 C 1.085938 -0.550781 1.222656 -0.578125 1.300781 -0.609375 C 1.457031 -0.675781 1.5625 -0.753906 1.613281 -0.847656 C 1.664062 -0.941406 1.691406 -1.070312 1.691406 -1.238281 L 1.691406 -7.347656 C 1.691406 -7.492188 1.667969 -7.613281 1.617188 -7.71875 C 1.570312 -7.820312 1.460938 -7.90625 1.300781 -7.976562 C 1.1875 -8.027344 1.035156 -8.070312 0.84375 -8.109375 C 0.65625 -8.148438 0.515625 -8.171875 0.421875 -8.183594 L 0.421875 -8.660156 L 5.199219 -8.660156 C 6.320312 -8.660156 7.15625 -8.484375 7.707031 -8.125 C 8.261719 -7.769531 8.539062 -7.226562 8.539062 -6.492188 M 6.160156 -6.183594 C 6.160156 -6.832031 6.027344 -7.316406 5.765625 -7.632812 C 5.503906 -7.949219 5.035156 -8.105469 4.363281 -8.105469 L 3.859375 -8.105469 L 3.859375 -4.304688 L 4.113281 -4.304688 C 4.78125 -4.304688 5.289062 -4.457031 5.636719 -4.765625 C 5.984375 -5.070312 6.160156 -5.542969 6.160156 -6.183594 Z "/>
</g>
<g id="glyph-0-1">
<path d="M 8.097656 -6.453125 L 7.636719 -6.453125 C 7.515625 -6.78125 7.3125 -7.113281 7.023438 -7.449219 C 6.734375 -7.785156 6.449219 -7.984375 6.164062 -8.042969 C 6.042969 -8.074219 5.871094 -8.089844 5.65625 -8.097656 C 5.4375 -8.101562 5.257812 -8.105469 5.113281 -8.105469 L 3.859375 -8.105469 L 3.859375 -4.765625 L 4.75 -4.765625 C 4.972656 -4.765625 5.175781 -4.792969 5.359375 -4.847656 C 5.542969 -4.898438 5.707031 -5 5.859375 -5.152344 C 5.953125 -5.246094 6.046875 -5.410156 6.144531 -5.644531 C 6.238281 -5.882812 6.300781 -6.085938 6.328125 -6.261719 L 6.792969 -6.261719 L 6.792969 -2.648438 L 6.328125 -2.648438 C 6.304688 -2.820312 6.242188 -3.035156 6.144531 -3.292969 C 6.042969 -3.550781 5.949219 -3.730469 5.859375 -3.828125 C 5.726562 -3.972656 5.566406 -4.074219 5.382812 -4.128906 C 5.199219 -4.183594 4.988281 -4.210938 4.75 -4.210938 L 3.859375 -4.210938 L 3.859375 -1.714844 C 3.859375 -1.453125 3.875 -1.25 3.914062 -1.09375 C 3.953125 -0.941406 4.027344 -0.824219 4.132812 -0.746094 C 4.234375 -0.667969 4.375 -0.617188 4.550781 -0.59375 C 4.726562 -0.566406 4.96875 -0.554688 5.273438 -0.554688 C 5.414062 -0.554688 5.585938 -0.558594 5.785156 -0.5625 C 5.984375 -0.566406 6.160156 -0.578125 6.3125 -0.597656 C 6.480469 -0.617188 6.640625 -0.648438 6.789062 -0.691406 C 6.9375 -0.730469 7.050781 -0.789062 7.121094 -0.867188 C 7.316406 -1.066406 7.539062 -1.371094 7.78125 -1.777344 C 8.027344 -2.1875 8.1875 -2.496094 8.265625 -2.699219 L 8.710938 -2.699219 L 8.546875 0 L 0.421875 0 L 0.421875 -0.476562 C 0.535156 -0.484375 0.691406 -0.5 0.886719 -0.523438 C 1.082031 -0.550781 1.21875 -0.578125 1.300781 -0.609375 C 1.453125 -0.675781 1.558594 -0.757812 1.609375 -0.859375 C 1.664062 -0.957031 1.691406 -1.085938 1.691406 -1.238281 L 1.691406 -7.347656 C 1.691406 -7.496094 1.667969 -7.617188 1.625 -7.710938 C 1.578125 -7.808594 1.472656 -7.894531 1.300781 -7.972656 C 1.195312 -8.019531 1.046875 -8.066406 0.855469 -8.105469 C 0.664062 -8.144531 0.519531 -8.171875 0.421875 -8.183594 L 0.421875 -8.660156 L 8.097656 -8.660156 Z "/>
</g>
<g id="glyph-0-2">
<path d="M 10.363281 0 L 7.039062 0 C 6.46875 -0.878906 5.988281 -1.578125 5.609375 -2.101562 C 5.230469 -2.621094 4.757812 -3.222656 4.191406 -3.90625 L 3.859375 -3.90625 L 3.859375 -1.277344 C 3.859375 -1.128906 3.886719 -1.003906 3.941406 -0.902344 C 3.996094 -0.800781 4.097656 -0.714844 4.253906 -0.648438 C 4.332031 -0.613281 4.453125 -0.582031 4.617188 -0.546875 C 4.78125 -0.511719 4.921875 -0.488281 5.042969 -0.476562 L 5.042969 0 L 0.421875 0 L 0.421875 -0.476562 C 0.539062 -0.488281 0.695312 -0.503906 0.886719 -0.527344 C 1.082031 -0.550781 1.21875 -0.578125 1.300781 -0.609375 C 1.453125 -0.675781 1.558594 -0.757812 1.609375 -0.859375 C 1.664062 -0.957031 1.691406 -1.085938 1.691406 -1.238281 L 1.691406 -7.347656 C 1.691406 -7.496094 1.667969 -7.617188 1.625 -7.714844 C 1.578125 -7.8125 1.472656 -7.898438 1.300781 -7.972656 C 1.167969 -8.023438 1.015625 -8.070312 0.839844 -8.105469 C 0.664062 -8.140625 0.523438 -8.167969 0.421875 -8.183594 L 0.421875 -8.660156 L 5.28125 -8.660156 C 6.367188 -8.660156 7.191406 -8.492188 7.753906 -8.152344 C 8.316406 -7.8125 8.601562 -7.296875 8.601562 -6.609375 C 8.601562 -6.003906 8.425781 -5.515625 8.078125 -5.148438 C 7.730469 -4.78125 7.199219 -4.492188 6.488281 -4.285156 C 6.765625 -3.925781 7.085938 -3.511719 7.457031 -3.039062 C 7.824219 -2.566406 8.207031 -2.085938 8.605469 -1.59375 C 8.730469 -1.433594 8.902344 -1.238281 9.121094 -1.011719 C 9.339844 -0.78125 9.53125 -0.640625 9.699219 -0.585938 C 9.792969 -0.558594 9.910156 -0.53125 10.054688 -0.511719 C 10.199219 -0.492188 10.300781 -0.480469 10.363281 -0.476562 L 10.363281 0 M 6.207031 -6.4375 C 6.207031 -7.015625 6.046875 -7.4375 5.722656 -7.707031 C 5.398438 -7.972656 4.9375 -8.105469 4.339844 -8.105469 L 3.859375 -8.105469 L 3.859375 -4.480469 L 4.320312 -4.480469 C 4.917969 -4.480469 5.382812 -4.636719 5.710938 -4.949219 C 6.042969 -5.261719 6.207031 -5.757812 6.207031 -6.4375 Z "/>
</g>
<g id="glyph-0-3">
<path d="M 8.222656 -7.769531 C 8.75 -7.425781 9.175781 -6.964844 9.503906 -6.386719 C 9.828125 -5.8125 9.992188 -5.105469 9.992188 -4.273438 C 9.992188 -3.539062 9.847656 -2.902344 9.554688 -2.359375 C 9.265625 -1.816406 8.878906 -1.371094 8.398438 -1.023438 C 7.910156 -0.679688 7.355469 -0.421875 6.734375 -0.253906 C 6.113281 -0.0859375 5.464844 0 4.785156 0 L 0.421875 0 L 0.421875 -0.476562 C 0.550781 -0.480469 0.714844 -0.492188 0.910156 -0.511719 C 1.105469 -0.53125 1.234375 -0.558594 1.300781 -0.585938 C 1.445312 -0.648438 1.546875 -0.730469 1.605469 -0.832031 C 1.664062 -0.9375 1.691406 -1.0625 1.691406 -1.207031 L 1.691406 -7.347656 C 1.691406 -7.488281 1.664062 -7.613281 1.609375 -7.722656 C 1.558594 -7.835938 1.453125 -7.925781 1.300781 -7.996094 C 1.144531 -8.066406 0.980469 -8.113281 0.808594 -8.136719 C 0.636719 -8.160156 0.503906 -8.175781 0.410156 -8.183594 L 0.410156 -8.660156 L 5.015625 -8.660156 C 5.507812 -8.660156 6.035156 -8.597656 6.597656 -8.472656 C 7.160156 -8.34375 7.699219 -8.113281 8.222656 -7.769531 M 6.976562 -1.5625 C 7.175781 -1.886719 7.320312 -2.277344 7.414062 -2.726562 C 7.503906 -3.175781 7.550781 -3.691406 7.550781 -4.277344 C 7.550781 -4.851562 7.488281 -5.375 7.367188 -5.847656 C 7.246094 -6.320312 7.066406 -6.722656 6.828125 -7.054688 C 6.59375 -7.390625 6.300781 -7.648438 5.949219 -7.832031 C 5.597656 -8.015625 5.195312 -8.105469 4.75 -8.105469 C 4.605469 -8.105469 4.445312 -8.101562 4.261719 -8.097656 C 4.082031 -8.089844 3.945312 -8.085938 3.859375 -8.082031 L 3.859375 -1.507812 C 3.859375 -1.359375 3.875 -1.230469 3.914062 -1.121094 C 3.953125 -1.007812 4.019531 -0.910156 4.113281 -0.824219 C 4.207031 -0.738281 4.324219 -0.671875 4.457031 -0.625 C 4.59375 -0.578125 4.773438 -0.554688 4.992188 -0.554688 C 5.453125 -0.554688 5.847656 -0.640625 6.175781 -0.8125 C 6.507812 -0.984375 6.773438 -1.234375 6.976562 -1.5625 Z "/>
</g>
<g id="glyph-0-4">
<path d="M 5.1875 0 L 0.382812 0 L 0.382812 -0.476562 C 0.496094 -0.484375 0.65625 -0.496094 0.871094 -0.511719 C 1.082031 -0.527344 1.230469 -0.554688 1.3125 -0.585938 C 1.460938 -0.648438 1.566406 -0.726562 1.621094 -0.828125 C 1.675781 -0.925781 1.703125 -1.054688 1.703125 -1.207031 L 1.703125 -7.347656 C 1.703125 -7.488281 1.675781 -7.609375 1.625 -7.714844 C 1.570312 -7.820312 1.46875 -7.90625 1.3125 -7.972656 C 1.214844 -8.011719 1.070312 -8.054688 0.878906 -8.097656 C 0.6875 -8.140625 0.523438 -8.167969 0.382812 -8.183594 L 0.382812 -8.660156 L 5.1875 -8.660156 L 5.1875 -8.183594 C 5.066406 -8.171875 4.914062 -8.15625 4.730469 -8.132812 C 4.546875 -8.109375 4.390625 -8.078125 4.265625 -8.039062 C 4.109375 -7.984375 4 -7.902344 3.949219 -7.792969 C 3.894531 -7.679688 3.871094 -7.550781 3.871094 -7.410156 L 3.871094 -1.277344 C 3.871094 -1.128906 3.898438 -1.003906 3.953125 -0.898438 C 4.007812 -0.796875 4.113281 -0.710938 4.265625 -0.648438 C 4.351562 -0.609375 4.492188 -0.574219 4.691406 -0.539062 C 4.886719 -0.503906 5.054688 -0.484375 5.1875 -0.476562 Z "/>
</g>
<g id="glyph-0-5">
<path d="M 10.371094 -8.183594 C 10.257812 -8.171875 10.09375 -8.148438 9.882812 -8.117188 C 9.671875 -8.085938 9.480469 -8.003906 9.308594 -7.878906 C 9.15625 -7.769531 9.050781 -7.582031 8.988281 -7.316406 C 8.925781 -7.046875 8.894531 -6.65625 8.894531 -6.140625 L 8.894531 0.046875 L 7.804688 0.046875 L 2.410156 -6.648438 L 2.410156 -2.582031 C 2.410156 -2.078125 2.445312 -1.695312 2.511719 -1.429688 C 2.578125 -1.167969 2.6875 -0.976562 2.839844 -0.855469 C 2.949219 -0.765625 3.121094 -0.6875 3.363281 -0.617188 C 3.601562 -0.546875 3.792969 -0.5 3.9375 -0.476562 L 3.9375 0 L 0.214844 0 L 0.214844 -0.476562 C 0.371094 -0.488281 0.554688 -0.519531 0.761719 -0.566406 C 0.964844 -0.613281 1.136719 -0.683594 1.277344 -0.78125 C 1.433594 -0.898438 1.542969 -1.078125 1.601562 -1.316406 C 1.660156 -1.554688 1.691406 -1.953125 1.691406 -2.515625 L 1.691406 -6.617188 C 1.691406 -6.820312 1.660156 -7.011719 1.597656 -7.191406 C 1.53125 -7.375 1.433594 -7.53125 1.300781 -7.660156 C 1.15625 -7.796875 0.992188 -7.90625 0.808594 -7.988281 C 0.625 -8.066406 0.414062 -8.128906 0.175781 -8.171875 L 0.175781 -8.660156 L 3.4375 -8.660156 L 8.171875 -2.804688 L 8.171875 -6.078125 C 8.171875 -6.601562 8.136719 -6.988281 8.070312 -7.242188 C 8 -7.496094 7.890625 -7.683594 7.738281 -7.804688 C 7.621094 -7.898438 7.445312 -7.980469 7.214844 -8.046875 C 6.984375 -8.113281 6.796875 -8.160156 6.652344 -8.183594 L 6.652344 -8.660156 L 10.371094 -8.660156 Z "/>
</g>
<g id="glyph-0-6">
<path d="M 8.421875 -7.695312 C 8.851562 -7.304688 9.1875 -6.832031 9.4375 -6.28125 C 9.6875 -5.726562 9.8125 -5.097656 9.8125 -4.386719 C 9.8125 -3.757812 9.707031 -3.15625 9.496094 -2.585938 C 9.285156 -2.019531 8.980469 -1.527344 8.582031 -1.117188 C 8.164062 -0.691406 7.671875 -0.355469 7.105469 -0.117188 C 6.539062 0.117188 5.867188 0.238281 5.085938 0.238281 C 4.453125 0.238281 3.859375 0.132812 3.296875 -0.0742188 C 2.734375 -0.28125 2.238281 -0.582031 1.8125 -0.976562 C 1.390625 -1.363281 1.054688 -1.832031 0.804688 -2.386719 C 0.558594 -2.941406 0.433594 -3.554688 0.433594 -4.234375 C 0.433594 -4.945312 0.554688 -5.585938 0.796875 -6.160156 C 1.039062 -6.738281 1.371094 -7.230469 1.792969 -7.640625 C 2.214844 -8.042969 2.710938 -8.355469 3.285156 -8.574219 C 3.863281 -8.789062 4.476562 -8.898438 5.125 -8.898438 C 5.773438 -8.898438 6.382812 -8.792969 6.949219 -8.582031 C 7.515625 -8.371094 8.007812 -8.074219 8.421875 -7.695312 M 6.855469 -1.496094 C 7.039062 -1.867188 7.167969 -2.289062 7.25 -2.757812 C 7.332031 -3.226562 7.375 -3.753906 7.375 -4.34375 C 7.375 -4.847656 7.335938 -5.335938 7.265625 -5.808594 C 7.195312 -6.285156 7.074219 -6.707031 6.902344 -7.078125 C 6.726562 -7.449219 6.496094 -7.746094 6.207031 -7.96875 C 5.917969 -8.195312 5.558594 -8.308594 5.125 -8.308594 C 4.390625 -8.308594 3.832031 -7.957031 3.449219 -7.257812 C 3.066406 -6.558594 2.875 -5.574219 2.875 -4.296875 C 2.875 -3.753906 2.917969 -3.242188 3 -2.761719 C 3.082031 -2.28125 3.214844 -1.863281 3.394531 -1.503906 C 3.578125 -1.140625 3.808594 -0.859375 4.089844 -0.65625 C 4.371094 -0.453125 4.714844 -0.355469 5.125 -0.355469 C 5.53125 -0.355469 5.875 -0.457031 6.164062 -0.660156 C 6.453125 -0.863281 6.683594 -1.140625 6.855469 -1.496094 Z "/>
</g>
<g id="glyph-0-7">
</g>
</g>
</defs>
<g fill="rgb(15.294118%, 78.823529%, 62.352941%)" fill-opacity="1">
<use xlink:href="#glyph-0-0" x="30" y="31.462891"/>
<use xlink:href="#glyph-0-1" x="39" y="31.462891"/>
<use xlink:href="#glyph-0-2" x="48" y="31.462891"/>
<use xlink:href="#glyph-0-3" x="58" y="31.462891"/>
<use xlink:href="#glyph-0-4" x="68" y="31.462891"/>
<use xlink:href="#glyph-0-1" x="74" y="31.462891"/>
<use xlink:href="#glyph-0-5" x="83" y="31.462891"/>
<use xlink:href="#glyph-0-3" x="93" y="31.462891"/>
<use xlink:href="#glyph-0-6" x="103" y="31.462891"/>
<use xlink:href="#glyph-0-7" x="113" y="31.462891"/>
<use xlink:href="#glyph-0-3" x="116" y="31.462891"/>
<use xlink:href="#glyph-0-4" x="126" y="31.462891"/>
<use xlink:href="#glyph-0-5" x="132" y="31.462891"/>
<use xlink:href="#glyph-0-1" x="142" y="31.462891"/>
<use xlink:href="#glyph-0-2" x="151" y="31.462891"/>
<use xlink:href="#glyph-0-6" x="161" y="31.462891"/>
</g>
</svg>
