<?xml version="1.0" encoding="UTF-8"?>
<svg xmlns="http://www.w3.org/2000/svg" xmlns:xlink="http://www.w3.org/1999/xlink" width="1080" height="1920" viewBox="0 0 1080 1920">
<defs>
<g>
<g id="glyph-0-0">
<path d="M 8.90625 -5.085938 C 8.828125 -5.078125 8.75 -5.058594 8.667969 -5.035156 C 8.589844 -5.007812 8.515625 -4.972656 8.4375 -4.933594 C 8.320312 -4.867188 8.238281 -4.796875 8.1875 -4.714844 C 8.140625 -4.636719 8.09375 -4.542969 8.054688 -4.433594 C 7.914062 -4.046875 7.699219 -3.429688 7.410156 -2.582031 C 7.121094 -1.734375 6.820312 -0.851562 6.503906 0.0625 L 5.738281 0.0625 L 4.320312 -3.941406 L 3.039062 0.0625 L 2.269531 0.0625 C 1.847656 -1.167969 1.523438 -2.117188 1.296875 -2.78125 C 1.074219 -3.445312 0.882812 -4.003906 0.730469 -4.453125 C 0.679688 -4.589844 0.625 -4.691406 0.566406 -4.753906 C 0.503906 -4.816406 0.425781 -4.878906 0.332031 -4.941406 C 0.261719 -4.984375 0.1875 -5.019531 0.113281 -5.042969 C 0.0351562 -5.0625 -0.0546875 -5.078125 -0.15625 -5.09375 L -0.15625 -5.390625 L 2.71875 -5.390625 L 2.71875 -5.101562 C 2.550781 -5.078125 2.421875 -5.058594 2.339844 -5.042969 C 2.257812 -5.023438 2.191406 -5.003906 2.144531 -4.980469 C 2.097656 -4.960938 2.070312 -4.941406 2.058594 -4.917969 C 2.050781 -4.894531 2.042969 -4.875 2.042969 -4.855469 C 2.042969 -4.820312 2.046875 -4.789062 2.058594 -4.753906 C 2.066406 -4.722656 2.074219 -4.683594 2.085938 -4.640625 C 2.148438 -4.441406 2.269531 -4.070312 2.453125 -3.519531 C 2.640625 -2.964844 2.867188 -2.28125 3.136719 -1.464844 L 4.367188 -5.390625 L 5.171875 -5.390625 L 6.589844 -1.339844 C 6.800781 -1.992188 6.96875 -2.523438 7.09375 -2.9375 C 7.21875 -3.347656 7.324219 -3.703125 7.410156 -3.996094 C 7.460938 -4.175781 7.503906 -4.324219 7.53125 -4.445312 C 7.5625 -4.570312 7.578125 -4.671875 7.578125 -4.761719 C 7.578125 -4.816406 7.554688 -4.859375 7.503906 -4.898438 C 7.453125 -4.9375 7.386719 -4.96875 7.304688 -4.996094 C 7.234375 -5.019531 7.144531 -5.039062 7.03125 -5.050781 C 6.917969 -5.066406 6.820312 -5.078125 6.738281 -5.085938 L 6.738281 -5.390625 L 8.90625 -5.390625 Z "/>
</g>
<g id="glyph-0-1">
<path d="M 6.839844 0 L 3.925781 0 L 3.925781 -0.296875 C 3.988281 -0.300781 4.082031 -0.308594 4.203125 -0.320312 C 4.324219 -0.328125 4.410156 -0.34375 4.453125 -0.363281 C 4.546875 -0.402344 4.613281 -0.453125 4.648438 -0.515625 C 4.683594 -0.578125 4.703125 -0.65625 4.703125 -0.75 L 4.703125 -2.609375 L 2.398438 -2.609375 L 2.398438 -0.792969 C 2.398438 -0.707031 2.417969 -0.628906 2.457031 -0.5625 C 2.492188 -0.492188 2.554688 -0.441406 2.644531 -0.402344 C 2.691406 -0.382812 2.773438 -0.359375 2.890625 -0.339844 C 3.007812 -0.316406 3.101562 -0.300781 3.175781 -0.296875 L 3.175781 0 L 0.261719 0 L 0.261719 -0.296875 C 0.324219 -0.296875 0.417969 -0.308594 0.542969 -0.320312 C 0.664062 -0.335938 0.753906 -0.351562 0.808594 -0.371094 C 0.898438 -0.40625 0.964844 -0.453125 1 -0.523438 C 1.035156 -0.589844 1.050781 -0.667969 1.050781 -0.757812 L 1.050781 -4.570312 C 1.050781 -4.660156 1.035156 -4.734375 1.003906 -4.796875 C 0.972656 -4.855469 0.90625 -4.910156 0.808594 -4.957031 C 0.734375 -4.988281 0.640625 -5.019531 0.519531 -5.046875 C 0.402344 -5.070312 0.316406 -5.085938 0.261719 -5.09375 L 0.261719 -5.390625 L 3.175781 -5.390625 L 3.175781 -5.09375 C 3.097656 -5.085938 3.003906 -5.074219 2.894531 -5.054688 C 2.785156 -5.035156 2.703125 -5.015625 2.644531 -4.996094 C 2.542969 -4.964844 2.480469 -4.910156 2.449219 -4.839844 C 2.414062 -4.769531 2.398438 -4.691406 2.398438 -4.609375 L 2.398438 -3 L 4.703125 -3 L 4.703125 -4.570312 C 4.703125 -4.660156 4.683594 -4.734375 4.652344 -4.796875 C 4.617188 -4.855469 4.554688 -4.910156 4.453125 -4.957031 C 4.390625 -4.984375 4.300781 -5.015625 4.191406 -5.042969 C 4.082031 -5.066406 3.992188 -5.085938 3.925781 -5.09375 L 3.925781 -5.390625 L 6.839844 -5.390625 L 6.839844 -5.09375 C 6.757812 -5.085938 6.667969 -5.078125 6.566406 -5.058594 C 6.464844 -5.042969 6.375 -5.023438 6.292969 -4.996094 C 6.195312 -4.964844 6.132812 -4.914062 6.097656 -4.84375 C 6.066406 -4.769531 6.050781 -4.695312 6.050781 -4.609375 L 6.050781 -0.792969 C 6.050781 -0.703125 6.066406 -0.625 6.097656 -0.5625 C 6.132812 -0.5 6.195312 -0.445312 6.292969 -0.402344 C 6.351562 -0.378906 6.441406 -0.355469 6.554688 -0.335938 C 6.671875 -0.3125 6.765625 -0.300781 6.839844 -0.296875 Z "/>
</g>
<g id="glyph-0-2">
<path d="M 6.109375 0 L 3.175781 0 L 3.175781 -0.296875 C 3.3125 -0.304688 3.472656 -0.332031 3.65625 -0.371094 C 3.839844 -0.410156 3.933594 -0.457031 3.933594 -0.515625 C 3.933594 -0.535156 3.929688 -0.558594 3.925781 -0.585938 C 3.921875 -0.609375 3.914062 -0.644531 3.894531 -0.6875 L 3.433594 -1.804688 L 1.574219 -1.804688 C 1.53125 -1.699219 1.484375 -1.578125 1.433594 -1.4375 C 1.382812 -1.300781 1.335938 -1.175781 1.300781 -1.066406 C 1.25 -0.925781 1.222656 -0.824219 1.214844 -0.757812 C 1.207031 -0.695312 1.199219 -0.652344 1.199219 -0.625 C 1.199219 -0.546875 1.261719 -0.476562 1.382812 -0.417969 C 1.507812 -0.363281 1.710938 -0.320312 1.996094 -0.296875 L 1.996094 0 L -0.210938 0 L -0.210938 -0.296875 C -0.128906 -0.300781 -0.0351562 -0.316406 0.0703125 -0.335938 C 0.175781 -0.359375 0.257812 -0.386719 0.320312 -0.425781 C 0.421875 -0.484375 0.511719 -0.5625 0.582031 -0.648438 C 0.65625 -0.738281 0.714844 -0.84375 0.761719 -0.964844 C 1.058594 -1.675781 1.351562 -2.386719 1.644531 -3.101562 C 1.941406 -3.816406 2.265625 -4.605469 2.625 -5.464844 L 3.382812 -5.464844 C 3.878906 -4.246094 4.269531 -3.28125 4.550781 -2.570312 C 4.832031 -1.863281 5.070312 -1.273438 5.265625 -0.808594 C 5.300781 -0.734375 5.34375 -0.664062 5.390625 -0.601562 C 5.441406 -0.539062 5.515625 -0.480469 5.609375 -0.425781 C 5.679688 -0.386719 5.761719 -0.355469 5.855469 -0.335938 C 5.949219 -0.3125 6.035156 -0.300781 6.109375 -0.296875 L 6.109375 0 M 3.277344 -2.179688 L 2.5 -4.128906 L 1.730469 -2.179688 Z "/>
</g>
<g id="glyph-0-3">
<path d="M 5.269531 -3.847656 L 4.976562 -3.847656 C 4.894531 -4.078125 4.769531 -4.324219 4.597656 -4.585938 C 4.425781 -4.851562 4.265625 -4.992188 4.117188 -5.011719 C 4.039062 -5.023438 3.9375 -5.03125 3.820312 -5.039062 C 3.699219 -5.046875 3.597656 -5.050781 3.511719 -5.050781 L 3.335938 -5.050781 L 3.335938 -0.824219 C 3.335938 -0.734375 3.351562 -0.652344 3.382812 -0.582031 C 3.417969 -0.511719 3.480469 -0.457031 3.578125 -0.417969 C 3.636719 -0.394531 3.726562 -0.371094 3.847656 -0.347656 C 3.972656 -0.324219 4.074219 -0.304688 4.160156 -0.296875 L 4.160156 0 L 1.160156 0 L 1.160156 -0.296875 C 1.230469 -0.304688 1.335938 -0.316406 1.46875 -0.328125 C 1.601562 -0.34375 1.691406 -0.359375 1.738281 -0.378906 C 1.839844 -0.421875 1.902344 -0.476562 1.9375 -0.542969 C 1.96875 -0.613281 1.984375 -0.691406 1.984375 -0.785156 L 1.984375 -5.050781 L 1.808594 -5.050781 C 1.722656 -5.050781 1.621094 -5.046875 1.5 -5.039062 C 1.382812 -5.03125 1.28125 -5.023438 1.203125 -5.011719 C 1.054688 -4.992188 0.894531 -4.851562 0.722656 -4.585938 C 0.550781 -4.324219 0.425781 -4.078125 0.34375 -3.847656 L 0.0507812 -3.847656 L 0.0507812 -5.390625 L 5.269531 -5.390625 Z "/>
</g>
<g id="glyph-0-4">
<path d="M 2.523438 0.148438 C 2.191406 0.148438 1.886719 0.105469 1.601562 0.0234375 C 1.316406 -0.0585938 1.074219 -0.15625 0.878906 -0.265625 L 0.613281 0 L 0.292969 0 L 0.242188 -1.949219 L 0.570312 -1.949219 C 0.644531 -1.761719 0.738281 -1.566406 0.851562 -1.363281 C 0.964844 -1.15625 1.097656 -0.972656 1.246094 -0.808594 C 1.398438 -0.640625 1.574219 -0.5 1.765625 -0.394531 C 1.957031 -0.289062 2.179688 -0.234375 2.433594 -0.234375 C 2.777344 -0.234375 3.042969 -0.320312 3.226562 -0.488281 C 3.410156 -0.65625 3.5 -0.867188 3.5 -1.125 C 3.5 -1.335938 3.421875 -1.511719 3.269531 -1.65625 C 3.113281 -1.796875 2.871094 -1.921875 2.542969 -2.027344 C 2.332031 -2.09375 2.136719 -2.160156 1.957031 -2.21875 C 1.777344 -2.273438 1.613281 -2.335938 1.453125 -2.394531 C 1.09375 -2.539062 0.824219 -2.746094 0.648438 -3.015625 C 0.472656 -3.285156 0.382812 -3.585938 0.382812 -3.917969 C 0.382812 -4.128906 0.429688 -4.328125 0.519531 -4.523438 C 0.613281 -4.71875 0.746094 -4.890625 0.917969 -5.046875 C 1.085938 -5.191406 1.300781 -5.308594 1.5625 -5.398438 C 1.820312 -5.492188 2.105469 -5.535156 2.410156 -5.535156 C 2.710938 -5.535156 2.988281 -5.496094 3.25 -5.410156 C 3.511719 -5.328125 3.714844 -5.246094 3.867188 -5.160156 L 4.097656 -5.390625 L 4.429688 -5.390625 L 4.457031 -3.550781 L 4.132812 -3.550781 C 4.054688 -3.75 3.964844 -3.949219 3.863281 -4.15625 C 3.761719 -4.363281 3.652344 -4.535156 3.539062 -4.671875 C 3.414062 -4.820312 3.273438 -4.9375 3.109375 -5.027344 C 2.949219 -5.113281 2.757812 -5.15625 2.539062 -5.15625 C 2.265625 -5.15625 2.042969 -5.078125 1.871094 -4.925781 C 1.695312 -4.769531 1.609375 -4.578125 1.609375 -4.351562 C 1.609375 -4.136719 1.683594 -3.957031 1.835938 -3.820312 C 1.988281 -3.683594 2.222656 -3.566406 2.539062 -3.460938 C 2.726562 -3.398438 2.917969 -3.332031 3.113281 -3.269531 C 3.308594 -3.207031 3.480469 -3.144531 3.632812 -3.089844 C 4 -2.945312 4.28125 -2.75 4.472656 -2.5 C 4.664062 -2.25 4.757812 -1.941406 4.757812 -1.570312 C 4.757812 -1.335938 4.703125 -1.113281 4.59375 -0.894531 C 4.484375 -0.675781 4.339844 -0.496094 4.15625 -0.351562 C 3.953125 -0.191406 3.71875 -0.0664062 3.453125 0.0195312 C 3.1875 0.105469 2.875 0.148438 2.523438 0.148438 Z "/>
</g>
<g id="glyph-0-5">
<path d="M 5.3125 -4.039062 C 5.3125 -3.738281 5.25 -3.476562 5.125 -3.257812 C 5 -3.039062 4.828125 -2.859375 4.605469 -2.722656 C 4.378906 -2.582031 4.117188 -2.480469 3.824219 -2.414062 C 3.535156 -2.351562 3.207031 -2.320312 2.839844 -2.320312 L 2.398438 -2.320312 L 2.398438 -0.804688 C 2.398438 -0.714844 2.417969 -0.636719 2.453125 -0.566406 C 2.484375 -0.5 2.550781 -0.445312 2.648438 -0.40625 C 2.699219 -0.386719 2.78125 -0.363281 2.894531 -0.339844 C 3.007812 -0.320312 3.105469 -0.304688 3.183594 -0.296875 L 3.183594 0 L 0.261719 0 L 0.261719 -0.296875 C 0.335938 -0.304688 0.433594 -0.316406 0.554688 -0.328125 C 0.675781 -0.34375 0.761719 -0.359375 0.808594 -0.378906 C 0.90625 -0.421875 0.972656 -0.46875 1.003906 -0.527344 C 1.035156 -0.585938 1.050781 -0.667969 1.050781 -0.769531 L 1.050781 -4.570312 C 1.050781 -4.660156 1.035156 -4.738281 1.007812 -4.800781 C 0.976562 -4.867188 0.910156 -4.921875 0.808594 -4.964844 C 0.738281 -4.992188 0.644531 -5.019531 0.527344 -5.046875 C 0.410156 -5.070312 0.320312 -5.085938 0.261719 -5.09375 L 0.261719 -5.390625 L 3.234375 -5.390625 C 3.933594 -5.390625 4.453125 -5.277344 4.796875 -5.054688 C 5.140625 -4.835938 5.3125 -4.496094 5.3125 -4.039062 M 3.832031 -3.847656 C 3.832031 -4.253906 3.75 -4.550781 3.585938 -4.75 C 3.421875 -4.945312 3.132812 -5.042969 2.714844 -5.042969 L 2.398438 -5.042969 L 2.398438 -2.675781 L 2.558594 -2.675781 C 2.976562 -2.675781 3.289062 -2.773438 3.507812 -2.964844 C 3.722656 -3.15625 3.832031 -3.449219 3.832031 -3.847656 Z "/>
</g>
<g id="glyph-0-6">
</g>
<g id="glyph-0-7">
<path d="M 5.332031 -1.726562 L 5.226562 0 L 0.261719 0 L 0.261719 -0.296875 C 0.351562 -0.304688 0.453125 -0.316406 0.574219 -0.332031 C 0.691406 -0.347656 0.769531 -0.363281 0.808594 -0.378906 C 0.898438 -0.414062 0.964844 -0.464844 1 -0.527344 C 1.035156 -0.589844 1.050781 -0.671875 1.050781 -0.769531 L 1.050781 -4.570312 C 1.050781 -4.664062 1.039062 -4.738281 1.011719 -4.796875 C 0.980469 -4.859375 0.914062 -4.910156 0.808594 -4.960938 C 0.730469 -4.996094 0.636719 -5.023438 0.527344 -5.046875 C 0.414062 -5.066406 0.328125 -5.082031 0.261719 -5.09375 L 0.261719 -5.390625 L 3.21875 -5.390625 L 3.21875 -5.09375 C 3.140625 -5.085938 3.042969 -5.074219 2.933594 -5.058594 C 2.824219 -5.046875 2.726562 -5.027344 2.648438 -5 C 2.546875 -4.96875 2.480469 -4.917969 2.449219 -4.847656 C 2.417969 -4.777344 2.398438 -4.699219 2.398438 -4.609375 L 2.398438 -1.066406 C 2.398438 -0.898438 2.410156 -0.769531 2.433594 -0.671875 C 2.457031 -0.574219 2.5 -0.503906 2.566406 -0.460938 C 2.632812 -0.410156 2.726562 -0.378906 2.84375 -0.367188 C 2.960938 -0.351562 3.121094 -0.34375 3.332031 -0.34375 C 3.53125 -0.34375 3.730469 -0.359375 3.921875 -0.382812 C 4.113281 -0.40625 4.25 -0.457031 4.332031 -0.539062 C 4.460938 -0.667969 4.59375 -0.851562 4.730469 -1.085938 C 4.867188 -1.320312 4.972656 -1.53125 5.054688 -1.726562 Z "/>
</g>
<g id="glyph-0-8">
<path d="M 7.667969 0 L 4.746094 0 L 4.746094 -0.296875 C 4.832031 -0.304688 4.9375 -0.316406 5.0625 -0.335938 C 5.1875 -0.351562 5.273438 -0.371094 5.320312 -0.390625 C 5.414062 -0.429688 5.480469 -0.480469 5.523438 -0.546875 C 5.5625 -0.613281 5.582031 -0.695312 5.582031 -0.796875 L 5.582031 -4.824219 L 3.730469 -0.0859375 L 3.25 -0.0859375 C 3.226562 -0.171875 3.171875 -0.335938 3.082031 -0.585938 C 2.992188 -0.832031 2.917969 -1.03125 2.863281 -1.179688 L 1.5 -4.882812 L 1.5 -1.605469 C 1.5 -1.292969 1.519531 -1.054688 1.5625 -0.890625 C 1.605469 -0.726562 1.671875 -0.609375 1.765625 -0.53125 C 1.828125 -0.476562 1.941406 -0.429688 2.105469 -0.378906 C 2.269531 -0.332031 2.382812 -0.304688 2.449219 -0.296875 L 2.449219 0 L 0.132812 0 L 0.132812 -0.296875 C 0.195312 -0.304688 0.300781 -0.320312 0.441406 -0.347656 C 0.585938 -0.375 0.703125 -0.421875 0.792969 -0.484375 C 0.894531 -0.558594 0.964844 -0.675781 1 -0.84375 C 1.035156 -1.011719 1.050781 -1.253906 1.050781 -1.566406 L 1.050781 -4.234375 C 1.050781 -4.394531 1.03125 -4.53125 0.992188 -4.640625 C 0.949219 -4.746094 0.890625 -4.832031 0.808594 -4.894531 C 0.707031 -4.972656 0.605469 -5.023438 0.496094 -5.046875 C 0.390625 -5.070312 0.285156 -5.085938 0.175781 -5.09375 L 0.175781 -5.390625 L 2.65625 -5.390625 L 3.984375 -1.839844 L 5.105469 -4.71875 C 5.144531 -4.824219 5.179688 -4.953125 5.214844 -5.101562 C 5.25 -5.246094 5.269531 -5.34375 5.273438 -5.390625 L 7.660156 -5.390625 L 7.660156 -5.09375 C 7.578125 -5.085938 7.492188 -5.078125 7.40625 -5.0625 C 7.316406 -5.046875 7.230469 -5.027344 7.152344 -5 C 7.050781 -4.96875 6.988281 -4.917969 6.957031 -4.84375 C 6.921875 -4.773438 6.90625 -4.695312 6.90625 -4.609375 L 6.90625 -0.792969 C 6.90625 -0.703125 6.921875 -0.625 6.957031 -0.5625 C 6.988281 -0.5 7.050781 -0.449219 7.152344 -0.402344 C 7.203125 -0.378906 7.285156 -0.359375 7.398438 -0.339844 C 7.515625 -0.316406 7.605469 -0.304688 7.667969 -0.296875 Z "/>
</g>
<g id="glyph-0-9">
<path d="M 3.226562 0 L 0.238281 0 L 0.238281 -0.296875 C 0.308594 -0.300781 0.410156 -0.308594 0.542969 -0.320312 C 0.675781 -0.328125 0.765625 -0.34375 0.816406 -0.363281 C 0.910156 -0.402344 0.972656 -0.453125 1.007812 -0.515625 C 1.042969 -0.578125 1.058594 -0.65625 1.058594 -0.75 L 1.058594 -4.570312 C 1.058594 -4.660156 1.042969 -4.734375 1.011719 -4.800781 C 0.976562 -4.867188 0.914062 -4.917969 0.816406 -4.960938 C 0.753906 -4.984375 0.664062 -5.011719 0.546875 -5.039062 C 0.429688 -5.0625 0.324219 -5.082031 0.238281 -5.09375 L 0.238281 -5.390625 L 3.226562 -5.390625 L 3.226562 -5.09375 C 3.152344 -5.085938 3.058594 -5.074219 2.941406 -5.058594 C 2.828125 -5.046875 2.734375 -5.027344 2.65625 -5 C 2.554688 -4.96875 2.488281 -4.917969 2.457031 -4.847656 C 2.425781 -4.777344 2.40625 -4.699219 2.40625 -4.609375 L 2.40625 -0.792969 C 2.40625 -0.703125 2.425781 -0.625 2.457031 -0.558594 C 2.492188 -0.496094 2.558594 -0.441406 2.65625 -0.402344 C 2.707031 -0.378906 2.796875 -0.359375 2.917969 -0.335938 C 3.042969 -0.316406 3.144531 -0.300781 3.226562 -0.296875 Z "/>
</g>
<g id="glyph-0-10">
<path d="M 5.242188 -4.789062 C 5.507812 -4.546875 5.71875 -4.253906 5.871094 -3.90625 C 6.027344 -3.5625 6.105469 -3.171875 6.105469 -2.730469 C 6.105469 -2.339844 6.039062 -1.964844 5.910156 -1.609375 C 5.777344 -1.253906 5.585938 -0.949219 5.339844 -0.695312 C 5.078125 -0.429688 4.773438 -0.222656 4.421875 -0.0742188 C 4.070312 0.0742188 3.648438 0.148438 3.164062 0.148438 C 2.769531 0.148438 2.398438 0.0820312 2.050781 -0.046875 C 1.703125 -0.175781 1.394531 -0.363281 1.128906 -0.609375 C 0.863281 -0.847656 0.65625 -1.140625 0.5 -1.484375 C 0.347656 -1.828125 0.269531 -2.210938 0.269531 -2.636719 C 0.269531 -3.074219 0.34375 -3.476562 0.496094 -3.832031 C 0.644531 -4.191406 0.851562 -4.5 1.117188 -4.753906 C 1.378906 -5.003906 1.6875 -5.199219 2.046875 -5.332031 C 2.402344 -5.46875 2.785156 -5.535156 3.191406 -5.535156 C 3.59375 -5.535156 3.96875 -5.472656 4.324219 -5.339844 C 4.675781 -5.207031 4.980469 -5.023438 5.242188 -4.789062 M 4.265625 -0.929688 C 4.378906 -1.164062 4.460938 -1.421875 4.511719 -1.714844 C 4.5625 -2.007812 4.585938 -2.335938 4.585938 -2.703125 C 4.585938 -3.015625 4.566406 -3.320312 4.519531 -3.613281 C 4.476562 -3.910156 4.402344 -4.171875 4.296875 -4.402344 C 4.1875 -4.632812 4.042969 -4.820312 3.863281 -4.960938 C 3.683594 -5.097656 3.457031 -5.167969 3.191406 -5.167969 C 2.730469 -5.167969 2.382812 -4.949219 2.144531 -4.515625 C 1.90625 -4.082031 1.789062 -3.46875 1.789062 -2.671875 C 1.789062 -2.335938 1.816406 -2.019531 1.867188 -1.71875 C 1.917969 -1.417969 2 -1.160156 2.113281 -0.933594 C 2.226562 -0.710938 2.371094 -0.535156 2.542969 -0.410156 C 2.71875 -0.28125 2.933594 -0.21875 3.191406 -0.21875 C 3.441406 -0.21875 3.65625 -0.285156 3.835938 -0.410156 C 4.015625 -0.539062 4.160156 -0.710938 4.265625 -0.929688 Z "/>
</g>
<g id="glyph-0-11">
<path d="M 5.039062 -4.015625 L 4.75 -4.015625 C 4.675781 -4.21875 4.550781 -4.425781 4.371094 -4.632812 C 4.191406 -4.84375 4.011719 -4.96875 3.835938 -5.003906 C 3.757812 -5.023438 3.652344 -5.035156 3.519531 -5.039062 C 3.382812 -5.042969 3.269531 -5.042969 3.183594 -5.042969 L 2.398438 -5.042969 L 2.398438 -2.964844 L 2.953125 -2.964844 C 3.09375 -2.964844 3.21875 -2.980469 3.335938 -3.015625 C 3.449219 -3.046875 3.550781 -3.113281 3.644531 -3.207031 C 3.703125 -3.261719 3.761719 -3.367188 3.820312 -3.511719 C 3.882812 -3.660156 3.921875 -3.789062 3.9375 -3.894531 L 4.226562 -3.894531 L 4.226562 -1.648438 L 3.9375 -1.648438 C 3.921875 -1.753906 3.882812 -1.886719 3.820312 -2.046875 C 3.761719 -2.210938 3.703125 -2.320312 3.644531 -2.382812 C 3.5625 -2.472656 3.464844 -2.535156 3.347656 -2.570312 C 3.234375 -2.601562 3.105469 -2.621094 2.953125 -2.621094 L 2.398438 -2.621094 L 2.398438 -1.066406 C 2.398438 -0.90625 2.410156 -0.777344 2.4375 -0.683594 C 2.460938 -0.585938 2.503906 -0.515625 2.570312 -0.464844 C 2.632812 -0.414062 2.722656 -0.382812 2.832031 -0.367188 C 2.941406 -0.351562 3.089844 -0.34375 3.28125 -0.34375 C 3.371094 -0.34375 3.476562 -0.347656 3.601562 -0.347656 C 3.722656 -0.351562 3.832031 -0.359375 3.925781 -0.371094 C 4.03125 -0.386719 4.132812 -0.402344 4.226562 -0.429688 C 4.316406 -0.453125 4.386719 -0.492188 4.433594 -0.539062 C 4.554688 -0.664062 4.691406 -0.851562 4.84375 -1.105469 C 4.992188 -1.363281 5.09375 -1.550781 5.140625 -1.679688 L 5.417969 -1.679688 L 5.316406 0 L 0.261719 0 L 0.261719 -0.296875 C 0.332031 -0.300781 0.429688 -0.3125 0.550781 -0.328125 C 0.671875 -0.339844 0.757812 -0.359375 0.808594 -0.378906 C 0.90625 -0.421875 0.96875 -0.472656 1.003906 -0.535156 C 1.035156 -0.59375 1.050781 -0.675781 1.050781 -0.769531 L 1.050781 -4.570312 C 1.050781 -4.664062 1.039062 -4.738281 1.011719 -4.796875 C 0.980469 -4.859375 0.914062 -4.910156 0.808594 -4.960938 C 0.742188 -4.988281 0.652344 -5.019531 0.53125 -5.042969 C 0.414062 -5.070312 0.324219 -5.085938 0.261719 -5.09375 L 0.261719 -5.390625 L 5.039062 -5.390625 Z "/>
</g>
<g id="glyph-0-12">
<path d="M 3.859375 -3.9375 C 3.859375 -3.429688 3.683594 -3.015625 3.335938 -2.699219 C 2.984375 -2.382812 2.519531 -2.203125 1.9375 -2.15625 L 1.914062 -1.640625 L 1.574219 -1.640625 L 1.574219 -3.117188 C 1.941406 -3.148438 2.230469 -3.265625 2.4375 -3.464844 C 2.644531 -3.667969 2.75 -3.941406 2.75 -4.289062 C 2.75 -4.5625 2.675781 -4.785156 2.53125 -4.949219 C 2.386719 -5.117188 2.191406 -5.199219 1.945312 -5.199219 C 1.839844 -5.199219 1.75 -5.1875 1.667969 -5.167969 C 1.585938 -5.144531 1.507812 -5.113281 1.433594 -5.066406 C 1.457031 -4.984375 1.488281 -4.878906 1.519531 -4.753906 C 1.554688 -4.625 1.570312 -4.507812 1.570312 -4.398438 C 1.570312 -4.21875 1.515625 -4.082031 1.398438 -3.984375 C 1.285156 -3.886719 1.125 -3.839844 0.917969 -3.839844 C 0.726562 -3.839844 0.574219 -3.898438 0.464844 -4.023438 C 0.355469 -4.144531 0.300781 -4.292969 0.300781 -4.46875 C 0.300781 -4.761719 0.464844 -5.007812 0.796875 -5.210938 C 1.128906 -5.414062 1.527344 -5.515625 1.996094 -5.515625 C 2.550781 -5.515625 3 -5.371094 3.34375 -5.082031 C 3.6875 -4.792969 3.859375 -4.410156 3.859375 -3.9375 M 2.492188 -0.59375 C 2.492188 -0.398438 2.417969 -0.234375 2.273438 -0.0976562 C 2.128906 0.0429688 1.957031 0.109375 1.761719 0.109375 C 1.566406 0.109375 1.394531 0.0429688 1.246094 -0.0976562 C 1.101562 -0.234375 1.027344 -0.398438 1.027344 -0.59375 C 1.027344 -0.785156 1.101562 -0.953125 1.246094 -1.089844 C 1.394531 -1.230469 1.566406 -1.300781 1.761719 -1.300781 C 1.957031 -1.300781 2.128906 -1.230469 2.273438 -1.089844 C 2.417969 -0.953125 2.492188 -0.785156 2.492188 -0.59375 Z "/>
</g>
</g>
</defs>
<g fill="rgb(15.294118%, 78.823529%, 62.352941%)" fill-opacity="1">
<use xlink:href="#glyph-0-0" x="30" y="27.131836"/>
<use xlink:href="#glyph-0-1" x="39" y="27.131836"/>
<use xlink:href="#glyph-0-2" x="46" y="27.131836"/>
<use xlink:href="#glyph-0-3" x="52" y="27.131836"/>
<use xlink:href="#glyph-0-4" x="57" y="27.131836"/>
<use xlink:href="#glyph-0-2" x="62" y="27.131836"/>
<use xlink:href="#glyph-0-5" x="68" y="27.131836"/>
<use xlink:href="#glyph-0-5" x="73" y="27.131836"/>
<use xlink:href="#glyph-0-6" x="78" y="27.131836"/>
<use xlink:href="#glyph-0-2" x="80" y="27.131836"/>
<use xlink:href="#glyph-0-7" x="86" y="27.131836"/>
<use xlink:href="#glyph-0-6" x="91" y="27.131836"/>
<use xlink:href="#glyph-0-8" x="93" y="27.131836"/>
<use xlink:href="#glyph-0-9" x="101" y="27.131836"/>
<use xlink:href="#glyph-0-4" x="104" y="27.131836"/>
<use xlink:href="#glyph-0-8" x="109" y="27.131836"/>
<use xlink:href="#glyph-0-10" x="117" y="27.131836"/>
<use xlink:href="#glyph-0-6" x="123" y="27.131836"/>
<use xlink:href="#glyph-0-3" x="125" y="27.131836"/>
<use xlink:href="#glyph-0-9" x="130" y="27.131836"/>
<use xlink:href="#glyph-0-11" x="133" y="27.131836"/>
<use xlink:href="#glyph-0-8" x="139" y="27.131836"/>
<use xlink:href="#glyph-0-5" x="147" y="27.131836"/>
<use xlink:href="#glyph-0-10" x="152" y="27.131836"/>
<use xlink:href="#glyph-0-12" x="158" y="27.131836"/>
</g>
</svg>
